G04 EAGLE Gerber RS-274X export*
G75*
%MOMM*%
%FSLAX34Y34*%
%LPD*%
%IN*%
%IPPOS*%
%AMOC8*
5,1,8,0,0,1.08239X$1,22.5*%
G01*
%ADD10C,0.254000*%


D10*
X25400Y489712D02*
X677980Y489712D01*
X677980Y961900D01*
X25400Y961900D01*
X25400Y489712D01*
X78994Y924528D02*
X78923Y923449D01*
X78782Y922377D01*
X78571Y921317D01*
X78292Y920273D01*
X77944Y919249D01*
X77530Y918251D01*
X77052Y917281D01*
X76512Y916345D01*
X75911Y915446D01*
X75253Y914589D01*
X74541Y913776D01*
X73776Y913012D01*
X72963Y912299D01*
X72106Y911641D01*
X71207Y911040D01*
X70271Y910500D01*
X69301Y910022D01*
X68303Y909608D01*
X67279Y909260D01*
X66235Y908981D01*
X65175Y908770D01*
X64103Y908629D01*
X63024Y908558D01*
X61944Y908558D01*
X60865Y908629D01*
X59793Y908770D01*
X58733Y908981D01*
X57689Y909260D01*
X56665Y909608D01*
X55667Y910022D01*
X54697Y910500D01*
X53761Y911040D01*
X52862Y911641D01*
X52005Y912299D01*
X51192Y913012D01*
X50428Y913776D01*
X49715Y914589D01*
X49057Y915446D01*
X48456Y916345D01*
X47916Y917281D01*
X47438Y918251D01*
X47024Y919249D01*
X46676Y920273D01*
X46397Y921317D01*
X46186Y922377D01*
X46045Y923449D01*
X45974Y924528D01*
X45974Y925608D01*
X46045Y926687D01*
X46186Y927759D01*
X46397Y928819D01*
X46676Y929863D01*
X47024Y930887D01*
X47438Y931885D01*
X47916Y932855D01*
X48456Y933791D01*
X49057Y934690D01*
X49715Y935547D01*
X50428Y936360D01*
X51192Y937125D01*
X52005Y937837D01*
X52862Y938495D01*
X53761Y939096D01*
X54697Y939636D01*
X55667Y940114D01*
X56665Y940528D01*
X57689Y940876D01*
X58733Y941155D01*
X59793Y941366D01*
X60865Y941507D01*
X61944Y941578D01*
X63024Y941578D01*
X64103Y941507D01*
X65175Y941366D01*
X66235Y941155D01*
X67279Y940876D01*
X68303Y940528D01*
X69301Y940114D01*
X70271Y939636D01*
X71207Y939096D01*
X72106Y938495D01*
X72963Y937837D01*
X73776Y937125D01*
X74541Y936360D01*
X75253Y935547D01*
X75911Y934690D01*
X76512Y933791D01*
X77052Y932855D01*
X77530Y931885D01*
X77944Y930887D01*
X78292Y929863D01*
X78571Y928819D01*
X78782Y927759D01*
X78923Y926687D01*
X78994Y925608D01*
X78994Y924528D01*
X657098Y925036D02*
X657027Y923957D01*
X656886Y922885D01*
X656675Y921825D01*
X656396Y920781D01*
X656048Y919757D01*
X655634Y918759D01*
X655156Y917789D01*
X654616Y916853D01*
X654015Y915954D01*
X653357Y915097D01*
X652645Y914284D01*
X651880Y913520D01*
X651067Y912807D01*
X650210Y912149D01*
X649311Y911548D01*
X648375Y911008D01*
X647405Y910530D01*
X646407Y910116D01*
X645383Y909768D01*
X644339Y909489D01*
X643279Y909278D01*
X642207Y909137D01*
X641128Y909066D01*
X640048Y909066D01*
X638969Y909137D01*
X637897Y909278D01*
X636837Y909489D01*
X635793Y909768D01*
X634769Y910116D01*
X633771Y910530D01*
X632801Y911008D01*
X631865Y911548D01*
X630966Y912149D01*
X630109Y912807D01*
X629296Y913520D01*
X628532Y914284D01*
X627819Y915097D01*
X627161Y915954D01*
X626560Y916853D01*
X626020Y917789D01*
X625542Y918759D01*
X625128Y919757D01*
X624780Y920781D01*
X624501Y921825D01*
X624290Y922885D01*
X624149Y923957D01*
X624078Y925036D01*
X624078Y926116D01*
X624149Y927195D01*
X624290Y928267D01*
X624501Y929327D01*
X624780Y930371D01*
X625128Y931395D01*
X625542Y932393D01*
X626020Y933363D01*
X626560Y934299D01*
X627161Y935198D01*
X627819Y936055D01*
X628532Y936868D01*
X629296Y937633D01*
X630109Y938345D01*
X630966Y939003D01*
X631865Y939604D01*
X632801Y940144D01*
X633771Y940622D01*
X634769Y941036D01*
X635793Y941384D01*
X636837Y941663D01*
X637897Y941874D01*
X638969Y942015D01*
X640048Y942086D01*
X641128Y942086D01*
X642207Y942015D01*
X643279Y941874D01*
X644339Y941663D01*
X645383Y941384D01*
X646407Y941036D01*
X647405Y940622D01*
X648375Y940144D01*
X649311Y939604D01*
X650210Y939003D01*
X651067Y938345D01*
X651880Y937633D01*
X652645Y936868D01*
X653357Y936055D01*
X654015Y935198D01*
X654616Y934299D01*
X655156Y933363D01*
X655634Y932393D01*
X656048Y931395D01*
X656396Y930371D01*
X656675Y929327D01*
X656886Y928267D01*
X657027Y927195D01*
X657098Y926116D01*
X657098Y925036D01*
X80010Y524732D02*
X79939Y523653D01*
X79798Y522581D01*
X79587Y521521D01*
X79308Y520477D01*
X78960Y519453D01*
X78546Y518455D01*
X78068Y517485D01*
X77528Y516549D01*
X76927Y515650D01*
X76269Y514793D01*
X75557Y513980D01*
X74792Y513216D01*
X73979Y512503D01*
X73122Y511845D01*
X72223Y511244D01*
X71287Y510704D01*
X70317Y510226D01*
X69319Y509812D01*
X68295Y509464D01*
X67251Y509185D01*
X66191Y508974D01*
X65119Y508833D01*
X64040Y508762D01*
X62960Y508762D01*
X61881Y508833D01*
X60809Y508974D01*
X59749Y509185D01*
X58705Y509464D01*
X57681Y509812D01*
X56683Y510226D01*
X55713Y510704D01*
X54777Y511244D01*
X53878Y511845D01*
X53021Y512503D01*
X52208Y513216D01*
X51444Y513980D01*
X50731Y514793D01*
X50073Y515650D01*
X49472Y516549D01*
X48932Y517485D01*
X48454Y518455D01*
X48040Y519453D01*
X47692Y520477D01*
X47413Y521521D01*
X47202Y522581D01*
X47061Y523653D01*
X46990Y524732D01*
X46990Y525812D01*
X47061Y526891D01*
X47202Y527963D01*
X47413Y529023D01*
X47692Y530067D01*
X48040Y531091D01*
X48454Y532089D01*
X48932Y533059D01*
X49472Y533995D01*
X50073Y534894D01*
X50731Y535751D01*
X51444Y536564D01*
X52208Y537329D01*
X53021Y538041D01*
X53878Y538699D01*
X54777Y539300D01*
X55713Y539840D01*
X56683Y540318D01*
X57681Y540732D01*
X58705Y541080D01*
X59749Y541359D01*
X60809Y541570D01*
X61881Y541711D01*
X62960Y541782D01*
X64040Y541782D01*
X65119Y541711D01*
X66191Y541570D01*
X67251Y541359D01*
X68295Y541080D01*
X69319Y540732D01*
X70317Y540318D01*
X71287Y539840D01*
X72223Y539300D01*
X73122Y538699D01*
X73979Y538041D01*
X74792Y537329D01*
X75557Y536564D01*
X76269Y535751D01*
X76927Y534894D01*
X77528Y533995D01*
X78068Y533059D01*
X78546Y532089D01*
X78960Y531091D01*
X79308Y530067D01*
X79587Y529023D01*
X79798Y527963D01*
X79939Y526891D01*
X80010Y525812D01*
X80010Y524732D01*
X656082Y526764D02*
X656011Y525685D01*
X655870Y524613D01*
X655659Y523553D01*
X655380Y522509D01*
X655032Y521485D01*
X654618Y520487D01*
X654140Y519517D01*
X653600Y518581D01*
X652999Y517682D01*
X652341Y516825D01*
X651629Y516012D01*
X650864Y515248D01*
X650051Y514535D01*
X649194Y513877D01*
X648295Y513276D01*
X647359Y512736D01*
X646389Y512258D01*
X645391Y511844D01*
X644367Y511496D01*
X643323Y511217D01*
X642263Y511006D01*
X641191Y510865D01*
X640112Y510794D01*
X639032Y510794D01*
X637953Y510865D01*
X636881Y511006D01*
X635821Y511217D01*
X634777Y511496D01*
X633753Y511844D01*
X632755Y512258D01*
X631785Y512736D01*
X630849Y513276D01*
X629950Y513877D01*
X629093Y514535D01*
X628280Y515248D01*
X627516Y516012D01*
X626803Y516825D01*
X626145Y517682D01*
X625544Y518581D01*
X625004Y519517D01*
X624526Y520487D01*
X624112Y521485D01*
X623764Y522509D01*
X623485Y523553D01*
X623274Y524613D01*
X623133Y525685D01*
X623062Y526764D01*
X623062Y527844D01*
X623133Y528923D01*
X623274Y529995D01*
X623485Y531055D01*
X623764Y532099D01*
X624112Y533123D01*
X624526Y534121D01*
X625004Y535091D01*
X625544Y536027D01*
X626145Y536926D01*
X626803Y537783D01*
X627516Y538596D01*
X628280Y539361D01*
X629093Y540073D01*
X629950Y540731D01*
X630849Y541332D01*
X631785Y541872D01*
X632755Y542350D01*
X633753Y542764D01*
X634777Y543112D01*
X635821Y543391D01*
X636881Y543602D01*
X637953Y543743D01*
X639032Y543814D01*
X640112Y543814D01*
X641191Y543743D01*
X642263Y543602D01*
X643323Y543391D01*
X644367Y543112D01*
X645391Y542764D01*
X646389Y542350D01*
X647359Y541872D01*
X648295Y541332D01*
X649194Y540731D01*
X650051Y540073D01*
X650864Y539361D01*
X651629Y538596D01*
X652341Y537783D01*
X652999Y536926D01*
X653600Y536027D01*
X654140Y535091D01*
X654618Y534121D01*
X655032Y533123D01*
X655380Y532099D01*
X655659Y531055D01*
X655870Y529995D01*
X656011Y528923D01*
X656082Y527844D01*
X656082Y526764D01*
M02*
