G04 EAGLE Gerber RS-274X export*
G75*
%MOMM*%
%FSLAX34Y34*%
%LPD*%
%INSilkscreen Top*%
%IPPOS*%
%AMOC8*
5,1,8,0,0,1.08239X$1,22.5*%
G01*
%ADD10C,0.152400*%
%ADD11C,0.127000*%
%ADD12C,0.120000*%
%ADD13C,0.101600*%
%ADD14C,0.254000*%
%ADD15R,2.100000X0.300000*%
%ADD16R,0.325000X0.425000*%
%ADD17R,0.350000X0.350000*%
%ADD18C,0.203200*%
%ADD19R,1.676400X0.965200*%


D10*
X133350Y927100D02*
X146050Y927100D01*
X152400Y920750D01*
X152400Y908050D01*
X146050Y901700D01*
X127000Y908050D02*
X127000Y920750D01*
X133350Y927100D01*
X127000Y908050D02*
X133350Y901700D01*
X146050Y901700D01*
X152400Y920750D02*
X158750Y927100D01*
X171450Y927100D01*
X177800Y920750D01*
X177800Y908050D01*
X171450Y901700D01*
X158750Y901700D01*
X152400Y908050D01*
D11*
X126873Y942213D02*
X130048Y944753D01*
X130048Y933323D01*
X126873Y933323D02*
X133223Y933323D01*
X144654Y941896D02*
X144652Y942000D01*
X144646Y942105D01*
X144637Y942209D01*
X144624Y942312D01*
X144606Y942415D01*
X144586Y942517D01*
X144561Y942619D01*
X144533Y942719D01*
X144501Y942819D01*
X144465Y942917D01*
X144426Y943014D01*
X144384Y943109D01*
X144338Y943203D01*
X144288Y943295D01*
X144236Y943385D01*
X144180Y943473D01*
X144120Y943559D01*
X144058Y943643D01*
X143993Y943724D01*
X143925Y943803D01*
X143853Y943880D01*
X143780Y943953D01*
X143703Y944025D01*
X143624Y944093D01*
X143543Y944158D01*
X143459Y944220D01*
X143373Y944280D01*
X143285Y944336D01*
X143195Y944388D01*
X143103Y944438D01*
X143009Y944484D01*
X142914Y944526D01*
X142817Y944565D01*
X142719Y944601D01*
X142619Y944633D01*
X142519Y944661D01*
X142417Y944686D01*
X142315Y944706D01*
X142212Y944724D01*
X142109Y944737D01*
X142005Y944746D01*
X141900Y944752D01*
X141796Y944754D01*
X141796Y944753D02*
X141678Y944751D01*
X141559Y944745D01*
X141441Y944736D01*
X141324Y944723D01*
X141207Y944705D01*
X141090Y944685D01*
X140974Y944660D01*
X140859Y944632D01*
X140746Y944599D01*
X140633Y944564D01*
X140521Y944524D01*
X140411Y944482D01*
X140302Y944435D01*
X140194Y944385D01*
X140089Y944332D01*
X139985Y944275D01*
X139883Y944215D01*
X139783Y944152D01*
X139685Y944085D01*
X139589Y944016D01*
X139496Y943943D01*
X139405Y943867D01*
X139316Y943789D01*
X139230Y943707D01*
X139147Y943623D01*
X139066Y943537D01*
X138989Y943447D01*
X138914Y943356D01*
X138842Y943262D01*
X138773Y943165D01*
X138708Y943067D01*
X138645Y942966D01*
X138586Y942863D01*
X138530Y942759D01*
X138478Y942653D01*
X138429Y942545D01*
X138384Y942436D01*
X138342Y942325D01*
X138304Y942213D01*
X143701Y939674D02*
X143777Y939749D01*
X143852Y939828D01*
X143923Y939909D01*
X143992Y939993D01*
X144057Y940079D01*
X144119Y940167D01*
X144179Y940257D01*
X144235Y940349D01*
X144288Y940444D01*
X144337Y940540D01*
X144383Y940638D01*
X144426Y940737D01*
X144465Y940838D01*
X144500Y940940D01*
X144532Y941043D01*
X144560Y941147D01*
X144585Y941252D01*
X144606Y941359D01*
X144623Y941465D01*
X144636Y941572D01*
X144645Y941680D01*
X144651Y941788D01*
X144653Y941896D01*
X143701Y939673D02*
X138303Y933323D01*
X144653Y933323D01*
X152908Y933323D02*
X149098Y944753D01*
X156718Y944753D02*
X152908Y933323D01*
X161290Y937768D02*
X168910Y937768D01*
X174117Y942213D02*
X177292Y944753D01*
X177292Y933323D01*
X174117Y933323D02*
X180467Y933323D01*
D10*
X552450Y901700D02*
X565150Y901700D01*
X552450Y901700D02*
X546100Y908050D01*
X546100Y920750D01*
X552450Y927100D01*
X571500Y920750D02*
X571500Y908050D01*
X565150Y901700D01*
X571500Y920750D02*
X565150Y927100D01*
X552450Y927100D01*
X546100Y908050D02*
X539750Y901700D01*
X527050Y901700D01*
X520700Y908050D01*
X520700Y920750D01*
X527050Y927100D01*
X539750Y927100D01*
X546100Y920750D01*
D11*
X521208Y895477D02*
X518033Y892937D01*
X521208Y895477D02*
X521208Y884047D01*
X518033Y884047D02*
X524383Y884047D01*
X535814Y892620D02*
X535812Y892724D01*
X535806Y892829D01*
X535797Y892933D01*
X535784Y893036D01*
X535766Y893139D01*
X535746Y893241D01*
X535721Y893343D01*
X535693Y893443D01*
X535661Y893543D01*
X535625Y893641D01*
X535586Y893738D01*
X535544Y893833D01*
X535498Y893927D01*
X535448Y894019D01*
X535396Y894109D01*
X535340Y894197D01*
X535280Y894283D01*
X535218Y894367D01*
X535153Y894448D01*
X535085Y894527D01*
X535013Y894604D01*
X534940Y894677D01*
X534863Y894749D01*
X534784Y894817D01*
X534703Y894882D01*
X534619Y894944D01*
X534533Y895004D01*
X534445Y895060D01*
X534355Y895112D01*
X534263Y895162D01*
X534169Y895208D01*
X534074Y895250D01*
X533977Y895289D01*
X533879Y895325D01*
X533779Y895357D01*
X533679Y895385D01*
X533577Y895410D01*
X533475Y895430D01*
X533372Y895448D01*
X533269Y895461D01*
X533165Y895470D01*
X533060Y895476D01*
X532956Y895478D01*
X532956Y895477D02*
X532838Y895475D01*
X532719Y895469D01*
X532601Y895460D01*
X532484Y895447D01*
X532367Y895429D01*
X532250Y895409D01*
X532134Y895384D01*
X532019Y895356D01*
X531906Y895323D01*
X531793Y895288D01*
X531681Y895248D01*
X531571Y895206D01*
X531462Y895159D01*
X531354Y895109D01*
X531249Y895056D01*
X531145Y894999D01*
X531043Y894939D01*
X530943Y894876D01*
X530845Y894809D01*
X530749Y894740D01*
X530656Y894667D01*
X530565Y894591D01*
X530476Y894513D01*
X530390Y894431D01*
X530307Y894347D01*
X530226Y894261D01*
X530149Y894171D01*
X530074Y894080D01*
X530002Y893986D01*
X529933Y893889D01*
X529868Y893791D01*
X529805Y893690D01*
X529746Y893587D01*
X529690Y893483D01*
X529638Y893377D01*
X529589Y893269D01*
X529544Y893160D01*
X529502Y893049D01*
X529464Y892937D01*
X534861Y890398D02*
X534937Y890473D01*
X535012Y890552D01*
X535083Y890633D01*
X535152Y890717D01*
X535217Y890803D01*
X535279Y890891D01*
X535339Y890981D01*
X535395Y891073D01*
X535448Y891168D01*
X535497Y891264D01*
X535543Y891362D01*
X535586Y891461D01*
X535625Y891562D01*
X535660Y891664D01*
X535692Y891767D01*
X535720Y891871D01*
X535745Y891976D01*
X535766Y892083D01*
X535783Y892189D01*
X535796Y892296D01*
X535805Y892404D01*
X535811Y892512D01*
X535813Y892620D01*
X534861Y890397D02*
X529463Y884047D01*
X535813Y884047D01*
X544068Y884047D02*
X540258Y895477D01*
X547878Y895477D02*
X544068Y884047D01*
X552450Y888492D02*
X560070Y888492D01*
X568770Y895478D02*
X568874Y895476D01*
X568979Y895470D01*
X569083Y895461D01*
X569186Y895448D01*
X569289Y895430D01*
X569391Y895410D01*
X569493Y895385D01*
X569593Y895357D01*
X569693Y895325D01*
X569791Y895289D01*
X569888Y895250D01*
X569983Y895208D01*
X570077Y895162D01*
X570169Y895112D01*
X570259Y895060D01*
X570347Y895004D01*
X570433Y894944D01*
X570517Y894882D01*
X570598Y894817D01*
X570677Y894749D01*
X570754Y894677D01*
X570827Y894604D01*
X570899Y894527D01*
X570967Y894448D01*
X571032Y894367D01*
X571094Y894283D01*
X571154Y894197D01*
X571210Y894109D01*
X571262Y894019D01*
X571312Y893927D01*
X571358Y893833D01*
X571400Y893738D01*
X571439Y893641D01*
X571475Y893543D01*
X571507Y893443D01*
X571535Y893343D01*
X571560Y893241D01*
X571580Y893139D01*
X571598Y893036D01*
X571611Y892933D01*
X571620Y892829D01*
X571626Y892724D01*
X571628Y892620D01*
X568770Y895477D02*
X568652Y895475D01*
X568533Y895469D01*
X568415Y895460D01*
X568298Y895447D01*
X568181Y895429D01*
X568064Y895409D01*
X567948Y895384D01*
X567833Y895356D01*
X567720Y895323D01*
X567607Y895288D01*
X567495Y895248D01*
X567385Y895206D01*
X567276Y895159D01*
X567168Y895109D01*
X567063Y895056D01*
X566959Y894999D01*
X566857Y894939D01*
X566757Y894876D01*
X566659Y894809D01*
X566563Y894740D01*
X566470Y894667D01*
X566379Y894591D01*
X566290Y894513D01*
X566204Y894431D01*
X566121Y894347D01*
X566040Y894261D01*
X565963Y894171D01*
X565888Y894080D01*
X565816Y893986D01*
X565747Y893889D01*
X565682Y893791D01*
X565619Y893690D01*
X565560Y893587D01*
X565504Y893483D01*
X565452Y893377D01*
X565403Y893269D01*
X565358Y893160D01*
X565316Y893049D01*
X565278Y892937D01*
X570675Y890398D02*
X570751Y890473D01*
X570826Y890552D01*
X570897Y890633D01*
X570966Y890717D01*
X571031Y890803D01*
X571093Y890891D01*
X571153Y890981D01*
X571209Y891073D01*
X571262Y891168D01*
X571311Y891264D01*
X571357Y891362D01*
X571400Y891461D01*
X571439Y891562D01*
X571474Y891664D01*
X571506Y891767D01*
X571534Y891871D01*
X571559Y891976D01*
X571580Y892083D01*
X571597Y892189D01*
X571610Y892296D01*
X571619Y892404D01*
X571625Y892512D01*
X571627Y892620D01*
X570675Y890397D02*
X565277Y884047D01*
X571627Y884047D01*
D10*
X400050Y533400D02*
X387350Y533400D01*
X381000Y539750D01*
X381000Y552450D01*
X387350Y558800D01*
X406400Y552450D02*
X406400Y539750D01*
X400050Y533400D01*
X406400Y552450D02*
X400050Y558800D01*
X387350Y558800D01*
X381000Y539750D02*
X374650Y533400D01*
X361950Y533400D01*
X355600Y539750D01*
X355600Y552450D01*
X361950Y558800D01*
X374650Y558800D01*
X381000Y552450D01*
D11*
X375285Y515747D02*
X372110Y515747D01*
X375285Y515747D02*
X375396Y515749D01*
X375506Y515755D01*
X375617Y515764D01*
X375727Y515778D01*
X375836Y515795D01*
X375945Y515816D01*
X376053Y515841D01*
X376160Y515870D01*
X376266Y515902D01*
X376371Y515938D01*
X376474Y515978D01*
X376576Y516021D01*
X376677Y516068D01*
X376776Y516119D01*
X376873Y516172D01*
X376967Y516229D01*
X377060Y516290D01*
X377151Y516353D01*
X377240Y516420D01*
X377326Y516490D01*
X377409Y516563D01*
X377491Y516638D01*
X377569Y516716D01*
X377644Y516798D01*
X377717Y516881D01*
X377787Y516967D01*
X377854Y517056D01*
X377917Y517147D01*
X377978Y517240D01*
X378035Y517334D01*
X378088Y517431D01*
X378139Y517530D01*
X378186Y517631D01*
X378229Y517733D01*
X378269Y517836D01*
X378305Y517941D01*
X378337Y518047D01*
X378366Y518154D01*
X378391Y518262D01*
X378412Y518371D01*
X378429Y518480D01*
X378443Y518590D01*
X378452Y518701D01*
X378458Y518811D01*
X378460Y518922D01*
X378458Y519033D01*
X378452Y519143D01*
X378443Y519254D01*
X378429Y519364D01*
X378412Y519473D01*
X378391Y519582D01*
X378366Y519690D01*
X378337Y519797D01*
X378305Y519903D01*
X378269Y520008D01*
X378229Y520111D01*
X378186Y520213D01*
X378139Y520314D01*
X378088Y520413D01*
X378035Y520509D01*
X377978Y520604D01*
X377917Y520697D01*
X377854Y520788D01*
X377787Y520877D01*
X377717Y520963D01*
X377644Y521046D01*
X377569Y521128D01*
X377491Y521206D01*
X377409Y521281D01*
X377326Y521354D01*
X377240Y521424D01*
X377151Y521491D01*
X377060Y521554D01*
X376967Y521615D01*
X376873Y521672D01*
X376776Y521725D01*
X376677Y521776D01*
X376576Y521823D01*
X376474Y521866D01*
X376371Y521906D01*
X376266Y521942D01*
X376160Y521974D01*
X376053Y522003D01*
X375945Y522028D01*
X375836Y522049D01*
X375727Y522066D01*
X375617Y522080D01*
X375506Y522089D01*
X375396Y522095D01*
X375285Y522097D01*
X375920Y527177D02*
X372110Y527177D01*
X375920Y527177D02*
X376020Y527175D01*
X376119Y527169D01*
X376219Y527159D01*
X376317Y527146D01*
X376416Y527128D01*
X376513Y527107D01*
X376609Y527082D01*
X376705Y527053D01*
X376799Y527020D01*
X376892Y526984D01*
X376983Y526944D01*
X377073Y526900D01*
X377161Y526853D01*
X377247Y526803D01*
X377331Y526749D01*
X377413Y526692D01*
X377492Y526632D01*
X377570Y526568D01*
X377644Y526502D01*
X377716Y526433D01*
X377785Y526361D01*
X377851Y526287D01*
X377915Y526209D01*
X377975Y526130D01*
X378032Y526048D01*
X378086Y525964D01*
X378136Y525878D01*
X378183Y525790D01*
X378227Y525700D01*
X378267Y525609D01*
X378303Y525516D01*
X378336Y525422D01*
X378365Y525326D01*
X378390Y525230D01*
X378411Y525133D01*
X378429Y525034D01*
X378442Y524936D01*
X378452Y524836D01*
X378458Y524737D01*
X378460Y524637D01*
X378458Y524537D01*
X378452Y524438D01*
X378442Y524338D01*
X378429Y524240D01*
X378411Y524141D01*
X378390Y524044D01*
X378365Y523948D01*
X378336Y523852D01*
X378303Y523758D01*
X378267Y523665D01*
X378227Y523574D01*
X378183Y523484D01*
X378136Y523396D01*
X378086Y523310D01*
X378032Y523226D01*
X377975Y523144D01*
X377915Y523065D01*
X377851Y522987D01*
X377785Y522913D01*
X377716Y522841D01*
X377644Y522772D01*
X377570Y522706D01*
X377492Y522642D01*
X377413Y522582D01*
X377331Y522525D01*
X377247Y522471D01*
X377161Y522421D01*
X377073Y522374D01*
X376983Y522330D01*
X376892Y522290D01*
X376799Y522254D01*
X376705Y522221D01*
X376609Y522192D01*
X376513Y522167D01*
X376416Y522146D01*
X376317Y522128D01*
X376219Y522115D01*
X376119Y522105D01*
X376020Y522099D01*
X375920Y522097D01*
X373380Y522097D01*
X382969Y516382D02*
X382969Y515747D01*
X382969Y516382D02*
X383604Y516382D01*
X383604Y515747D01*
X382969Y515747D01*
X388112Y515747D02*
X391287Y515747D01*
X391398Y515749D01*
X391508Y515755D01*
X391619Y515764D01*
X391729Y515778D01*
X391838Y515795D01*
X391947Y515816D01*
X392055Y515841D01*
X392162Y515870D01*
X392268Y515902D01*
X392373Y515938D01*
X392476Y515978D01*
X392578Y516021D01*
X392679Y516068D01*
X392778Y516119D01*
X392875Y516172D01*
X392969Y516229D01*
X393062Y516290D01*
X393153Y516353D01*
X393242Y516420D01*
X393328Y516490D01*
X393411Y516563D01*
X393493Y516638D01*
X393571Y516716D01*
X393646Y516798D01*
X393719Y516881D01*
X393789Y516967D01*
X393856Y517056D01*
X393919Y517147D01*
X393980Y517240D01*
X394037Y517334D01*
X394090Y517431D01*
X394141Y517530D01*
X394188Y517631D01*
X394231Y517733D01*
X394271Y517836D01*
X394307Y517941D01*
X394339Y518047D01*
X394368Y518154D01*
X394393Y518262D01*
X394414Y518371D01*
X394431Y518480D01*
X394445Y518590D01*
X394454Y518701D01*
X394460Y518811D01*
X394462Y518922D01*
X394460Y519033D01*
X394454Y519143D01*
X394445Y519254D01*
X394431Y519364D01*
X394414Y519473D01*
X394393Y519582D01*
X394368Y519690D01*
X394339Y519797D01*
X394307Y519903D01*
X394271Y520008D01*
X394231Y520111D01*
X394188Y520213D01*
X394141Y520314D01*
X394090Y520413D01*
X394037Y520509D01*
X393980Y520604D01*
X393919Y520697D01*
X393856Y520788D01*
X393789Y520877D01*
X393719Y520963D01*
X393646Y521046D01*
X393571Y521128D01*
X393493Y521206D01*
X393411Y521281D01*
X393328Y521354D01*
X393242Y521424D01*
X393153Y521491D01*
X393062Y521554D01*
X392969Y521615D01*
X392875Y521672D01*
X392778Y521725D01*
X392679Y521776D01*
X392578Y521823D01*
X392476Y521866D01*
X392373Y521906D01*
X392268Y521942D01*
X392162Y521974D01*
X392055Y522003D01*
X391947Y522028D01*
X391838Y522049D01*
X391729Y522066D01*
X391619Y522080D01*
X391508Y522089D01*
X391398Y522095D01*
X391287Y522097D01*
X391922Y527177D02*
X388112Y527177D01*
X391922Y527177D02*
X392022Y527175D01*
X392121Y527169D01*
X392221Y527159D01*
X392319Y527146D01*
X392418Y527128D01*
X392515Y527107D01*
X392611Y527082D01*
X392707Y527053D01*
X392801Y527020D01*
X392894Y526984D01*
X392985Y526944D01*
X393075Y526900D01*
X393163Y526853D01*
X393249Y526803D01*
X393333Y526749D01*
X393415Y526692D01*
X393494Y526632D01*
X393572Y526568D01*
X393646Y526502D01*
X393718Y526433D01*
X393787Y526361D01*
X393853Y526287D01*
X393917Y526209D01*
X393977Y526130D01*
X394034Y526048D01*
X394088Y525964D01*
X394138Y525878D01*
X394185Y525790D01*
X394229Y525700D01*
X394269Y525609D01*
X394305Y525516D01*
X394338Y525422D01*
X394367Y525326D01*
X394392Y525230D01*
X394413Y525133D01*
X394431Y525034D01*
X394444Y524936D01*
X394454Y524836D01*
X394460Y524737D01*
X394462Y524637D01*
X394460Y524537D01*
X394454Y524438D01*
X394444Y524338D01*
X394431Y524240D01*
X394413Y524141D01*
X394392Y524044D01*
X394367Y523948D01*
X394338Y523852D01*
X394305Y523758D01*
X394269Y523665D01*
X394229Y523574D01*
X394185Y523484D01*
X394138Y523396D01*
X394088Y523310D01*
X394034Y523226D01*
X393977Y523144D01*
X393917Y523065D01*
X393853Y522987D01*
X393787Y522913D01*
X393718Y522841D01*
X393646Y522772D01*
X393572Y522706D01*
X393494Y522642D01*
X393415Y522582D01*
X393333Y522525D01*
X393249Y522471D01*
X393163Y522421D01*
X393075Y522374D01*
X392985Y522330D01*
X392894Y522290D01*
X392801Y522254D01*
X392707Y522221D01*
X392611Y522192D01*
X392515Y522167D01*
X392418Y522146D01*
X392319Y522128D01*
X392221Y522115D01*
X392121Y522105D01*
X392022Y522099D01*
X391922Y522097D01*
X389382Y522097D01*
X398907Y527177D02*
X402717Y515747D01*
X406527Y527177D01*
D10*
X179578Y526288D02*
X166878Y526288D01*
X160528Y532638D01*
X160528Y545338D01*
X166878Y551688D01*
X185928Y545338D02*
X185928Y532638D01*
X179578Y526288D01*
X185928Y545338D02*
X179578Y551688D01*
X166878Y551688D01*
X160528Y532638D02*
X154178Y526288D01*
X141478Y526288D01*
X135128Y532638D01*
X135128Y545338D01*
X141478Y551688D01*
X154178Y551688D01*
X160528Y545338D01*
D11*
X167640Y508635D02*
X171450Y508635D01*
X171550Y508637D01*
X171649Y508643D01*
X171749Y508653D01*
X171847Y508666D01*
X171946Y508684D01*
X172043Y508705D01*
X172139Y508730D01*
X172235Y508759D01*
X172329Y508792D01*
X172422Y508828D01*
X172513Y508868D01*
X172603Y508912D01*
X172691Y508959D01*
X172777Y509009D01*
X172861Y509063D01*
X172943Y509120D01*
X173022Y509180D01*
X173100Y509244D01*
X173174Y509310D01*
X173246Y509379D01*
X173315Y509451D01*
X173381Y509525D01*
X173445Y509603D01*
X173505Y509682D01*
X173562Y509764D01*
X173616Y509848D01*
X173666Y509934D01*
X173713Y510022D01*
X173757Y510112D01*
X173797Y510203D01*
X173833Y510296D01*
X173866Y510390D01*
X173895Y510486D01*
X173920Y510582D01*
X173941Y510679D01*
X173959Y510778D01*
X173972Y510876D01*
X173982Y510976D01*
X173988Y511075D01*
X173990Y511175D01*
X173990Y512445D01*
X173988Y512545D01*
X173982Y512644D01*
X173972Y512744D01*
X173959Y512842D01*
X173941Y512941D01*
X173920Y513038D01*
X173895Y513134D01*
X173866Y513230D01*
X173833Y513324D01*
X173797Y513417D01*
X173757Y513508D01*
X173713Y513598D01*
X173666Y513686D01*
X173616Y513772D01*
X173562Y513856D01*
X173505Y513938D01*
X173445Y514017D01*
X173381Y514095D01*
X173315Y514169D01*
X173246Y514241D01*
X173174Y514310D01*
X173100Y514376D01*
X173022Y514440D01*
X172943Y514500D01*
X172861Y514557D01*
X172777Y514611D01*
X172691Y514661D01*
X172603Y514708D01*
X172513Y514752D01*
X172422Y514792D01*
X172329Y514828D01*
X172235Y514861D01*
X172139Y514890D01*
X172043Y514915D01*
X171946Y514936D01*
X171847Y514954D01*
X171749Y514967D01*
X171649Y514977D01*
X171550Y514983D01*
X171450Y514985D01*
X167640Y514985D01*
X167640Y520065D01*
X173990Y520065D01*
X178435Y520065D02*
X182245Y508635D01*
X186055Y520065D01*
D12*
X201500Y889417D02*
X201500Y907838D01*
X222462Y928800D01*
X306500Y928800D01*
X306500Y889417D01*
X201500Y863183D02*
X201500Y844762D01*
X222462Y823800D01*
X306500Y823800D01*
X306500Y863183D01*
D13*
X251168Y935658D02*
X248572Y935658D01*
X248473Y935660D01*
X248373Y935666D01*
X248274Y935675D01*
X248176Y935688D01*
X248078Y935705D01*
X247980Y935726D01*
X247884Y935751D01*
X247789Y935779D01*
X247695Y935811D01*
X247602Y935846D01*
X247510Y935885D01*
X247420Y935928D01*
X247332Y935973D01*
X247245Y936023D01*
X247161Y936075D01*
X247078Y936131D01*
X246998Y936189D01*
X246920Y936251D01*
X246845Y936316D01*
X246772Y936384D01*
X246702Y936454D01*
X246634Y936527D01*
X246569Y936602D01*
X246507Y936680D01*
X246449Y936760D01*
X246393Y936843D01*
X246341Y936927D01*
X246291Y937014D01*
X246246Y937102D01*
X246203Y937192D01*
X246164Y937284D01*
X246129Y937377D01*
X246097Y937471D01*
X246069Y937566D01*
X246044Y937662D01*
X246023Y937760D01*
X246006Y937858D01*
X245993Y937956D01*
X245984Y938055D01*
X245978Y938155D01*
X245976Y938254D01*
X245975Y938254D02*
X245975Y944746D01*
X245976Y944746D02*
X245978Y944845D01*
X245984Y944945D01*
X245993Y945044D01*
X246006Y945142D01*
X246023Y945240D01*
X246044Y945338D01*
X246069Y945434D01*
X246097Y945529D01*
X246129Y945623D01*
X246164Y945716D01*
X246203Y945808D01*
X246246Y945898D01*
X246291Y945986D01*
X246341Y946073D01*
X246393Y946157D01*
X246449Y946240D01*
X246507Y946320D01*
X246569Y946398D01*
X246634Y946473D01*
X246702Y946546D01*
X246772Y946616D01*
X246845Y946684D01*
X246920Y946749D01*
X246998Y946811D01*
X247078Y946869D01*
X247161Y946925D01*
X247245Y946977D01*
X247332Y947027D01*
X247420Y947072D01*
X247510Y947115D01*
X247602Y947154D01*
X247694Y947189D01*
X247789Y947221D01*
X247884Y947249D01*
X247980Y947274D01*
X248078Y947295D01*
X248176Y947312D01*
X248274Y947325D01*
X248373Y947334D01*
X248473Y947340D01*
X248572Y947342D01*
X251168Y947342D01*
X255534Y944746D02*
X258779Y947342D01*
X258779Y935658D01*
X255534Y935658D02*
X262025Y935658D01*
D12*
X226900Y641138D02*
X226900Y622717D01*
X226900Y641138D02*
X247862Y662100D01*
X331900Y662100D01*
X331900Y622717D01*
X226900Y596483D02*
X226900Y578062D01*
X247862Y557100D01*
X331900Y557100D01*
X331900Y596483D01*
D13*
X276568Y668958D02*
X273972Y668958D01*
X273873Y668960D01*
X273773Y668966D01*
X273674Y668975D01*
X273576Y668988D01*
X273478Y669005D01*
X273380Y669026D01*
X273284Y669051D01*
X273189Y669079D01*
X273095Y669111D01*
X273002Y669146D01*
X272910Y669185D01*
X272820Y669228D01*
X272732Y669273D01*
X272645Y669323D01*
X272561Y669375D01*
X272478Y669431D01*
X272398Y669489D01*
X272320Y669551D01*
X272245Y669616D01*
X272172Y669684D01*
X272102Y669754D01*
X272034Y669827D01*
X271969Y669902D01*
X271907Y669980D01*
X271849Y670060D01*
X271793Y670143D01*
X271741Y670227D01*
X271691Y670314D01*
X271646Y670402D01*
X271603Y670492D01*
X271564Y670584D01*
X271529Y670677D01*
X271497Y670771D01*
X271469Y670866D01*
X271444Y670962D01*
X271423Y671060D01*
X271406Y671158D01*
X271393Y671256D01*
X271384Y671355D01*
X271378Y671455D01*
X271376Y671554D01*
X271375Y671554D02*
X271375Y678046D01*
X271376Y678046D02*
X271378Y678145D01*
X271384Y678245D01*
X271393Y678344D01*
X271406Y678442D01*
X271423Y678540D01*
X271444Y678638D01*
X271469Y678734D01*
X271497Y678829D01*
X271529Y678923D01*
X271564Y679016D01*
X271603Y679108D01*
X271646Y679198D01*
X271691Y679286D01*
X271741Y679373D01*
X271793Y679457D01*
X271849Y679540D01*
X271907Y679620D01*
X271969Y679698D01*
X272034Y679773D01*
X272102Y679846D01*
X272172Y679916D01*
X272245Y679984D01*
X272320Y680049D01*
X272398Y680111D01*
X272478Y680169D01*
X272561Y680225D01*
X272645Y680277D01*
X272732Y680327D01*
X272820Y680372D01*
X272910Y680415D01*
X273002Y680454D01*
X273094Y680489D01*
X273189Y680521D01*
X273284Y680549D01*
X273380Y680574D01*
X273478Y680595D01*
X273576Y680612D01*
X273674Y680625D01*
X273773Y680634D01*
X273873Y680640D01*
X273972Y680642D01*
X276568Y680642D01*
X284504Y680642D02*
X284611Y680640D01*
X284717Y680634D01*
X284823Y680624D01*
X284929Y680611D01*
X285035Y680593D01*
X285139Y680572D01*
X285243Y680547D01*
X285346Y680518D01*
X285447Y680486D01*
X285547Y680449D01*
X285646Y680409D01*
X285744Y680366D01*
X285840Y680319D01*
X285934Y680268D01*
X286026Y680214D01*
X286116Y680157D01*
X286204Y680097D01*
X286289Y680033D01*
X286372Y679966D01*
X286453Y679896D01*
X286531Y679824D01*
X286607Y679748D01*
X286679Y679670D01*
X286749Y679589D01*
X286816Y679506D01*
X286880Y679421D01*
X286940Y679333D01*
X286997Y679243D01*
X287051Y679151D01*
X287102Y679057D01*
X287149Y678961D01*
X287192Y678863D01*
X287232Y678764D01*
X287269Y678664D01*
X287301Y678563D01*
X287330Y678460D01*
X287355Y678356D01*
X287376Y678252D01*
X287394Y678146D01*
X287407Y678040D01*
X287417Y677934D01*
X287423Y677828D01*
X287425Y677721D01*
X284504Y680642D02*
X284383Y680640D01*
X284262Y680634D01*
X284142Y680624D01*
X284021Y680611D01*
X283902Y680593D01*
X283782Y680572D01*
X283664Y680547D01*
X283547Y680518D01*
X283430Y680485D01*
X283315Y680449D01*
X283201Y680408D01*
X283088Y680365D01*
X282976Y680317D01*
X282867Y680266D01*
X282759Y680211D01*
X282652Y680153D01*
X282548Y680092D01*
X282446Y680027D01*
X282346Y679959D01*
X282248Y679888D01*
X282152Y679814D01*
X282059Y679737D01*
X281969Y679656D01*
X281881Y679573D01*
X281796Y679487D01*
X281713Y679398D01*
X281634Y679307D01*
X281557Y679213D01*
X281484Y679117D01*
X281414Y679019D01*
X281347Y678918D01*
X281283Y678815D01*
X281223Y678710D01*
X281166Y678603D01*
X281112Y678495D01*
X281062Y678385D01*
X281016Y678273D01*
X280973Y678160D01*
X280934Y678045D01*
X286451Y675449D02*
X286530Y675526D01*
X286606Y675607D01*
X286679Y675690D01*
X286749Y675775D01*
X286816Y675863D01*
X286880Y675953D01*
X286940Y676045D01*
X286997Y676140D01*
X287051Y676236D01*
X287102Y676334D01*
X287149Y676434D01*
X287193Y676536D01*
X287233Y676639D01*
X287269Y676743D01*
X287301Y676849D01*
X287330Y676955D01*
X287355Y677063D01*
X287377Y677171D01*
X287394Y677281D01*
X287408Y677390D01*
X287417Y677500D01*
X287423Y677611D01*
X287425Y677721D01*
X286451Y675449D02*
X280934Y668958D01*
X287425Y668958D01*
D11*
X182100Y825017D02*
X148100Y825017D01*
X148100Y800583D02*
X182100Y800583D01*
D13*
X162268Y831875D02*
X159672Y831875D01*
X159573Y831877D01*
X159473Y831883D01*
X159374Y831892D01*
X159276Y831905D01*
X159178Y831922D01*
X159080Y831943D01*
X158984Y831968D01*
X158889Y831996D01*
X158795Y832028D01*
X158702Y832063D01*
X158610Y832102D01*
X158520Y832145D01*
X158432Y832190D01*
X158345Y832240D01*
X158261Y832292D01*
X158178Y832348D01*
X158098Y832406D01*
X158020Y832468D01*
X157945Y832533D01*
X157872Y832601D01*
X157802Y832671D01*
X157734Y832744D01*
X157669Y832819D01*
X157607Y832897D01*
X157549Y832977D01*
X157493Y833060D01*
X157441Y833144D01*
X157391Y833231D01*
X157346Y833319D01*
X157303Y833409D01*
X157264Y833501D01*
X157229Y833594D01*
X157197Y833688D01*
X157169Y833783D01*
X157144Y833879D01*
X157123Y833977D01*
X157106Y834075D01*
X157093Y834173D01*
X157084Y834272D01*
X157078Y834372D01*
X157076Y834471D01*
X157075Y834471D02*
X157075Y840963D01*
X157076Y840963D02*
X157078Y841062D01*
X157084Y841162D01*
X157093Y841261D01*
X157106Y841359D01*
X157123Y841457D01*
X157144Y841555D01*
X157169Y841651D01*
X157197Y841746D01*
X157229Y841840D01*
X157264Y841933D01*
X157303Y842025D01*
X157346Y842115D01*
X157391Y842203D01*
X157441Y842290D01*
X157493Y842374D01*
X157549Y842457D01*
X157607Y842537D01*
X157669Y842615D01*
X157734Y842690D01*
X157802Y842763D01*
X157872Y842833D01*
X157945Y842901D01*
X158020Y842966D01*
X158098Y843028D01*
X158178Y843086D01*
X158261Y843142D01*
X158345Y843194D01*
X158432Y843244D01*
X158520Y843289D01*
X158610Y843332D01*
X158702Y843371D01*
X158794Y843406D01*
X158889Y843438D01*
X158984Y843466D01*
X159080Y843491D01*
X159178Y843512D01*
X159276Y843529D01*
X159374Y843542D01*
X159473Y843551D01*
X159573Y843557D01*
X159672Y843559D01*
X162268Y843559D01*
X166634Y831875D02*
X169879Y831875D01*
X169992Y831877D01*
X170105Y831883D01*
X170218Y831893D01*
X170331Y831907D01*
X170443Y831924D01*
X170554Y831946D01*
X170664Y831971D01*
X170774Y832001D01*
X170882Y832034D01*
X170989Y832071D01*
X171095Y832111D01*
X171199Y832156D01*
X171302Y832204D01*
X171403Y832255D01*
X171502Y832310D01*
X171599Y832368D01*
X171694Y832430D01*
X171787Y832495D01*
X171877Y832563D01*
X171965Y832634D01*
X172051Y832709D01*
X172134Y832786D01*
X172214Y832866D01*
X172291Y832949D01*
X172366Y833035D01*
X172437Y833123D01*
X172505Y833213D01*
X172570Y833306D01*
X172632Y833401D01*
X172690Y833498D01*
X172745Y833597D01*
X172796Y833698D01*
X172844Y833801D01*
X172889Y833905D01*
X172929Y834011D01*
X172966Y834118D01*
X172999Y834226D01*
X173029Y834336D01*
X173054Y834446D01*
X173076Y834557D01*
X173093Y834669D01*
X173107Y834782D01*
X173117Y834895D01*
X173123Y835008D01*
X173125Y835121D01*
X173123Y835234D01*
X173117Y835347D01*
X173107Y835460D01*
X173093Y835573D01*
X173076Y835685D01*
X173054Y835796D01*
X173029Y835906D01*
X172999Y836016D01*
X172966Y836124D01*
X172929Y836231D01*
X172889Y836337D01*
X172844Y836441D01*
X172796Y836544D01*
X172745Y836645D01*
X172690Y836744D01*
X172632Y836841D01*
X172570Y836936D01*
X172505Y837029D01*
X172437Y837119D01*
X172366Y837207D01*
X172291Y837293D01*
X172214Y837376D01*
X172134Y837456D01*
X172051Y837533D01*
X171965Y837608D01*
X171877Y837679D01*
X171787Y837747D01*
X171694Y837812D01*
X171599Y837874D01*
X171502Y837932D01*
X171403Y837987D01*
X171302Y838038D01*
X171199Y838086D01*
X171095Y838131D01*
X170989Y838171D01*
X170882Y838208D01*
X170774Y838241D01*
X170664Y838271D01*
X170554Y838296D01*
X170443Y838318D01*
X170331Y838335D01*
X170218Y838349D01*
X170105Y838359D01*
X169992Y838365D01*
X169879Y838367D01*
X170528Y843559D02*
X166634Y843559D01*
X170528Y843559D02*
X170629Y843557D01*
X170729Y843551D01*
X170829Y843541D01*
X170929Y843528D01*
X171028Y843510D01*
X171127Y843489D01*
X171224Y843464D01*
X171321Y843435D01*
X171416Y843402D01*
X171510Y843366D01*
X171602Y843326D01*
X171693Y843283D01*
X171782Y843236D01*
X171869Y843186D01*
X171955Y843132D01*
X172038Y843075D01*
X172118Y843015D01*
X172197Y842952D01*
X172273Y842885D01*
X172346Y842816D01*
X172416Y842744D01*
X172484Y842670D01*
X172549Y842593D01*
X172610Y842513D01*
X172669Y842431D01*
X172724Y842347D01*
X172776Y842261D01*
X172825Y842173D01*
X172870Y842083D01*
X172912Y841991D01*
X172950Y841898D01*
X172984Y841803D01*
X173015Y841708D01*
X173042Y841611D01*
X173065Y841513D01*
X173085Y841414D01*
X173100Y841314D01*
X173112Y841214D01*
X173120Y841114D01*
X173124Y841013D01*
X173124Y840913D01*
X173120Y840812D01*
X173112Y840712D01*
X173100Y840612D01*
X173085Y840512D01*
X173065Y840413D01*
X173042Y840315D01*
X173015Y840218D01*
X172984Y840123D01*
X172950Y840028D01*
X172912Y839935D01*
X172870Y839843D01*
X172825Y839753D01*
X172776Y839665D01*
X172724Y839579D01*
X172669Y839495D01*
X172610Y839413D01*
X172549Y839333D01*
X172484Y839256D01*
X172416Y839182D01*
X172346Y839110D01*
X172273Y839041D01*
X172197Y838974D01*
X172118Y838911D01*
X172038Y838851D01*
X171955Y838794D01*
X171869Y838740D01*
X171782Y838690D01*
X171693Y838643D01*
X171602Y838600D01*
X171510Y838560D01*
X171416Y838524D01*
X171321Y838491D01*
X171224Y838462D01*
X171127Y838437D01*
X171028Y838416D01*
X170929Y838398D01*
X170829Y838385D01*
X170729Y838375D01*
X170629Y838369D01*
X170528Y838367D01*
X170528Y838366D02*
X167932Y838366D01*
D11*
X224300Y545617D02*
X258300Y545617D01*
X258300Y521183D02*
X224300Y521183D01*
D13*
X235872Y552475D02*
X238468Y552475D01*
X235872Y552475D02*
X235773Y552477D01*
X235673Y552483D01*
X235574Y552492D01*
X235476Y552505D01*
X235378Y552522D01*
X235280Y552543D01*
X235184Y552568D01*
X235089Y552596D01*
X234995Y552628D01*
X234902Y552663D01*
X234810Y552702D01*
X234720Y552745D01*
X234632Y552790D01*
X234545Y552840D01*
X234461Y552892D01*
X234378Y552948D01*
X234298Y553006D01*
X234220Y553068D01*
X234145Y553133D01*
X234072Y553201D01*
X234002Y553271D01*
X233934Y553344D01*
X233869Y553419D01*
X233807Y553497D01*
X233749Y553577D01*
X233693Y553660D01*
X233641Y553744D01*
X233591Y553831D01*
X233546Y553919D01*
X233503Y554009D01*
X233464Y554101D01*
X233429Y554194D01*
X233397Y554288D01*
X233369Y554383D01*
X233344Y554479D01*
X233323Y554577D01*
X233306Y554675D01*
X233293Y554773D01*
X233284Y554872D01*
X233278Y554972D01*
X233276Y555071D01*
X233275Y555071D02*
X233275Y561563D01*
X233276Y561563D02*
X233278Y561662D01*
X233284Y561762D01*
X233293Y561861D01*
X233306Y561959D01*
X233323Y562057D01*
X233344Y562155D01*
X233369Y562251D01*
X233397Y562346D01*
X233429Y562440D01*
X233464Y562533D01*
X233503Y562625D01*
X233546Y562715D01*
X233591Y562803D01*
X233641Y562890D01*
X233693Y562974D01*
X233749Y563057D01*
X233807Y563137D01*
X233869Y563215D01*
X233934Y563290D01*
X234002Y563363D01*
X234072Y563433D01*
X234145Y563501D01*
X234220Y563566D01*
X234298Y563628D01*
X234378Y563686D01*
X234461Y563742D01*
X234545Y563794D01*
X234632Y563844D01*
X234720Y563889D01*
X234810Y563932D01*
X234902Y563971D01*
X234994Y564006D01*
X235089Y564038D01*
X235184Y564066D01*
X235280Y564091D01*
X235378Y564112D01*
X235476Y564129D01*
X235574Y564142D01*
X235673Y564151D01*
X235773Y564157D01*
X235872Y564159D01*
X238468Y564159D01*
X245430Y564159D02*
X242834Y555071D01*
X249325Y555071D01*
X247377Y552475D02*
X247377Y557668D01*
D12*
X484300Y844762D02*
X484300Y863183D01*
X484300Y844762D02*
X463338Y823800D01*
X379300Y823800D01*
X379300Y863183D01*
X484300Y889417D02*
X484300Y907838D01*
X463338Y928800D01*
X379300Y928800D01*
X379300Y889417D01*
D13*
X426372Y805258D02*
X428968Y805258D01*
X426372Y805258D02*
X426273Y805260D01*
X426173Y805266D01*
X426074Y805275D01*
X425976Y805288D01*
X425878Y805305D01*
X425780Y805326D01*
X425684Y805351D01*
X425589Y805379D01*
X425495Y805411D01*
X425402Y805446D01*
X425310Y805485D01*
X425220Y805528D01*
X425132Y805573D01*
X425045Y805623D01*
X424961Y805675D01*
X424878Y805731D01*
X424798Y805789D01*
X424720Y805851D01*
X424645Y805916D01*
X424572Y805984D01*
X424502Y806054D01*
X424434Y806127D01*
X424369Y806202D01*
X424307Y806280D01*
X424249Y806360D01*
X424193Y806443D01*
X424141Y806527D01*
X424091Y806614D01*
X424046Y806702D01*
X424003Y806792D01*
X423964Y806884D01*
X423929Y806977D01*
X423897Y807071D01*
X423869Y807166D01*
X423844Y807262D01*
X423823Y807360D01*
X423806Y807458D01*
X423793Y807556D01*
X423784Y807655D01*
X423778Y807755D01*
X423776Y807854D01*
X423775Y807854D02*
X423775Y814346D01*
X423776Y814346D02*
X423778Y814445D01*
X423784Y814545D01*
X423793Y814644D01*
X423806Y814742D01*
X423823Y814840D01*
X423844Y814938D01*
X423869Y815034D01*
X423897Y815129D01*
X423929Y815223D01*
X423964Y815316D01*
X424003Y815408D01*
X424046Y815498D01*
X424091Y815586D01*
X424141Y815673D01*
X424193Y815757D01*
X424249Y815840D01*
X424307Y815920D01*
X424369Y815998D01*
X424434Y816073D01*
X424502Y816146D01*
X424572Y816216D01*
X424645Y816284D01*
X424720Y816349D01*
X424798Y816411D01*
X424878Y816469D01*
X424961Y816525D01*
X425045Y816577D01*
X425132Y816627D01*
X425220Y816672D01*
X425310Y816715D01*
X425402Y816754D01*
X425494Y816789D01*
X425589Y816821D01*
X425684Y816849D01*
X425780Y816874D01*
X425878Y816895D01*
X425976Y816912D01*
X426074Y816925D01*
X426173Y816934D01*
X426273Y816940D01*
X426372Y816942D01*
X428968Y816942D01*
X433334Y805258D02*
X437228Y805258D01*
X437327Y805260D01*
X437427Y805266D01*
X437526Y805275D01*
X437624Y805288D01*
X437722Y805305D01*
X437820Y805326D01*
X437916Y805351D01*
X438011Y805379D01*
X438105Y805411D01*
X438198Y805446D01*
X438290Y805485D01*
X438380Y805528D01*
X438468Y805573D01*
X438555Y805623D01*
X438639Y805675D01*
X438722Y805731D01*
X438802Y805789D01*
X438880Y805851D01*
X438955Y805916D01*
X439028Y805984D01*
X439098Y806054D01*
X439166Y806127D01*
X439231Y806202D01*
X439293Y806280D01*
X439351Y806360D01*
X439407Y806443D01*
X439459Y806527D01*
X439509Y806614D01*
X439554Y806702D01*
X439597Y806792D01*
X439636Y806884D01*
X439671Y806977D01*
X439703Y807071D01*
X439731Y807166D01*
X439756Y807262D01*
X439777Y807360D01*
X439794Y807458D01*
X439807Y807556D01*
X439816Y807655D01*
X439822Y807755D01*
X439824Y807854D01*
X439825Y807854D02*
X439825Y809153D01*
X439824Y809153D02*
X439822Y809252D01*
X439816Y809352D01*
X439807Y809451D01*
X439794Y809549D01*
X439777Y809647D01*
X439756Y809745D01*
X439731Y809841D01*
X439703Y809936D01*
X439671Y810030D01*
X439636Y810123D01*
X439597Y810215D01*
X439554Y810305D01*
X439509Y810393D01*
X439459Y810480D01*
X439407Y810564D01*
X439351Y810647D01*
X439293Y810727D01*
X439231Y810805D01*
X439166Y810880D01*
X439098Y810953D01*
X439028Y811023D01*
X438955Y811091D01*
X438880Y811156D01*
X438802Y811218D01*
X438722Y811276D01*
X438639Y811332D01*
X438555Y811384D01*
X438468Y811434D01*
X438380Y811479D01*
X438290Y811522D01*
X438198Y811561D01*
X438105Y811596D01*
X438011Y811628D01*
X437916Y811656D01*
X437820Y811681D01*
X437722Y811702D01*
X437624Y811719D01*
X437526Y811732D01*
X437427Y811741D01*
X437327Y811747D01*
X437228Y811749D01*
X433334Y811749D01*
X433334Y816942D01*
X439825Y816942D01*
D12*
X531700Y673650D02*
X531700Y655229D01*
X531700Y673650D02*
X552662Y694612D01*
X636700Y694612D01*
X636700Y655229D01*
X531700Y628995D02*
X531700Y610574D01*
X552662Y589612D01*
X636700Y589612D01*
X636700Y628995D01*
D13*
X581368Y701470D02*
X578772Y701470D01*
X578673Y701472D01*
X578573Y701478D01*
X578474Y701487D01*
X578376Y701500D01*
X578278Y701517D01*
X578180Y701538D01*
X578084Y701563D01*
X577989Y701591D01*
X577895Y701623D01*
X577802Y701658D01*
X577710Y701697D01*
X577620Y701740D01*
X577532Y701785D01*
X577445Y701835D01*
X577361Y701887D01*
X577278Y701943D01*
X577198Y702001D01*
X577120Y702063D01*
X577045Y702128D01*
X576972Y702196D01*
X576902Y702266D01*
X576834Y702339D01*
X576769Y702414D01*
X576707Y702492D01*
X576649Y702572D01*
X576593Y702655D01*
X576541Y702739D01*
X576491Y702826D01*
X576446Y702914D01*
X576403Y703004D01*
X576364Y703096D01*
X576329Y703189D01*
X576297Y703283D01*
X576269Y703378D01*
X576244Y703474D01*
X576223Y703572D01*
X576206Y703670D01*
X576193Y703768D01*
X576184Y703867D01*
X576178Y703967D01*
X576176Y704066D01*
X576175Y704066D02*
X576175Y710558D01*
X576176Y710558D02*
X576178Y710657D01*
X576184Y710757D01*
X576193Y710856D01*
X576206Y710954D01*
X576223Y711052D01*
X576244Y711150D01*
X576269Y711246D01*
X576297Y711341D01*
X576329Y711435D01*
X576364Y711528D01*
X576403Y711620D01*
X576446Y711710D01*
X576491Y711798D01*
X576541Y711885D01*
X576593Y711969D01*
X576649Y712052D01*
X576707Y712132D01*
X576769Y712210D01*
X576834Y712285D01*
X576902Y712358D01*
X576972Y712428D01*
X577045Y712496D01*
X577120Y712561D01*
X577198Y712623D01*
X577278Y712681D01*
X577361Y712737D01*
X577445Y712789D01*
X577532Y712839D01*
X577620Y712884D01*
X577710Y712927D01*
X577802Y712966D01*
X577894Y713001D01*
X577989Y713033D01*
X578084Y713061D01*
X578180Y713086D01*
X578278Y713107D01*
X578376Y713124D01*
X578474Y713137D01*
X578573Y713146D01*
X578673Y713152D01*
X578772Y713154D01*
X581368Y713154D01*
X585734Y707961D02*
X589628Y707961D01*
X589727Y707959D01*
X589827Y707953D01*
X589926Y707944D01*
X590024Y707931D01*
X590122Y707914D01*
X590220Y707893D01*
X590316Y707868D01*
X590411Y707840D01*
X590505Y707808D01*
X590598Y707773D01*
X590690Y707734D01*
X590780Y707691D01*
X590868Y707646D01*
X590955Y707596D01*
X591039Y707544D01*
X591122Y707488D01*
X591202Y707430D01*
X591280Y707368D01*
X591355Y707303D01*
X591428Y707235D01*
X591498Y707165D01*
X591566Y707092D01*
X591631Y707017D01*
X591693Y706939D01*
X591751Y706859D01*
X591807Y706776D01*
X591859Y706692D01*
X591909Y706605D01*
X591954Y706517D01*
X591997Y706427D01*
X592036Y706335D01*
X592071Y706242D01*
X592103Y706148D01*
X592131Y706053D01*
X592156Y705957D01*
X592177Y705859D01*
X592194Y705761D01*
X592207Y705663D01*
X592216Y705564D01*
X592222Y705464D01*
X592224Y705365D01*
X592225Y705365D02*
X592225Y704716D01*
X592223Y704603D01*
X592217Y704490D01*
X592207Y704377D01*
X592193Y704264D01*
X592176Y704152D01*
X592154Y704041D01*
X592129Y703931D01*
X592099Y703821D01*
X592066Y703713D01*
X592029Y703606D01*
X591989Y703500D01*
X591944Y703396D01*
X591896Y703293D01*
X591845Y703192D01*
X591790Y703093D01*
X591732Y702996D01*
X591670Y702901D01*
X591605Y702808D01*
X591537Y702718D01*
X591466Y702630D01*
X591391Y702544D01*
X591314Y702461D01*
X591234Y702381D01*
X591151Y702304D01*
X591065Y702229D01*
X590977Y702158D01*
X590887Y702090D01*
X590794Y702025D01*
X590699Y701963D01*
X590602Y701905D01*
X590503Y701850D01*
X590402Y701799D01*
X590299Y701751D01*
X590195Y701706D01*
X590089Y701666D01*
X589982Y701629D01*
X589874Y701596D01*
X589764Y701566D01*
X589654Y701541D01*
X589543Y701519D01*
X589431Y701502D01*
X589318Y701488D01*
X589205Y701478D01*
X589092Y701472D01*
X588979Y701470D01*
X588866Y701472D01*
X588753Y701478D01*
X588640Y701488D01*
X588527Y701502D01*
X588415Y701519D01*
X588304Y701541D01*
X588194Y701566D01*
X588084Y701596D01*
X587976Y701629D01*
X587869Y701666D01*
X587763Y701706D01*
X587659Y701751D01*
X587556Y701799D01*
X587455Y701850D01*
X587356Y701905D01*
X587259Y701963D01*
X587164Y702025D01*
X587071Y702090D01*
X586981Y702158D01*
X586893Y702229D01*
X586807Y702304D01*
X586724Y702381D01*
X586644Y702461D01*
X586567Y702544D01*
X586492Y702630D01*
X586421Y702718D01*
X586353Y702808D01*
X586288Y702901D01*
X586226Y702996D01*
X586168Y703093D01*
X586113Y703192D01*
X586062Y703293D01*
X586014Y703396D01*
X585969Y703500D01*
X585929Y703606D01*
X585892Y703713D01*
X585859Y703821D01*
X585829Y703931D01*
X585804Y704041D01*
X585782Y704152D01*
X585765Y704264D01*
X585751Y704377D01*
X585741Y704490D01*
X585735Y704603D01*
X585733Y704716D01*
X585734Y704716D02*
X585734Y707961D01*
X585733Y707961D02*
X585735Y708104D01*
X585741Y708247D01*
X585751Y708390D01*
X585765Y708532D01*
X585782Y708674D01*
X585804Y708816D01*
X585829Y708957D01*
X585859Y709097D01*
X585892Y709236D01*
X585929Y709374D01*
X585970Y709511D01*
X586014Y709647D01*
X586063Y709782D01*
X586115Y709915D01*
X586170Y710047D01*
X586230Y710177D01*
X586293Y710306D01*
X586359Y710433D01*
X586429Y710557D01*
X586502Y710680D01*
X586579Y710801D01*
X586659Y710920D01*
X586742Y711036D01*
X586828Y711151D01*
X586917Y711262D01*
X587010Y711372D01*
X587105Y711478D01*
X587204Y711582D01*
X587305Y711683D01*
X587409Y711782D01*
X587515Y711877D01*
X587625Y711970D01*
X587736Y712059D01*
X587851Y712145D01*
X587967Y712228D01*
X588086Y712308D01*
X588207Y712385D01*
X588329Y712458D01*
X588454Y712528D01*
X588581Y712594D01*
X588710Y712657D01*
X588840Y712717D01*
X588972Y712772D01*
X589105Y712824D01*
X589240Y712873D01*
X589376Y712917D01*
X589513Y712958D01*
X589651Y712995D01*
X589790Y713028D01*
X589930Y713058D01*
X590071Y713083D01*
X590213Y713105D01*
X590355Y713122D01*
X590497Y713136D01*
X590640Y713146D01*
X590783Y713152D01*
X590926Y713154D01*
D11*
X586468Y870737D02*
X552468Y870737D01*
X552468Y846303D02*
X586468Y846303D01*
D13*
X566636Y877595D02*
X564040Y877595D01*
X563941Y877597D01*
X563841Y877603D01*
X563742Y877612D01*
X563644Y877625D01*
X563546Y877642D01*
X563448Y877663D01*
X563352Y877688D01*
X563257Y877716D01*
X563163Y877748D01*
X563070Y877783D01*
X562978Y877822D01*
X562888Y877865D01*
X562800Y877910D01*
X562713Y877960D01*
X562629Y878012D01*
X562546Y878068D01*
X562466Y878126D01*
X562388Y878188D01*
X562313Y878253D01*
X562240Y878321D01*
X562170Y878391D01*
X562102Y878464D01*
X562037Y878539D01*
X561975Y878617D01*
X561917Y878697D01*
X561861Y878780D01*
X561809Y878864D01*
X561759Y878951D01*
X561714Y879039D01*
X561671Y879129D01*
X561632Y879221D01*
X561597Y879314D01*
X561565Y879408D01*
X561537Y879503D01*
X561512Y879599D01*
X561491Y879697D01*
X561474Y879795D01*
X561461Y879893D01*
X561452Y879992D01*
X561446Y880092D01*
X561444Y880191D01*
X561443Y880191D02*
X561443Y886683D01*
X561444Y886683D02*
X561446Y886782D01*
X561452Y886882D01*
X561461Y886981D01*
X561474Y887079D01*
X561491Y887177D01*
X561512Y887275D01*
X561537Y887371D01*
X561565Y887466D01*
X561597Y887560D01*
X561632Y887653D01*
X561671Y887745D01*
X561714Y887835D01*
X561759Y887923D01*
X561809Y888010D01*
X561861Y888094D01*
X561917Y888177D01*
X561975Y888257D01*
X562037Y888335D01*
X562102Y888410D01*
X562170Y888483D01*
X562240Y888553D01*
X562313Y888621D01*
X562388Y888686D01*
X562466Y888748D01*
X562546Y888806D01*
X562629Y888862D01*
X562713Y888914D01*
X562800Y888964D01*
X562888Y889009D01*
X562978Y889052D01*
X563070Y889091D01*
X563162Y889126D01*
X563257Y889158D01*
X563352Y889186D01*
X563448Y889211D01*
X563546Y889232D01*
X563644Y889249D01*
X563742Y889262D01*
X563841Y889271D01*
X563941Y889277D01*
X564040Y889279D01*
X566636Y889279D01*
X571002Y889279D02*
X571002Y887981D01*
X571002Y889279D02*
X577493Y889279D01*
X574247Y877595D01*
D11*
X512300Y558317D02*
X478300Y558317D01*
X478300Y533883D02*
X512300Y533883D01*
D13*
X492468Y565175D02*
X489872Y565175D01*
X489773Y565177D01*
X489673Y565183D01*
X489574Y565192D01*
X489476Y565205D01*
X489378Y565222D01*
X489280Y565243D01*
X489184Y565268D01*
X489089Y565296D01*
X488995Y565328D01*
X488902Y565363D01*
X488810Y565402D01*
X488720Y565445D01*
X488632Y565490D01*
X488545Y565540D01*
X488461Y565592D01*
X488378Y565648D01*
X488298Y565706D01*
X488220Y565768D01*
X488145Y565833D01*
X488072Y565901D01*
X488002Y565971D01*
X487934Y566044D01*
X487869Y566119D01*
X487807Y566197D01*
X487749Y566277D01*
X487693Y566360D01*
X487641Y566444D01*
X487591Y566531D01*
X487546Y566619D01*
X487503Y566709D01*
X487464Y566801D01*
X487429Y566894D01*
X487397Y566988D01*
X487369Y567083D01*
X487344Y567179D01*
X487323Y567277D01*
X487306Y567375D01*
X487293Y567473D01*
X487284Y567572D01*
X487278Y567672D01*
X487276Y567771D01*
X487275Y567771D02*
X487275Y574263D01*
X487276Y574263D02*
X487278Y574362D01*
X487284Y574462D01*
X487293Y574561D01*
X487306Y574659D01*
X487323Y574757D01*
X487344Y574855D01*
X487369Y574951D01*
X487397Y575046D01*
X487429Y575140D01*
X487464Y575233D01*
X487503Y575325D01*
X487546Y575415D01*
X487591Y575503D01*
X487641Y575590D01*
X487693Y575674D01*
X487749Y575757D01*
X487807Y575837D01*
X487869Y575915D01*
X487934Y575990D01*
X488002Y576063D01*
X488072Y576133D01*
X488145Y576201D01*
X488220Y576266D01*
X488298Y576328D01*
X488378Y576386D01*
X488461Y576442D01*
X488545Y576494D01*
X488632Y576544D01*
X488720Y576589D01*
X488810Y576632D01*
X488902Y576671D01*
X488994Y576706D01*
X489089Y576738D01*
X489184Y576766D01*
X489280Y576791D01*
X489378Y576812D01*
X489476Y576829D01*
X489574Y576842D01*
X489673Y576851D01*
X489773Y576857D01*
X489872Y576859D01*
X492468Y576859D01*
X496833Y568421D02*
X496835Y568534D01*
X496841Y568647D01*
X496851Y568760D01*
X496865Y568873D01*
X496882Y568985D01*
X496904Y569096D01*
X496929Y569206D01*
X496959Y569316D01*
X496992Y569424D01*
X497029Y569531D01*
X497069Y569637D01*
X497114Y569741D01*
X497162Y569844D01*
X497213Y569945D01*
X497268Y570044D01*
X497326Y570141D01*
X497388Y570236D01*
X497453Y570329D01*
X497521Y570419D01*
X497592Y570507D01*
X497667Y570593D01*
X497744Y570676D01*
X497824Y570756D01*
X497907Y570833D01*
X497993Y570908D01*
X498081Y570979D01*
X498171Y571047D01*
X498264Y571112D01*
X498359Y571174D01*
X498456Y571232D01*
X498555Y571287D01*
X498656Y571338D01*
X498759Y571386D01*
X498863Y571431D01*
X498969Y571471D01*
X499076Y571508D01*
X499184Y571541D01*
X499294Y571571D01*
X499404Y571596D01*
X499515Y571618D01*
X499627Y571635D01*
X499740Y571649D01*
X499853Y571659D01*
X499966Y571665D01*
X500079Y571667D01*
X500192Y571665D01*
X500305Y571659D01*
X500418Y571649D01*
X500531Y571635D01*
X500643Y571618D01*
X500754Y571596D01*
X500864Y571571D01*
X500974Y571541D01*
X501082Y571508D01*
X501189Y571471D01*
X501295Y571431D01*
X501399Y571386D01*
X501502Y571338D01*
X501603Y571287D01*
X501702Y571232D01*
X501799Y571174D01*
X501894Y571112D01*
X501987Y571047D01*
X502077Y570979D01*
X502165Y570908D01*
X502251Y570833D01*
X502334Y570756D01*
X502414Y570676D01*
X502491Y570593D01*
X502566Y570507D01*
X502637Y570419D01*
X502705Y570329D01*
X502770Y570236D01*
X502832Y570141D01*
X502890Y570044D01*
X502945Y569945D01*
X502996Y569844D01*
X503044Y569741D01*
X503089Y569637D01*
X503129Y569531D01*
X503166Y569424D01*
X503199Y569316D01*
X503229Y569206D01*
X503254Y569096D01*
X503276Y568985D01*
X503293Y568873D01*
X503307Y568760D01*
X503317Y568647D01*
X503323Y568534D01*
X503325Y568421D01*
X503323Y568308D01*
X503317Y568195D01*
X503307Y568082D01*
X503293Y567969D01*
X503276Y567857D01*
X503254Y567746D01*
X503229Y567636D01*
X503199Y567526D01*
X503166Y567418D01*
X503129Y567311D01*
X503089Y567205D01*
X503044Y567101D01*
X502996Y566998D01*
X502945Y566897D01*
X502890Y566798D01*
X502832Y566701D01*
X502770Y566606D01*
X502705Y566513D01*
X502637Y566423D01*
X502566Y566335D01*
X502491Y566249D01*
X502414Y566166D01*
X502334Y566086D01*
X502251Y566009D01*
X502165Y565934D01*
X502077Y565863D01*
X501987Y565795D01*
X501894Y565730D01*
X501799Y565668D01*
X501702Y565610D01*
X501603Y565555D01*
X501502Y565504D01*
X501399Y565456D01*
X501295Y565411D01*
X501189Y565371D01*
X501082Y565334D01*
X500974Y565301D01*
X500864Y565271D01*
X500754Y565246D01*
X500643Y565224D01*
X500531Y565207D01*
X500418Y565193D01*
X500305Y565183D01*
X500192Y565177D01*
X500079Y565175D01*
X499966Y565177D01*
X499853Y565183D01*
X499740Y565193D01*
X499627Y565207D01*
X499515Y565224D01*
X499404Y565246D01*
X499294Y565271D01*
X499184Y565301D01*
X499076Y565334D01*
X498969Y565371D01*
X498863Y565411D01*
X498759Y565456D01*
X498656Y565504D01*
X498555Y565555D01*
X498456Y565610D01*
X498359Y565668D01*
X498264Y565730D01*
X498171Y565795D01*
X498081Y565863D01*
X497993Y565934D01*
X497907Y566009D01*
X497824Y566086D01*
X497744Y566166D01*
X497667Y566249D01*
X497592Y566335D01*
X497521Y566423D01*
X497453Y566513D01*
X497388Y566606D01*
X497326Y566701D01*
X497268Y566798D01*
X497213Y566897D01*
X497162Y566998D01*
X497114Y567101D01*
X497069Y567205D01*
X497029Y567311D01*
X496992Y567418D01*
X496959Y567526D01*
X496929Y567636D01*
X496904Y567746D01*
X496882Y567857D01*
X496865Y567969D01*
X496851Y568082D01*
X496841Y568195D01*
X496835Y568308D01*
X496833Y568421D01*
X497483Y574263D02*
X497485Y574364D01*
X497491Y574464D01*
X497501Y574564D01*
X497514Y574664D01*
X497532Y574763D01*
X497553Y574862D01*
X497578Y574959D01*
X497607Y575056D01*
X497640Y575151D01*
X497676Y575245D01*
X497716Y575337D01*
X497759Y575428D01*
X497806Y575517D01*
X497856Y575604D01*
X497910Y575690D01*
X497967Y575773D01*
X498027Y575853D01*
X498090Y575932D01*
X498157Y576008D01*
X498226Y576081D01*
X498298Y576151D01*
X498372Y576219D01*
X498449Y576284D01*
X498529Y576345D01*
X498611Y576404D01*
X498695Y576459D01*
X498781Y576511D01*
X498869Y576560D01*
X498959Y576605D01*
X499051Y576647D01*
X499144Y576685D01*
X499239Y576719D01*
X499334Y576750D01*
X499431Y576777D01*
X499529Y576800D01*
X499628Y576820D01*
X499728Y576835D01*
X499828Y576847D01*
X499928Y576855D01*
X500029Y576859D01*
X500129Y576859D01*
X500230Y576855D01*
X500330Y576847D01*
X500430Y576835D01*
X500530Y576820D01*
X500629Y576800D01*
X500727Y576777D01*
X500824Y576750D01*
X500919Y576719D01*
X501014Y576685D01*
X501107Y576647D01*
X501199Y576605D01*
X501289Y576560D01*
X501377Y576511D01*
X501463Y576459D01*
X501547Y576404D01*
X501629Y576345D01*
X501709Y576284D01*
X501786Y576219D01*
X501860Y576151D01*
X501932Y576081D01*
X502001Y576008D01*
X502068Y575932D01*
X502131Y575853D01*
X502191Y575773D01*
X502248Y575690D01*
X502302Y575604D01*
X502352Y575517D01*
X502399Y575428D01*
X502442Y575337D01*
X502482Y575245D01*
X502518Y575151D01*
X502551Y575056D01*
X502580Y574959D01*
X502605Y574862D01*
X502626Y574763D01*
X502644Y574664D01*
X502657Y574564D01*
X502667Y574464D01*
X502673Y574364D01*
X502675Y574263D01*
X502673Y574162D01*
X502667Y574062D01*
X502657Y573962D01*
X502644Y573862D01*
X502626Y573763D01*
X502605Y573664D01*
X502580Y573567D01*
X502551Y573470D01*
X502518Y573375D01*
X502482Y573281D01*
X502442Y573189D01*
X502399Y573098D01*
X502352Y573009D01*
X502302Y572922D01*
X502248Y572836D01*
X502191Y572753D01*
X502131Y572673D01*
X502068Y572594D01*
X502001Y572518D01*
X501932Y572445D01*
X501860Y572375D01*
X501786Y572307D01*
X501709Y572242D01*
X501629Y572181D01*
X501547Y572122D01*
X501463Y572067D01*
X501377Y572015D01*
X501289Y571966D01*
X501199Y571921D01*
X501107Y571879D01*
X501014Y571841D01*
X500919Y571807D01*
X500824Y571776D01*
X500727Y571749D01*
X500629Y571726D01*
X500530Y571706D01*
X500430Y571691D01*
X500330Y571679D01*
X500230Y571671D01*
X500129Y571667D01*
X500029Y571667D01*
X499928Y571671D01*
X499828Y571679D01*
X499728Y571691D01*
X499628Y571706D01*
X499529Y571726D01*
X499431Y571749D01*
X499334Y571776D01*
X499239Y571807D01*
X499144Y571841D01*
X499051Y571879D01*
X498959Y571921D01*
X498869Y571966D01*
X498781Y572015D01*
X498695Y572067D01*
X498611Y572122D01*
X498529Y572181D01*
X498449Y572242D01*
X498372Y572307D01*
X498298Y572375D01*
X498226Y572445D01*
X498157Y572518D01*
X498090Y572594D01*
X498027Y572673D01*
X497967Y572753D01*
X497910Y572836D01*
X497856Y572922D01*
X497806Y573009D01*
X497759Y573098D01*
X497716Y573189D01*
X497676Y573281D01*
X497640Y573375D01*
X497607Y573470D01*
X497578Y573567D01*
X497553Y573664D01*
X497532Y573763D01*
X497514Y573862D01*
X497501Y573962D01*
X497491Y574062D01*
X497485Y574162D01*
X497483Y574263D01*
D14*
X108600Y774708D02*
X101600Y787208D01*
X108600Y774708D02*
X94600Y774708D01*
X101600Y787208D01*
D15*
X101600Y787708D03*
D13*
X137108Y805398D02*
X148792Y805398D01*
X137108Y805398D02*
X137108Y808643D01*
X137110Y808756D01*
X137116Y808869D01*
X137126Y808982D01*
X137140Y809095D01*
X137157Y809207D01*
X137179Y809318D01*
X137204Y809428D01*
X137234Y809538D01*
X137267Y809646D01*
X137304Y809753D01*
X137344Y809859D01*
X137389Y809963D01*
X137437Y810066D01*
X137488Y810167D01*
X137543Y810266D01*
X137601Y810363D01*
X137663Y810458D01*
X137728Y810551D01*
X137796Y810641D01*
X137867Y810729D01*
X137942Y810815D01*
X138019Y810898D01*
X138099Y810978D01*
X138182Y811055D01*
X138268Y811130D01*
X138356Y811201D01*
X138446Y811269D01*
X138539Y811334D01*
X138634Y811396D01*
X138731Y811454D01*
X138830Y811509D01*
X138931Y811560D01*
X139034Y811608D01*
X139138Y811653D01*
X139244Y811693D01*
X139351Y811730D01*
X139459Y811763D01*
X139569Y811793D01*
X139679Y811818D01*
X139790Y811840D01*
X139902Y811857D01*
X140015Y811871D01*
X140128Y811881D01*
X140241Y811887D01*
X140354Y811889D01*
X145546Y811889D01*
X145546Y811890D02*
X145659Y811888D01*
X145772Y811882D01*
X145885Y811872D01*
X145998Y811858D01*
X146110Y811841D01*
X146221Y811819D01*
X146331Y811794D01*
X146441Y811764D01*
X146549Y811731D01*
X146656Y811694D01*
X146762Y811654D01*
X146866Y811609D01*
X146969Y811561D01*
X147070Y811510D01*
X147169Y811455D01*
X147266Y811397D01*
X147361Y811335D01*
X147454Y811270D01*
X147544Y811202D01*
X147632Y811131D01*
X147718Y811056D01*
X147801Y810979D01*
X147881Y810899D01*
X147958Y810816D01*
X148033Y810730D01*
X148104Y810642D01*
X148172Y810552D01*
X148237Y810459D01*
X148299Y810364D01*
X148357Y810267D01*
X148412Y810168D01*
X148463Y810067D01*
X148511Y809964D01*
X148556Y809860D01*
X148596Y809754D01*
X148633Y809647D01*
X148666Y809539D01*
X148696Y809429D01*
X148721Y809319D01*
X148743Y809208D01*
X148760Y809096D01*
X148774Y808983D01*
X148784Y808870D01*
X148790Y808757D01*
X148792Y808644D01*
X148792Y808643D02*
X148792Y805398D01*
X139704Y817209D02*
X137108Y820454D01*
X148792Y820454D01*
X148792Y817209D02*
X148792Y823700D01*
D14*
X418592Y769936D02*
X425592Y757436D01*
X411592Y757436D01*
X418592Y769936D01*
D15*
X418592Y770436D03*
D13*
X454100Y788126D02*
X465784Y788126D01*
X454100Y788126D02*
X454100Y791371D01*
X454102Y791484D01*
X454108Y791597D01*
X454118Y791710D01*
X454132Y791823D01*
X454149Y791935D01*
X454171Y792046D01*
X454196Y792156D01*
X454226Y792266D01*
X454259Y792374D01*
X454296Y792481D01*
X454336Y792587D01*
X454381Y792691D01*
X454429Y792794D01*
X454480Y792895D01*
X454535Y792994D01*
X454593Y793091D01*
X454655Y793186D01*
X454720Y793279D01*
X454788Y793369D01*
X454859Y793457D01*
X454934Y793543D01*
X455011Y793626D01*
X455091Y793706D01*
X455174Y793783D01*
X455260Y793858D01*
X455348Y793929D01*
X455438Y793997D01*
X455531Y794062D01*
X455626Y794124D01*
X455723Y794182D01*
X455822Y794237D01*
X455923Y794288D01*
X456026Y794336D01*
X456130Y794381D01*
X456236Y794421D01*
X456343Y794458D01*
X456451Y794491D01*
X456561Y794521D01*
X456671Y794546D01*
X456782Y794568D01*
X456894Y794585D01*
X457007Y794599D01*
X457120Y794609D01*
X457233Y794615D01*
X457346Y794617D01*
X462538Y794617D01*
X462538Y794618D02*
X462651Y794616D01*
X462764Y794610D01*
X462877Y794600D01*
X462990Y794586D01*
X463102Y794569D01*
X463213Y794547D01*
X463323Y794522D01*
X463433Y794492D01*
X463541Y794459D01*
X463648Y794422D01*
X463754Y794382D01*
X463858Y794337D01*
X463961Y794289D01*
X464062Y794238D01*
X464161Y794183D01*
X464258Y794125D01*
X464353Y794063D01*
X464446Y793998D01*
X464536Y793930D01*
X464624Y793859D01*
X464710Y793784D01*
X464793Y793707D01*
X464873Y793627D01*
X464950Y793544D01*
X465025Y793458D01*
X465096Y793370D01*
X465164Y793280D01*
X465229Y793187D01*
X465291Y793092D01*
X465349Y792995D01*
X465404Y792896D01*
X465455Y792795D01*
X465503Y792692D01*
X465548Y792588D01*
X465588Y792482D01*
X465625Y792375D01*
X465658Y792267D01*
X465688Y792157D01*
X465713Y792047D01*
X465735Y791936D01*
X465752Y791824D01*
X465766Y791711D01*
X465776Y791598D01*
X465782Y791485D01*
X465784Y791372D01*
X465784Y791371D02*
X465784Y788126D01*
X454100Y803507D02*
X454102Y803614D01*
X454108Y803720D01*
X454118Y803826D01*
X454131Y803932D01*
X454149Y804038D01*
X454170Y804142D01*
X454195Y804246D01*
X454224Y804349D01*
X454256Y804450D01*
X454293Y804550D01*
X454333Y804649D01*
X454376Y804747D01*
X454423Y804843D01*
X454474Y804937D01*
X454528Y805029D01*
X454585Y805119D01*
X454645Y805207D01*
X454709Y805292D01*
X454776Y805375D01*
X454846Y805456D01*
X454918Y805534D01*
X454994Y805610D01*
X455072Y805682D01*
X455153Y805752D01*
X455236Y805819D01*
X455321Y805883D01*
X455409Y805943D01*
X455499Y806000D01*
X455591Y806054D01*
X455685Y806105D01*
X455781Y806152D01*
X455879Y806195D01*
X455978Y806235D01*
X456078Y806272D01*
X456179Y806304D01*
X456282Y806333D01*
X456386Y806358D01*
X456490Y806379D01*
X456596Y806397D01*
X456702Y806410D01*
X456808Y806420D01*
X456914Y806426D01*
X457021Y806428D01*
X454100Y803507D02*
X454102Y803386D01*
X454108Y803265D01*
X454118Y803145D01*
X454131Y803024D01*
X454149Y802905D01*
X454170Y802785D01*
X454195Y802667D01*
X454224Y802550D01*
X454257Y802433D01*
X454293Y802318D01*
X454334Y802204D01*
X454377Y802091D01*
X454425Y801979D01*
X454476Y801870D01*
X454531Y801762D01*
X454589Y801655D01*
X454650Y801551D01*
X454715Y801449D01*
X454783Y801349D01*
X454854Y801251D01*
X454928Y801155D01*
X455005Y801062D01*
X455086Y800972D01*
X455169Y800884D01*
X455255Y800799D01*
X455344Y800716D01*
X455435Y800637D01*
X455529Y800560D01*
X455625Y800487D01*
X455723Y800417D01*
X455824Y800350D01*
X455927Y800286D01*
X456032Y800226D01*
X456139Y800168D01*
X456247Y800115D01*
X456357Y800065D01*
X456469Y800019D01*
X456582Y799976D01*
X456697Y799937D01*
X459293Y805454D02*
X459215Y805533D01*
X459135Y805609D01*
X459052Y805682D01*
X458966Y805752D01*
X458879Y805819D01*
X458788Y805883D01*
X458696Y805943D01*
X458602Y806001D01*
X458505Y806055D01*
X458407Y806105D01*
X458307Y806152D01*
X458206Y806196D01*
X458103Y806236D01*
X457998Y806272D01*
X457893Y806304D01*
X457786Y806333D01*
X457679Y806358D01*
X457570Y806380D01*
X457461Y806397D01*
X457352Y806411D01*
X457242Y806420D01*
X457131Y806426D01*
X457021Y806428D01*
X459293Y805454D02*
X465784Y799937D01*
X465784Y806428D01*
D11*
X77000Y695000D02*
X76758Y694997D01*
X76517Y694988D01*
X76276Y694974D01*
X76035Y694953D01*
X75795Y694927D01*
X75555Y694895D01*
X75316Y694857D01*
X75079Y694814D01*
X74842Y694764D01*
X74607Y694709D01*
X74373Y694649D01*
X74141Y694582D01*
X73910Y694511D01*
X73681Y694433D01*
X73454Y694350D01*
X73229Y694262D01*
X73006Y694168D01*
X72786Y694069D01*
X72568Y693964D01*
X72353Y693855D01*
X72140Y693740D01*
X71930Y693620D01*
X71724Y693495D01*
X71520Y693365D01*
X71319Y693230D01*
X71122Y693090D01*
X70928Y692946D01*
X70738Y692797D01*
X70552Y692643D01*
X70369Y692485D01*
X70190Y692323D01*
X70015Y692156D01*
X69844Y691985D01*
X69677Y691810D01*
X69515Y691631D01*
X69357Y691448D01*
X69203Y691262D01*
X69054Y691072D01*
X68910Y690878D01*
X68770Y690681D01*
X68635Y690480D01*
X68505Y690276D01*
X68380Y690070D01*
X68260Y689860D01*
X68145Y689647D01*
X68036Y689432D01*
X67931Y689214D01*
X67832Y688994D01*
X67738Y688771D01*
X67650Y688546D01*
X67567Y688319D01*
X67489Y688090D01*
X67418Y687859D01*
X67351Y687627D01*
X67291Y687393D01*
X67236Y687158D01*
X67186Y686921D01*
X67143Y686684D01*
X67105Y686445D01*
X67073Y686205D01*
X67047Y685965D01*
X67026Y685724D01*
X67012Y685483D01*
X67003Y685242D01*
X67000Y685000D01*
X77000Y695000D02*
X177000Y695000D01*
X177242Y694997D01*
X177483Y694988D01*
X177724Y694974D01*
X177965Y694953D01*
X178205Y694927D01*
X178445Y694895D01*
X178684Y694857D01*
X178921Y694814D01*
X179158Y694764D01*
X179393Y694709D01*
X179627Y694649D01*
X179859Y694582D01*
X180090Y694511D01*
X180319Y694433D01*
X180546Y694350D01*
X180771Y694262D01*
X180994Y694168D01*
X181214Y694069D01*
X181432Y693964D01*
X181647Y693855D01*
X181860Y693740D01*
X182070Y693620D01*
X182276Y693495D01*
X182480Y693365D01*
X182681Y693230D01*
X182878Y693090D01*
X183072Y692946D01*
X183262Y692797D01*
X183448Y692643D01*
X183631Y692485D01*
X183810Y692323D01*
X183985Y692156D01*
X184156Y691985D01*
X184323Y691810D01*
X184485Y691631D01*
X184643Y691448D01*
X184797Y691262D01*
X184946Y691072D01*
X185090Y690878D01*
X185230Y690681D01*
X185365Y690480D01*
X185495Y690276D01*
X185620Y690070D01*
X185740Y689860D01*
X185855Y689647D01*
X185964Y689432D01*
X186069Y689214D01*
X186168Y688994D01*
X186262Y688771D01*
X186350Y688546D01*
X186433Y688319D01*
X186511Y688090D01*
X186582Y687859D01*
X186649Y687627D01*
X186709Y687393D01*
X186764Y687158D01*
X186814Y686921D01*
X186857Y686684D01*
X186895Y686445D01*
X186927Y686205D01*
X186953Y685965D01*
X186974Y685724D01*
X186988Y685483D01*
X186997Y685242D01*
X187000Y685000D01*
X187000Y585000D01*
X186997Y584758D01*
X186988Y584517D01*
X186974Y584276D01*
X186953Y584035D01*
X186927Y583795D01*
X186895Y583555D01*
X186857Y583316D01*
X186814Y583079D01*
X186764Y582842D01*
X186709Y582607D01*
X186649Y582373D01*
X186582Y582141D01*
X186511Y581910D01*
X186433Y581681D01*
X186350Y581454D01*
X186262Y581229D01*
X186168Y581006D01*
X186069Y580786D01*
X185964Y580568D01*
X185855Y580353D01*
X185740Y580140D01*
X185620Y579930D01*
X185495Y579724D01*
X185365Y579520D01*
X185230Y579319D01*
X185090Y579122D01*
X184946Y578928D01*
X184797Y578738D01*
X184643Y578552D01*
X184485Y578369D01*
X184323Y578190D01*
X184156Y578015D01*
X183985Y577844D01*
X183810Y577677D01*
X183631Y577515D01*
X183448Y577357D01*
X183262Y577203D01*
X183072Y577054D01*
X182878Y576910D01*
X182681Y576770D01*
X182480Y576635D01*
X182276Y576505D01*
X182070Y576380D01*
X181860Y576260D01*
X181647Y576145D01*
X181432Y576036D01*
X181214Y575931D01*
X180994Y575832D01*
X180771Y575738D01*
X180546Y575650D01*
X180319Y575567D01*
X180090Y575489D01*
X179859Y575418D01*
X179627Y575351D01*
X179393Y575291D01*
X179158Y575236D01*
X178921Y575186D01*
X178684Y575143D01*
X178445Y575105D01*
X178205Y575073D01*
X177965Y575047D01*
X177724Y575026D01*
X177483Y575012D01*
X177242Y575003D01*
X177000Y575000D01*
X77000Y575000D01*
X76758Y575003D01*
X76517Y575012D01*
X76276Y575026D01*
X76035Y575047D01*
X75795Y575073D01*
X75555Y575105D01*
X75316Y575143D01*
X75079Y575186D01*
X74842Y575236D01*
X74607Y575291D01*
X74373Y575351D01*
X74141Y575418D01*
X73910Y575489D01*
X73681Y575567D01*
X73454Y575650D01*
X73229Y575738D01*
X73006Y575832D01*
X72786Y575931D01*
X72568Y576036D01*
X72353Y576145D01*
X72140Y576260D01*
X71930Y576380D01*
X71724Y576505D01*
X71520Y576635D01*
X71319Y576770D01*
X71122Y576910D01*
X70928Y577054D01*
X70738Y577203D01*
X70552Y577357D01*
X70369Y577515D01*
X70190Y577677D01*
X70015Y577844D01*
X69844Y578015D01*
X69677Y578190D01*
X69515Y578369D01*
X69357Y578552D01*
X69203Y578738D01*
X69054Y578928D01*
X68910Y579122D01*
X68770Y579319D01*
X68635Y579520D01*
X68505Y579724D01*
X68380Y579930D01*
X68260Y580140D01*
X68145Y580353D01*
X68036Y580568D01*
X67931Y580786D01*
X67832Y581006D01*
X67738Y581229D01*
X67650Y581454D01*
X67567Y581681D01*
X67489Y581910D01*
X67418Y582141D01*
X67351Y582373D01*
X67291Y582607D01*
X67236Y582842D01*
X67186Y583079D01*
X67143Y583316D01*
X67105Y583555D01*
X67073Y583795D01*
X67047Y584035D01*
X67026Y584276D01*
X67012Y584517D01*
X67003Y584758D01*
X67000Y585000D01*
X67000Y685000D01*
X84000Y661000D02*
X83795Y661209D01*
X83596Y661424D01*
X83402Y661643D01*
X83213Y661867D01*
X83030Y662095D01*
X82853Y662328D01*
X82681Y662565D01*
X82515Y662806D01*
X82355Y663051D01*
X82201Y663300D01*
X82053Y663553D01*
X81911Y663809D01*
X81776Y664069D01*
X81647Y664331D01*
X81524Y664597D01*
X81408Y664866D01*
X81299Y665137D01*
X81196Y665412D01*
X81099Y665688D01*
X81010Y665967D01*
X80927Y666248D01*
X80852Y666530D01*
X80783Y666815D01*
X80721Y667101D01*
X80666Y667389D01*
X80618Y667677D01*
X80577Y667967D01*
X80543Y668258D01*
X80517Y668550D01*
X80497Y668842D01*
X80485Y669134D01*
X80479Y669427D01*
X80481Y669720D01*
X80490Y670012D01*
X80506Y670304D01*
X80529Y670596D01*
X80559Y670887D01*
X80597Y671178D01*
X80641Y671467D01*
X80692Y671755D01*
X80751Y672042D01*
X80816Y672328D01*
X80889Y672611D01*
X80968Y672893D01*
X81054Y673173D01*
X81147Y673451D01*
X81246Y673726D01*
X81352Y673999D01*
X81465Y674269D01*
X81585Y674536D01*
X81711Y674800D01*
X81843Y675061D01*
X81981Y675319D01*
X82126Y675574D01*
X82277Y675825D01*
X82434Y676072D01*
X82597Y676315D01*
X82766Y676554D01*
X82941Y676789D01*
X83121Y677019D01*
X83307Y677246D01*
X83498Y677467D01*
X83695Y677684D01*
X83897Y677896D01*
X84104Y678103D01*
X84316Y678305D01*
X84533Y678502D01*
X84754Y678693D01*
X84981Y678879D01*
X85211Y679059D01*
X85446Y679234D01*
X85685Y679403D01*
X85928Y679566D01*
X86175Y679723D01*
X86426Y679874D01*
X86681Y680019D01*
X86939Y680157D01*
X87200Y680289D01*
X87464Y680415D01*
X87731Y680535D01*
X88001Y680648D01*
X88274Y680754D01*
X88549Y680853D01*
X88827Y680946D01*
X89107Y681032D01*
X89389Y681111D01*
X89672Y681184D01*
X89958Y681249D01*
X90245Y681308D01*
X90533Y681359D01*
X90822Y681403D01*
X91113Y681441D01*
X91404Y681471D01*
X91696Y681494D01*
X91988Y681510D01*
X92280Y681519D01*
X92573Y681521D01*
X92866Y681515D01*
X93158Y681503D01*
X93450Y681483D01*
X93742Y681457D01*
X94033Y681423D01*
X94323Y681382D01*
X94611Y681334D01*
X94899Y681279D01*
X95185Y681217D01*
X95470Y681148D01*
X95752Y681073D01*
X96033Y680990D01*
X96312Y680901D01*
X96588Y680804D01*
X96863Y680701D01*
X97134Y680592D01*
X97403Y680476D01*
X97669Y680353D01*
X97931Y680224D01*
X98191Y680089D01*
X98447Y679947D01*
X98700Y679799D01*
X98949Y679645D01*
X99194Y679485D01*
X99435Y679319D01*
X99672Y679147D01*
X99905Y678970D01*
X100133Y678787D01*
X100357Y678598D01*
X100576Y678404D01*
X100791Y678205D01*
X101000Y678000D01*
X153000Y678000D02*
X153211Y678206D01*
X153427Y678407D01*
X153648Y678602D01*
X153874Y678792D01*
X154104Y678977D01*
X154339Y679155D01*
X154578Y679328D01*
X154821Y679495D01*
X155069Y679656D01*
X155320Y679811D01*
X155575Y679959D01*
X155833Y680102D01*
X156095Y680237D01*
X156360Y680367D01*
X156629Y680490D01*
X156900Y680606D01*
X157174Y680716D01*
X157450Y680818D01*
X157729Y680914D01*
X158010Y681003D01*
X158294Y681086D01*
X158579Y681161D01*
X158866Y681229D01*
X159155Y681290D01*
X159445Y681344D01*
X159736Y681391D01*
X160029Y681431D01*
X160322Y681463D01*
X160616Y681488D01*
X160910Y681507D01*
X161205Y681517D01*
X161500Y681521D01*
X161795Y681517D01*
X162090Y681507D01*
X162384Y681488D01*
X162678Y681463D01*
X162971Y681431D01*
X163264Y681391D01*
X163555Y681344D01*
X163845Y681290D01*
X164134Y681229D01*
X164421Y681161D01*
X164706Y681086D01*
X164990Y681003D01*
X165271Y680914D01*
X165550Y680818D01*
X165826Y680716D01*
X166100Y680606D01*
X166371Y680490D01*
X166640Y680367D01*
X166905Y680237D01*
X167167Y680102D01*
X167425Y679959D01*
X167680Y679811D01*
X167931Y679656D01*
X168179Y679495D01*
X168422Y679328D01*
X168661Y679155D01*
X168896Y678977D01*
X169126Y678792D01*
X169352Y678602D01*
X169573Y678407D01*
X169789Y678206D01*
X170000Y678000D01*
X170206Y677789D01*
X170407Y677573D01*
X170602Y677352D01*
X170792Y677126D01*
X170977Y676896D01*
X171155Y676661D01*
X171328Y676422D01*
X171495Y676179D01*
X171656Y675931D01*
X171811Y675680D01*
X171959Y675425D01*
X172102Y675167D01*
X172237Y674905D01*
X172367Y674640D01*
X172490Y674371D01*
X172606Y674100D01*
X172716Y673826D01*
X172818Y673550D01*
X172914Y673271D01*
X173003Y672990D01*
X173086Y672706D01*
X173161Y672421D01*
X173229Y672134D01*
X173290Y671845D01*
X173344Y671555D01*
X173391Y671264D01*
X173431Y670971D01*
X173463Y670678D01*
X173488Y670384D01*
X173507Y670090D01*
X173517Y669795D01*
X173521Y669500D01*
X173517Y669205D01*
X173507Y668910D01*
X173488Y668616D01*
X173463Y668322D01*
X173431Y668029D01*
X173391Y667736D01*
X173344Y667445D01*
X173290Y667155D01*
X173229Y666866D01*
X173161Y666579D01*
X173086Y666294D01*
X173003Y666010D01*
X172914Y665729D01*
X172818Y665450D01*
X172716Y665174D01*
X172606Y664900D01*
X172490Y664629D01*
X172367Y664360D01*
X172237Y664095D01*
X172102Y663833D01*
X171959Y663575D01*
X171811Y663320D01*
X171656Y663069D01*
X171495Y662821D01*
X171328Y662578D01*
X171155Y662339D01*
X170977Y662104D01*
X170792Y661874D01*
X170602Y661648D01*
X170407Y661427D01*
X170206Y661211D01*
X170000Y661000D01*
X170000Y609000D02*
X170205Y608791D01*
X170404Y608576D01*
X170598Y608357D01*
X170787Y608133D01*
X170970Y607905D01*
X171147Y607672D01*
X171319Y607435D01*
X171485Y607194D01*
X171645Y606949D01*
X171799Y606700D01*
X171947Y606447D01*
X172089Y606191D01*
X172224Y605931D01*
X172353Y605669D01*
X172476Y605403D01*
X172592Y605134D01*
X172701Y604863D01*
X172804Y604588D01*
X172901Y604312D01*
X172990Y604033D01*
X173073Y603752D01*
X173148Y603470D01*
X173217Y603185D01*
X173279Y602899D01*
X173334Y602611D01*
X173382Y602323D01*
X173423Y602033D01*
X173457Y601742D01*
X173483Y601450D01*
X173503Y601158D01*
X173515Y600866D01*
X173521Y600573D01*
X173519Y600280D01*
X173510Y599988D01*
X173494Y599696D01*
X173471Y599404D01*
X173441Y599113D01*
X173403Y598822D01*
X173359Y598533D01*
X173308Y598245D01*
X173249Y597958D01*
X173184Y597672D01*
X173111Y597389D01*
X173032Y597107D01*
X172946Y596827D01*
X172853Y596549D01*
X172754Y596274D01*
X172648Y596001D01*
X172535Y595731D01*
X172415Y595464D01*
X172289Y595200D01*
X172157Y594939D01*
X172019Y594681D01*
X171874Y594426D01*
X171723Y594175D01*
X171566Y593928D01*
X171403Y593685D01*
X171234Y593446D01*
X171059Y593211D01*
X170879Y592981D01*
X170693Y592754D01*
X170502Y592533D01*
X170305Y592316D01*
X170103Y592104D01*
X169896Y591897D01*
X169684Y591695D01*
X169467Y591498D01*
X169246Y591307D01*
X169019Y591121D01*
X168789Y590941D01*
X168554Y590766D01*
X168315Y590597D01*
X168072Y590434D01*
X167825Y590277D01*
X167574Y590126D01*
X167319Y589981D01*
X167061Y589843D01*
X166800Y589711D01*
X166536Y589585D01*
X166269Y589465D01*
X165999Y589352D01*
X165726Y589246D01*
X165451Y589147D01*
X165173Y589054D01*
X164893Y588968D01*
X164611Y588889D01*
X164328Y588816D01*
X164042Y588751D01*
X163755Y588692D01*
X163467Y588641D01*
X163178Y588597D01*
X162887Y588559D01*
X162596Y588529D01*
X162304Y588506D01*
X162012Y588490D01*
X161720Y588481D01*
X161427Y588479D01*
X161134Y588485D01*
X160842Y588497D01*
X160550Y588517D01*
X160258Y588543D01*
X159967Y588577D01*
X159677Y588618D01*
X159389Y588666D01*
X159101Y588721D01*
X158815Y588783D01*
X158530Y588852D01*
X158248Y588927D01*
X157967Y589010D01*
X157688Y589099D01*
X157412Y589196D01*
X157137Y589299D01*
X156866Y589408D01*
X156597Y589524D01*
X156331Y589647D01*
X156069Y589776D01*
X155809Y589911D01*
X155553Y590053D01*
X155300Y590201D01*
X155051Y590355D01*
X154806Y590515D01*
X154565Y590681D01*
X154328Y590853D01*
X154095Y591030D01*
X153867Y591213D01*
X153643Y591402D01*
X153424Y591596D01*
X153209Y591795D01*
X153000Y592000D01*
X101000Y592000D02*
X100791Y591795D01*
X100576Y591596D01*
X100357Y591402D01*
X100133Y591213D01*
X99905Y591030D01*
X99672Y590853D01*
X99435Y590681D01*
X99194Y590515D01*
X98949Y590355D01*
X98700Y590201D01*
X98447Y590053D01*
X98191Y589911D01*
X97931Y589776D01*
X97669Y589647D01*
X97403Y589524D01*
X97134Y589408D01*
X96863Y589299D01*
X96588Y589196D01*
X96312Y589099D01*
X96033Y589010D01*
X95752Y588927D01*
X95470Y588852D01*
X95185Y588783D01*
X94899Y588721D01*
X94611Y588666D01*
X94323Y588618D01*
X94033Y588577D01*
X93742Y588543D01*
X93450Y588517D01*
X93158Y588497D01*
X92866Y588485D01*
X92573Y588479D01*
X92280Y588481D01*
X91988Y588490D01*
X91696Y588506D01*
X91404Y588529D01*
X91113Y588559D01*
X90822Y588597D01*
X90533Y588641D01*
X90245Y588692D01*
X89958Y588751D01*
X89672Y588816D01*
X89389Y588889D01*
X89107Y588968D01*
X88827Y589054D01*
X88549Y589147D01*
X88274Y589246D01*
X88001Y589352D01*
X87731Y589465D01*
X87464Y589585D01*
X87200Y589711D01*
X86939Y589843D01*
X86681Y589981D01*
X86426Y590126D01*
X86175Y590277D01*
X85928Y590434D01*
X85685Y590597D01*
X85446Y590766D01*
X85211Y590941D01*
X84981Y591121D01*
X84754Y591307D01*
X84533Y591498D01*
X84316Y591695D01*
X84104Y591897D01*
X83897Y592104D01*
X83695Y592316D01*
X83498Y592533D01*
X83307Y592754D01*
X83121Y592981D01*
X82941Y593211D01*
X82766Y593446D01*
X82597Y593685D01*
X82434Y593928D01*
X82277Y594175D01*
X82126Y594426D01*
X81981Y594681D01*
X81843Y594939D01*
X81711Y595200D01*
X81585Y595464D01*
X81465Y595731D01*
X81352Y596001D01*
X81246Y596274D01*
X81147Y596549D01*
X81054Y596827D01*
X80968Y597107D01*
X80889Y597389D01*
X80816Y597672D01*
X80751Y597958D01*
X80692Y598245D01*
X80641Y598533D01*
X80597Y598822D01*
X80559Y599113D01*
X80529Y599404D01*
X80506Y599696D01*
X80490Y599988D01*
X80481Y600280D01*
X80479Y600573D01*
X80485Y600866D01*
X80497Y601158D01*
X80517Y601450D01*
X80543Y601742D01*
X80577Y602033D01*
X80618Y602323D01*
X80666Y602611D01*
X80721Y602899D01*
X80783Y603185D01*
X80852Y603470D01*
X80927Y603752D01*
X81010Y604033D01*
X81099Y604312D01*
X81196Y604588D01*
X81299Y604863D01*
X81408Y605134D01*
X81524Y605403D01*
X81647Y605669D01*
X81776Y605931D01*
X81911Y606191D01*
X82053Y606447D01*
X82201Y606700D01*
X82355Y606949D01*
X82515Y607194D01*
X82681Y607435D01*
X82853Y607672D01*
X83030Y607905D01*
X83213Y608133D01*
X83402Y608357D01*
X83596Y608576D01*
X83795Y608791D01*
X84000Y609000D01*
X77000Y635000D02*
X77015Y636227D01*
X77060Y637453D01*
X77135Y638678D01*
X77241Y639901D01*
X77376Y641121D01*
X77541Y642337D01*
X77736Y643548D01*
X77961Y644755D01*
X78215Y645955D01*
X78498Y647149D01*
X78811Y648336D01*
X79153Y649514D01*
X79524Y650684D01*
X79923Y651844D01*
X80350Y652995D01*
X80806Y654134D01*
X81290Y655262D01*
X81801Y656378D01*
X82339Y657481D01*
X82904Y658570D01*
X83496Y659645D01*
X84114Y660705D01*
X84757Y661750D01*
X85427Y662779D01*
X86121Y663790D01*
X86840Y664785D01*
X87583Y665762D01*
X88349Y666720D01*
X89140Y667659D01*
X89952Y668578D01*
X90788Y669477D01*
X91645Y670355D01*
X92523Y671212D01*
X93422Y672048D01*
X94341Y672860D01*
X95280Y673651D01*
X96238Y674417D01*
X97215Y675160D01*
X98210Y675879D01*
X99221Y676573D01*
X100250Y677243D01*
X101295Y677886D01*
X102355Y678504D01*
X103430Y679096D01*
X104519Y679661D01*
X105622Y680199D01*
X106738Y680710D01*
X107866Y681194D01*
X109005Y681650D01*
X110156Y682077D01*
X111316Y682476D01*
X112486Y682847D01*
X113664Y683189D01*
X114851Y683502D01*
X116045Y683785D01*
X117245Y684039D01*
X118452Y684264D01*
X119663Y684459D01*
X120879Y684624D01*
X122099Y684759D01*
X123322Y684865D01*
X124547Y684940D01*
X125773Y684985D01*
X127000Y685000D01*
X128227Y684985D01*
X129453Y684940D01*
X130678Y684865D01*
X131901Y684759D01*
X133121Y684624D01*
X134337Y684459D01*
X135548Y684264D01*
X136755Y684039D01*
X137955Y683785D01*
X139149Y683502D01*
X140336Y683189D01*
X141514Y682847D01*
X142684Y682476D01*
X143844Y682077D01*
X144995Y681650D01*
X146134Y681194D01*
X147262Y680710D01*
X148378Y680199D01*
X149481Y679661D01*
X150570Y679096D01*
X151645Y678504D01*
X152705Y677886D01*
X153750Y677243D01*
X154779Y676573D01*
X155790Y675879D01*
X156785Y675160D01*
X157762Y674417D01*
X158720Y673651D01*
X159659Y672860D01*
X160578Y672048D01*
X161477Y671212D01*
X162355Y670355D01*
X163212Y669477D01*
X164048Y668578D01*
X164860Y667659D01*
X165651Y666720D01*
X166417Y665762D01*
X167160Y664785D01*
X167879Y663790D01*
X168573Y662779D01*
X169243Y661750D01*
X169886Y660705D01*
X170504Y659645D01*
X171096Y658570D01*
X171661Y657481D01*
X172199Y656378D01*
X172710Y655262D01*
X173194Y654134D01*
X173650Y652995D01*
X174077Y651844D01*
X174476Y650684D01*
X174847Y649514D01*
X175189Y648336D01*
X175502Y647149D01*
X175785Y645955D01*
X176039Y644755D01*
X176264Y643548D01*
X176459Y642337D01*
X176624Y641121D01*
X176759Y639901D01*
X176865Y638678D01*
X176940Y637453D01*
X176985Y636227D01*
X177000Y635000D01*
X176985Y633773D01*
X176940Y632547D01*
X176865Y631322D01*
X176759Y630099D01*
X176624Y628879D01*
X176459Y627663D01*
X176264Y626452D01*
X176039Y625245D01*
X175785Y624045D01*
X175502Y622851D01*
X175189Y621664D01*
X174847Y620486D01*
X174476Y619316D01*
X174077Y618156D01*
X173650Y617005D01*
X173194Y615866D01*
X172710Y614738D01*
X172199Y613622D01*
X171661Y612519D01*
X171096Y611430D01*
X170504Y610355D01*
X169886Y609295D01*
X169243Y608250D01*
X168573Y607221D01*
X167879Y606210D01*
X167160Y605215D01*
X166417Y604238D01*
X165651Y603280D01*
X164860Y602341D01*
X164048Y601422D01*
X163212Y600523D01*
X162355Y599645D01*
X161477Y598788D01*
X160578Y597952D01*
X159659Y597140D01*
X158720Y596349D01*
X157762Y595583D01*
X156785Y594840D01*
X155790Y594121D01*
X154779Y593427D01*
X153750Y592757D01*
X152705Y592114D01*
X151645Y591496D01*
X150570Y590904D01*
X149481Y590339D01*
X148378Y589801D01*
X147262Y589290D01*
X146134Y588806D01*
X144995Y588350D01*
X143844Y587923D01*
X142684Y587524D01*
X141514Y587153D01*
X140336Y586811D01*
X139149Y586498D01*
X137955Y586215D01*
X136755Y585961D01*
X135548Y585736D01*
X134337Y585541D01*
X133121Y585376D01*
X131901Y585241D01*
X130678Y585135D01*
X129453Y585060D01*
X128227Y585015D01*
X127000Y585000D01*
X125773Y585015D01*
X124547Y585060D01*
X123322Y585135D01*
X122099Y585241D01*
X120879Y585376D01*
X119663Y585541D01*
X118452Y585736D01*
X117245Y585961D01*
X116045Y586215D01*
X114851Y586498D01*
X113664Y586811D01*
X112486Y587153D01*
X111316Y587524D01*
X110156Y587923D01*
X109005Y588350D01*
X107866Y588806D01*
X106738Y589290D01*
X105622Y589801D01*
X104519Y590339D01*
X103430Y590904D01*
X102355Y591496D01*
X101295Y592114D01*
X100250Y592757D01*
X99221Y593427D01*
X98210Y594121D01*
X97215Y594840D01*
X96238Y595583D01*
X95280Y596349D01*
X94341Y597140D01*
X93422Y597952D01*
X92523Y598788D01*
X91645Y599645D01*
X90788Y600523D01*
X89952Y601422D01*
X89140Y602341D01*
X88349Y603280D01*
X87583Y604238D01*
X86840Y605215D01*
X86121Y606210D01*
X85427Y607221D01*
X84757Y608250D01*
X84114Y609295D01*
X83496Y610355D01*
X82904Y611430D01*
X82339Y612519D01*
X81801Y613622D01*
X81290Y614738D01*
X80806Y615866D01*
X80350Y617005D01*
X79923Y618156D01*
X79524Y619316D01*
X79153Y620486D01*
X78811Y621664D01*
X78498Y622851D01*
X78215Y624045D01*
X77961Y625245D01*
X77736Y626452D01*
X77541Y627663D01*
X77376Y628879D01*
X77241Y630099D01*
X77135Y631322D01*
X77060Y632547D01*
X77015Y633773D01*
X77000Y635000D01*
X82279Y635000D02*
X82292Y636098D01*
X82333Y637194D01*
X82400Y638290D01*
X82494Y639383D01*
X82615Y640474D01*
X82763Y641562D01*
X82937Y642646D01*
X83138Y643725D01*
X83366Y644798D01*
X83619Y645866D01*
X83899Y646928D01*
X84205Y647982D01*
X84536Y649028D01*
X84893Y650066D01*
X85276Y651095D01*
X85683Y652114D01*
X86116Y653123D01*
X86573Y654121D01*
X87054Y655107D01*
X87560Y656081D01*
X88089Y657043D01*
X88642Y657991D01*
X89217Y658926D01*
X89816Y659846D01*
X90437Y660751D01*
X91080Y661640D01*
X91744Y662514D01*
X92430Y663371D01*
X93137Y664211D01*
X93864Y665033D01*
X94611Y665837D01*
X95377Y666623D01*
X96163Y667389D01*
X96967Y668136D01*
X97789Y668863D01*
X98629Y669570D01*
X99486Y670256D01*
X100360Y670920D01*
X101249Y671563D01*
X102154Y672184D01*
X103074Y672783D01*
X104009Y673358D01*
X104957Y673911D01*
X105919Y674440D01*
X106893Y674946D01*
X107879Y675427D01*
X108877Y675884D01*
X109886Y676317D01*
X110905Y676724D01*
X111934Y677107D01*
X112972Y677464D01*
X114018Y677795D01*
X115072Y678101D01*
X116134Y678381D01*
X117202Y678634D01*
X118275Y678862D01*
X119354Y679063D01*
X120438Y679237D01*
X121526Y679385D01*
X122617Y679506D01*
X123710Y679600D01*
X124806Y679667D01*
X125902Y679708D01*
X127000Y679721D01*
X128098Y679708D01*
X129194Y679667D01*
X130290Y679600D01*
X131383Y679506D01*
X132474Y679385D01*
X133562Y679237D01*
X134646Y679063D01*
X135725Y678862D01*
X136798Y678634D01*
X137866Y678381D01*
X138928Y678101D01*
X139982Y677795D01*
X141028Y677464D01*
X142066Y677107D01*
X143095Y676724D01*
X144114Y676317D01*
X145123Y675884D01*
X146121Y675427D01*
X147107Y674946D01*
X148081Y674440D01*
X149043Y673911D01*
X149991Y673358D01*
X150926Y672783D01*
X151846Y672184D01*
X152751Y671563D01*
X153640Y670920D01*
X154514Y670256D01*
X155371Y669570D01*
X156211Y668863D01*
X157033Y668136D01*
X157837Y667389D01*
X158623Y666623D01*
X159389Y665837D01*
X160136Y665033D01*
X160863Y664211D01*
X161570Y663371D01*
X162256Y662514D01*
X162920Y661640D01*
X163563Y660751D01*
X164184Y659846D01*
X164783Y658926D01*
X165358Y657991D01*
X165911Y657043D01*
X166440Y656081D01*
X166946Y655107D01*
X167427Y654121D01*
X167884Y653123D01*
X168317Y652114D01*
X168724Y651095D01*
X169107Y650066D01*
X169464Y649028D01*
X169795Y647982D01*
X170101Y646928D01*
X170381Y645866D01*
X170634Y644798D01*
X170862Y643725D01*
X171063Y642646D01*
X171237Y641562D01*
X171385Y640474D01*
X171506Y639383D01*
X171600Y638290D01*
X171667Y637194D01*
X171708Y636098D01*
X171721Y635000D01*
X171708Y633902D01*
X171667Y632806D01*
X171600Y631710D01*
X171506Y630617D01*
X171385Y629526D01*
X171237Y628438D01*
X171063Y627354D01*
X170862Y626275D01*
X170634Y625202D01*
X170381Y624134D01*
X170101Y623072D01*
X169795Y622018D01*
X169464Y620972D01*
X169107Y619934D01*
X168724Y618905D01*
X168317Y617886D01*
X167884Y616877D01*
X167427Y615879D01*
X166946Y614893D01*
X166440Y613919D01*
X165911Y612957D01*
X165358Y612009D01*
X164783Y611074D01*
X164184Y610154D01*
X163563Y609249D01*
X162920Y608360D01*
X162256Y607486D01*
X161570Y606629D01*
X160863Y605789D01*
X160136Y604967D01*
X159389Y604163D01*
X158623Y603377D01*
X157837Y602611D01*
X157033Y601864D01*
X156211Y601137D01*
X155371Y600430D01*
X154514Y599744D01*
X153640Y599080D01*
X152751Y598437D01*
X151846Y597816D01*
X150926Y597217D01*
X149991Y596642D01*
X149043Y596089D01*
X148081Y595560D01*
X147107Y595054D01*
X146121Y594573D01*
X145123Y594116D01*
X144114Y593683D01*
X143095Y593276D01*
X142066Y592893D01*
X141028Y592536D01*
X139982Y592205D01*
X138928Y591899D01*
X137866Y591619D01*
X136798Y591366D01*
X135725Y591138D01*
X134646Y590937D01*
X133562Y590763D01*
X132474Y590615D01*
X131383Y590494D01*
X130290Y590400D01*
X129194Y590333D01*
X128098Y590292D01*
X127000Y590279D01*
X125902Y590292D01*
X124806Y590333D01*
X123710Y590400D01*
X122617Y590494D01*
X121526Y590615D01*
X120438Y590763D01*
X119354Y590937D01*
X118275Y591138D01*
X117202Y591366D01*
X116134Y591619D01*
X115072Y591899D01*
X114018Y592205D01*
X112972Y592536D01*
X111934Y592893D01*
X110905Y593276D01*
X109886Y593683D01*
X108877Y594116D01*
X107879Y594573D01*
X106893Y595054D01*
X105919Y595560D01*
X104957Y596089D01*
X104009Y596642D01*
X103074Y597217D01*
X102154Y597816D01*
X101249Y598437D01*
X100360Y599080D01*
X99486Y599744D01*
X98629Y600430D01*
X97789Y601137D01*
X96967Y601864D01*
X96163Y602611D01*
X95377Y603377D01*
X94611Y604163D01*
X93864Y604967D01*
X93137Y605789D01*
X92430Y606629D01*
X91744Y607486D01*
X91080Y608360D01*
X90437Y609249D01*
X89816Y610154D01*
X89217Y611074D01*
X88642Y612009D01*
X88089Y612957D01*
X87560Y613919D01*
X87054Y614893D01*
X86573Y615879D01*
X86116Y616877D01*
X85683Y617886D01*
X85276Y618905D01*
X84893Y619934D01*
X84536Y620972D01*
X84205Y622018D01*
X83899Y623072D01*
X83619Y624134D01*
X83366Y625202D01*
X83138Y626275D01*
X82937Y627354D01*
X82763Y628438D01*
X82615Y629526D01*
X82494Y630617D01*
X82400Y631710D01*
X82333Y632806D01*
X82292Y633902D01*
X82279Y635000D01*
D13*
X95758Y654558D02*
X95758Y666242D01*
X95758Y654558D02*
X100951Y654558D01*
X105260Y663646D02*
X108506Y666242D01*
X108506Y654558D01*
X105260Y654558D02*
X111752Y654558D01*
D11*
X371800Y685000D02*
X371803Y685242D01*
X371812Y685483D01*
X371826Y685724D01*
X371847Y685965D01*
X371873Y686205D01*
X371905Y686445D01*
X371943Y686684D01*
X371986Y686921D01*
X372036Y687158D01*
X372091Y687393D01*
X372151Y687627D01*
X372218Y687859D01*
X372289Y688090D01*
X372367Y688319D01*
X372450Y688546D01*
X372538Y688771D01*
X372632Y688994D01*
X372731Y689214D01*
X372836Y689432D01*
X372945Y689647D01*
X373060Y689860D01*
X373180Y690070D01*
X373305Y690276D01*
X373435Y690480D01*
X373570Y690681D01*
X373710Y690878D01*
X373854Y691072D01*
X374003Y691262D01*
X374157Y691448D01*
X374315Y691631D01*
X374477Y691810D01*
X374644Y691985D01*
X374815Y692156D01*
X374990Y692323D01*
X375169Y692485D01*
X375352Y692643D01*
X375538Y692797D01*
X375728Y692946D01*
X375922Y693090D01*
X376119Y693230D01*
X376320Y693365D01*
X376524Y693495D01*
X376730Y693620D01*
X376940Y693740D01*
X377153Y693855D01*
X377368Y693964D01*
X377586Y694069D01*
X377806Y694168D01*
X378029Y694262D01*
X378254Y694350D01*
X378481Y694433D01*
X378710Y694511D01*
X378941Y694582D01*
X379173Y694649D01*
X379407Y694709D01*
X379642Y694764D01*
X379879Y694814D01*
X380116Y694857D01*
X380355Y694895D01*
X380595Y694927D01*
X380835Y694953D01*
X381076Y694974D01*
X381317Y694988D01*
X381558Y694997D01*
X381800Y695000D01*
X481800Y695000D01*
X482042Y694997D01*
X482283Y694988D01*
X482524Y694974D01*
X482765Y694953D01*
X483005Y694927D01*
X483245Y694895D01*
X483484Y694857D01*
X483721Y694814D01*
X483958Y694764D01*
X484193Y694709D01*
X484427Y694649D01*
X484659Y694582D01*
X484890Y694511D01*
X485119Y694433D01*
X485346Y694350D01*
X485571Y694262D01*
X485794Y694168D01*
X486014Y694069D01*
X486232Y693964D01*
X486447Y693855D01*
X486660Y693740D01*
X486870Y693620D01*
X487076Y693495D01*
X487280Y693365D01*
X487481Y693230D01*
X487678Y693090D01*
X487872Y692946D01*
X488062Y692797D01*
X488248Y692643D01*
X488431Y692485D01*
X488610Y692323D01*
X488785Y692156D01*
X488956Y691985D01*
X489123Y691810D01*
X489285Y691631D01*
X489443Y691448D01*
X489597Y691262D01*
X489746Y691072D01*
X489890Y690878D01*
X490030Y690681D01*
X490165Y690480D01*
X490295Y690276D01*
X490420Y690070D01*
X490540Y689860D01*
X490655Y689647D01*
X490764Y689432D01*
X490869Y689214D01*
X490968Y688994D01*
X491062Y688771D01*
X491150Y688546D01*
X491233Y688319D01*
X491311Y688090D01*
X491382Y687859D01*
X491449Y687627D01*
X491509Y687393D01*
X491564Y687158D01*
X491614Y686921D01*
X491657Y686684D01*
X491695Y686445D01*
X491727Y686205D01*
X491753Y685965D01*
X491774Y685724D01*
X491788Y685483D01*
X491797Y685242D01*
X491800Y685000D01*
X491800Y585000D01*
X491797Y584758D01*
X491788Y584517D01*
X491774Y584276D01*
X491753Y584035D01*
X491727Y583795D01*
X491695Y583555D01*
X491657Y583316D01*
X491614Y583079D01*
X491564Y582842D01*
X491509Y582607D01*
X491449Y582373D01*
X491382Y582141D01*
X491311Y581910D01*
X491233Y581681D01*
X491150Y581454D01*
X491062Y581229D01*
X490968Y581006D01*
X490869Y580786D01*
X490764Y580568D01*
X490655Y580353D01*
X490540Y580140D01*
X490420Y579930D01*
X490295Y579724D01*
X490165Y579520D01*
X490030Y579319D01*
X489890Y579122D01*
X489746Y578928D01*
X489597Y578738D01*
X489443Y578552D01*
X489285Y578369D01*
X489123Y578190D01*
X488956Y578015D01*
X488785Y577844D01*
X488610Y577677D01*
X488431Y577515D01*
X488248Y577357D01*
X488062Y577203D01*
X487872Y577054D01*
X487678Y576910D01*
X487481Y576770D01*
X487280Y576635D01*
X487076Y576505D01*
X486870Y576380D01*
X486660Y576260D01*
X486447Y576145D01*
X486232Y576036D01*
X486014Y575931D01*
X485794Y575832D01*
X485571Y575738D01*
X485346Y575650D01*
X485119Y575567D01*
X484890Y575489D01*
X484659Y575418D01*
X484427Y575351D01*
X484193Y575291D01*
X483958Y575236D01*
X483721Y575186D01*
X483484Y575143D01*
X483245Y575105D01*
X483005Y575073D01*
X482765Y575047D01*
X482524Y575026D01*
X482283Y575012D01*
X482042Y575003D01*
X481800Y575000D01*
X381800Y575000D01*
X381558Y575003D01*
X381317Y575012D01*
X381076Y575026D01*
X380835Y575047D01*
X380595Y575073D01*
X380355Y575105D01*
X380116Y575143D01*
X379879Y575186D01*
X379642Y575236D01*
X379407Y575291D01*
X379173Y575351D01*
X378941Y575418D01*
X378710Y575489D01*
X378481Y575567D01*
X378254Y575650D01*
X378029Y575738D01*
X377806Y575832D01*
X377586Y575931D01*
X377368Y576036D01*
X377153Y576145D01*
X376940Y576260D01*
X376730Y576380D01*
X376524Y576505D01*
X376320Y576635D01*
X376119Y576770D01*
X375922Y576910D01*
X375728Y577054D01*
X375538Y577203D01*
X375352Y577357D01*
X375169Y577515D01*
X374990Y577677D01*
X374815Y577844D01*
X374644Y578015D01*
X374477Y578190D01*
X374315Y578369D01*
X374157Y578552D01*
X374003Y578738D01*
X373854Y578928D01*
X373710Y579122D01*
X373570Y579319D01*
X373435Y579520D01*
X373305Y579724D01*
X373180Y579930D01*
X373060Y580140D01*
X372945Y580353D01*
X372836Y580568D01*
X372731Y580786D01*
X372632Y581006D01*
X372538Y581229D01*
X372450Y581454D01*
X372367Y581681D01*
X372289Y581910D01*
X372218Y582141D01*
X372151Y582373D01*
X372091Y582607D01*
X372036Y582842D01*
X371986Y583079D01*
X371943Y583316D01*
X371905Y583555D01*
X371873Y583795D01*
X371847Y584035D01*
X371826Y584276D01*
X371812Y584517D01*
X371803Y584758D01*
X371800Y585000D01*
X371800Y685000D01*
X388800Y661000D02*
X388595Y661209D01*
X388396Y661424D01*
X388202Y661643D01*
X388013Y661867D01*
X387830Y662095D01*
X387653Y662328D01*
X387481Y662565D01*
X387315Y662806D01*
X387155Y663051D01*
X387001Y663300D01*
X386853Y663553D01*
X386711Y663809D01*
X386576Y664069D01*
X386447Y664331D01*
X386324Y664597D01*
X386208Y664866D01*
X386099Y665137D01*
X385996Y665412D01*
X385899Y665688D01*
X385810Y665967D01*
X385727Y666248D01*
X385652Y666530D01*
X385583Y666815D01*
X385521Y667101D01*
X385466Y667389D01*
X385418Y667677D01*
X385377Y667967D01*
X385343Y668258D01*
X385317Y668550D01*
X385297Y668842D01*
X385285Y669134D01*
X385279Y669427D01*
X385281Y669720D01*
X385290Y670012D01*
X385306Y670304D01*
X385329Y670596D01*
X385359Y670887D01*
X385397Y671178D01*
X385441Y671467D01*
X385492Y671755D01*
X385551Y672042D01*
X385616Y672328D01*
X385689Y672611D01*
X385768Y672893D01*
X385854Y673173D01*
X385947Y673451D01*
X386046Y673726D01*
X386152Y673999D01*
X386265Y674269D01*
X386385Y674536D01*
X386511Y674800D01*
X386643Y675061D01*
X386781Y675319D01*
X386926Y675574D01*
X387077Y675825D01*
X387234Y676072D01*
X387397Y676315D01*
X387566Y676554D01*
X387741Y676789D01*
X387921Y677019D01*
X388107Y677246D01*
X388298Y677467D01*
X388495Y677684D01*
X388697Y677896D01*
X388904Y678103D01*
X389116Y678305D01*
X389333Y678502D01*
X389554Y678693D01*
X389781Y678879D01*
X390011Y679059D01*
X390246Y679234D01*
X390485Y679403D01*
X390728Y679566D01*
X390975Y679723D01*
X391226Y679874D01*
X391481Y680019D01*
X391739Y680157D01*
X392000Y680289D01*
X392264Y680415D01*
X392531Y680535D01*
X392801Y680648D01*
X393074Y680754D01*
X393349Y680853D01*
X393627Y680946D01*
X393907Y681032D01*
X394189Y681111D01*
X394472Y681184D01*
X394758Y681249D01*
X395045Y681308D01*
X395333Y681359D01*
X395622Y681403D01*
X395913Y681441D01*
X396204Y681471D01*
X396496Y681494D01*
X396788Y681510D01*
X397080Y681519D01*
X397373Y681521D01*
X397666Y681515D01*
X397958Y681503D01*
X398250Y681483D01*
X398542Y681457D01*
X398833Y681423D01*
X399123Y681382D01*
X399411Y681334D01*
X399699Y681279D01*
X399985Y681217D01*
X400270Y681148D01*
X400552Y681073D01*
X400833Y680990D01*
X401112Y680901D01*
X401388Y680804D01*
X401663Y680701D01*
X401934Y680592D01*
X402203Y680476D01*
X402469Y680353D01*
X402731Y680224D01*
X402991Y680089D01*
X403247Y679947D01*
X403500Y679799D01*
X403749Y679645D01*
X403994Y679485D01*
X404235Y679319D01*
X404472Y679147D01*
X404705Y678970D01*
X404933Y678787D01*
X405157Y678598D01*
X405376Y678404D01*
X405591Y678205D01*
X405800Y678000D01*
X457800Y678000D02*
X458011Y678206D01*
X458227Y678407D01*
X458448Y678602D01*
X458674Y678792D01*
X458904Y678977D01*
X459139Y679155D01*
X459378Y679328D01*
X459621Y679495D01*
X459869Y679656D01*
X460120Y679811D01*
X460375Y679959D01*
X460633Y680102D01*
X460895Y680237D01*
X461160Y680367D01*
X461429Y680490D01*
X461700Y680606D01*
X461974Y680716D01*
X462250Y680818D01*
X462529Y680914D01*
X462810Y681003D01*
X463094Y681086D01*
X463379Y681161D01*
X463666Y681229D01*
X463955Y681290D01*
X464245Y681344D01*
X464536Y681391D01*
X464829Y681431D01*
X465122Y681463D01*
X465416Y681488D01*
X465710Y681507D01*
X466005Y681517D01*
X466300Y681521D01*
X466595Y681517D01*
X466890Y681507D01*
X467184Y681488D01*
X467478Y681463D01*
X467771Y681431D01*
X468064Y681391D01*
X468355Y681344D01*
X468645Y681290D01*
X468934Y681229D01*
X469221Y681161D01*
X469506Y681086D01*
X469790Y681003D01*
X470071Y680914D01*
X470350Y680818D01*
X470626Y680716D01*
X470900Y680606D01*
X471171Y680490D01*
X471440Y680367D01*
X471705Y680237D01*
X471967Y680102D01*
X472225Y679959D01*
X472480Y679811D01*
X472731Y679656D01*
X472979Y679495D01*
X473222Y679328D01*
X473461Y679155D01*
X473696Y678977D01*
X473926Y678792D01*
X474152Y678602D01*
X474373Y678407D01*
X474589Y678206D01*
X474800Y678000D01*
X475006Y677789D01*
X475207Y677573D01*
X475402Y677352D01*
X475592Y677126D01*
X475777Y676896D01*
X475955Y676661D01*
X476128Y676422D01*
X476295Y676179D01*
X476456Y675931D01*
X476611Y675680D01*
X476759Y675425D01*
X476902Y675167D01*
X477037Y674905D01*
X477167Y674640D01*
X477290Y674371D01*
X477406Y674100D01*
X477516Y673826D01*
X477618Y673550D01*
X477714Y673271D01*
X477803Y672990D01*
X477886Y672706D01*
X477961Y672421D01*
X478029Y672134D01*
X478090Y671845D01*
X478144Y671555D01*
X478191Y671264D01*
X478231Y670971D01*
X478263Y670678D01*
X478288Y670384D01*
X478307Y670090D01*
X478317Y669795D01*
X478321Y669500D01*
X478317Y669205D01*
X478307Y668910D01*
X478288Y668616D01*
X478263Y668322D01*
X478231Y668029D01*
X478191Y667736D01*
X478144Y667445D01*
X478090Y667155D01*
X478029Y666866D01*
X477961Y666579D01*
X477886Y666294D01*
X477803Y666010D01*
X477714Y665729D01*
X477618Y665450D01*
X477516Y665174D01*
X477406Y664900D01*
X477290Y664629D01*
X477167Y664360D01*
X477037Y664095D01*
X476902Y663833D01*
X476759Y663575D01*
X476611Y663320D01*
X476456Y663069D01*
X476295Y662821D01*
X476128Y662578D01*
X475955Y662339D01*
X475777Y662104D01*
X475592Y661874D01*
X475402Y661648D01*
X475207Y661427D01*
X475006Y661211D01*
X474800Y661000D01*
X474800Y609000D02*
X475005Y608791D01*
X475204Y608576D01*
X475398Y608357D01*
X475587Y608133D01*
X475770Y607905D01*
X475947Y607672D01*
X476119Y607435D01*
X476285Y607194D01*
X476445Y606949D01*
X476599Y606700D01*
X476747Y606447D01*
X476889Y606191D01*
X477024Y605931D01*
X477153Y605669D01*
X477276Y605403D01*
X477392Y605134D01*
X477501Y604863D01*
X477604Y604588D01*
X477701Y604312D01*
X477790Y604033D01*
X477873Y603752D01*
X477948Y603470D01*
X478017Y603185D01*
X478079Y602899D01*
X478134Y602611D01*
X478182Y602323D01*
X478223Y602033D01*
X478257Y601742D01*
X478283Y601450D01*
X478303Y601158D01*
X478315Y600866D01*
X478321Y600573D01*
X478319Y600280D01*
X478310Y599988D01*
X478294Y599696D01*
X478271Y599404D01*
X478241Y599113D01*
X478203Y598822D01*
X478159Y598533D01*
X478108Y598245D01*
X478049Y597958D01*
X477984Y597672D01*
X477911Y597389D01*
X477832Y597107D01*
X477746Y596827D01*
X477653Y596549D01*
X477554Y596274D01*
X477448Y596001D01*
X477335Y595731D01*
X477215Y595464D01*
X477089Y595200D01*
X476957Y594939D01*
X476819Y594681D01*
X476674Y594426D01*
X476523Y594175D01*
X476366Y593928D01*
X476203Y593685D01*
X476034Y593446D01*
X475859Y593211D01*
X475679Y592981D01*
X475493Y592754D01*
X475302Y592533D01*
X475105Y592316D01*
X474903Y592104D01*
X474696Y591897D01*
X474484Y591695D01*
X474267Y591498D01*
X474046Y591307D01*
X473819Y591121D01*
X473589Y590941D01*
X473354Y590766D01*
X473115Y590597D01*
X472872Y590434D01*
X472625Y590277D01*
X472374Y590126D01*
X472119Y589981D01*
X471861Y589843D01*
X471600Y589711D01*
X471336Y589585D01*
X471069Y589465D01*
X470799Y589352D01*
X470526Y589246D01*
X470251Y589147D01*
X469973Y589054D01*
X469693Y588968D01*
X469411Y588889D01*
X469128Y588816D01*
X468842Y588751D01*
X468555Y588692D01*
X468267Y588641D01*
X467978Y588597D01*
X467687Y588559D01*
X467396Y588529D01*
X467104Y588506D01*
X466812Y588490D01*
X466520Y588481D01*
X466227Y588479D01*
X465934Y588485D01*
X465642Y588497D01*
X465350Y588517D01*
X465058Y588543D01*
X464767Y588577D01*
X464477Y588618D01*
X464189Y588666D01*
X463901Y588721D01*
X463615Y588783D01*
X463330Y588852D01*
X463048Y588927D01*
X462767Y589010D01*
X462488Y589099D01*
X462212Y589196D01*
X461937Y589299D01*
X461666Y589408D01*
X461397Y589524D01*
X461131Y589647D01*
X460869Y589776D01*
X460609Y589911D01*
X460353Y590053D01*
X460100Y590201D01*
X459851Y590355D01*
X459606Y590515D01*
X459365Y590681D01*
X459128Y590853D01*
X458895Y591030D01*
X458667Y591213D01*
X458443Y591402D01*
X458224Y591596D01*
X458009Y591795D01*
X457800Y592000D01*
X405800Y592000D02*
X405591Y591795D01*
X405376Y591596D01*
X405157Y591402D01*
X404933Y591213D01*
X404705Y591030D01*
X404472Y590853D01*
X404235Y590681D01*
X403994Y590515D01*
X403749Y590355D01*
X403500Y590201D01*
X403247Y590053D01*
X402991Y589911D01*
X402731Y589776D01*
X402469Y589647D01*
X402203Y589524D01*
X401934Y589408D01*
X401663Y589299D01*
X401388Y589196D01*
X401112Y589099D01*
X400833Y589010D01*
X400552Y588927D01*
X400270Y588852D01*
X399985Y588783D01*
X399699Y588721D01*
X399411Y588666D01*
X399123Y588618D01*
X398833Y588577D01*
X398542Y588543D01*
X398250Y588517D01*
X397958Y588497D01*
X397666Y588485D01*
X397373Y588479D01*
X397080Y588481D01*
X396788Y588490D01*
X396496Y588506D01*
X396204Y588529D01*
X395913Y588559D01*
X395622Y588597D01*
X395333Y588641D01*
X395045Y588692D01*
X394758Y588751D01*
X394472Y588816D01*
X394189Y588889D01*
X393907Y588968D01*
X393627Y589054D01*
X393349Y589147D01*
X393074Y589246D01*
X392801Y589352D01*
X392531Y589465D01*
X392264Y589585D01*
X392000Y589711D01*
X391739Y589843D01*
X391481Y589981D01*
X391226Y590126D01*
X390975Y590277D01*
X390728Y590434D01*
X390485Y590597D01*
X390246Y590766D01*
X390011Y590941D01*
X389781Y591121D01*
X389554Y591307D01*
X389333Y591498D01*
X389116Y591695D01*
X388904Y591897D01*
X388697Y592104D01*
X388495Y592316D01*
X388298Y592533D01*
X388107Y592754D01*
X387921Y592981D01*
X387741Y593211D01*
X387566Y593446D01*
X387397Y593685D01*
X387234Y593928D01*
X387077Y594175D01*
X386926Y594426D01*
X386781Y594681D01*
X386643Y594939D01*
X386511Y595200D01*
X386385Y595464D01*
X386265Y595731D01*
X386152Y596001D01*
X386046Y596274D01*
X385947Y596549D01*
X385854Y596827D01*
X385768Y597107D01*
X385689Y597389D01*
X385616Y597672D01*
X385551Y597958D01*
X385492Y598245D01*
X385441Y598533D01*
X385397Y598822D01*
X385359Y599113D01*
X385329Y599404D01*
X385306Y599696D01*
X385290Y599988D01*
X385281Y600280D01*
X385279Y600573D01*
X385285Y600866D01*
X385297Y601158D01*
X385317Y601450D01*
X385343Y601742D01*
X385377Y602033D01*
X385418Y602323D01*
X385466Y602611D01*
X385521Y602899D01*
X385583Y603185D01*
X385652Y603470D01*
X385727Y603752D01*
X385810Y604033D01*
X385899Y604312D01*
X385996Y604588D01*
X386099Y604863D01*
X386208Y605134D01*
X386324Y605403D01*
X386447Y605669D01*
X386576Y605931D01*
X386711Y606191D01*
X386853Y606447D01*
X387001Y606700D01*
X387155Y606949D01*
X387315Y607194D01*
X387481Y607435D01*
X387653Y607672D01*
X387830Y607905D01*
X388013Y608133D01*
X388202Y608357D01*
X388396Y608576D01*
X388595Y608791D01*
X388800Y609000D01*
X381800Y635000D02*
X381815Y636227D01*
X381860Y637453D01*
X381935Y638678D01*
X382041Y639901D01*
X382176Y641121D01*
X382341Y642337D01*
X382536Y643548D01*
X382761Y644755D01*
X383015Y645955D01*
X383298Y647149D01*
X383611Y648336D01*
X383953Y649514D01*
X384324Y650684D01*
X384723Y651844D01*
X385150Y652995D01*
X385606Y654134D01*
X386090Y655262D01*
X386601Y656378D01*
X387139Y657481D01*
X387704Y658570D01*
X388296Y659645D01*
X388914Y660705D01*
X389557Y661750D01*
X390227Y662779D01*
X390921Y663790D01*
X391640Y664785D01*
X392383Y665762D01*
X393149Y666720D01*
X393940Y667659D01*
X394752Y668578D01*
X395588Y669477D01*
X396445Y670355D01*
X397323Y671212D01*
X398222Y672048D01*
X399141Y672860D01*
X400080Y673651D01*
X401038Y674417D01*
X402015Y675160D01*
X403010Y675879D01*
X404021Y676573D01*
X405050Y677243D01*
X406095Y677886D01*
X407155Y678504D01*
X408230Y679096D01*
X409319Y679661D01*
X410422Y680199D01*
X411538Y680710D01*
X412666Y681194D01*
X413805Y681650D01*
X414956Y682077D01*
X416116Y682476D01*
X417286Y682847D01*
X418464Y683189D01*
X419651Y683502D01*
X420845Y683785D01*
X422045Y684039D01*
X423252Y684264D01*
X424463Y684459D01*
X425679Y684624D01*
X426899Y684759D01*
X428122Y684865D01*
X429347Y684940D01*
X430573Y684985D01*
X431800Y685000D01*
X433027Y684985D01*
X434253Y684940D01*
X435478Y684865D01*
X436701Y684759D01*
X437921Y684624D01*
X439137Y684459D01*
X440348Y684264D01*
X441555Y684039D01*
X442755Y683785D01*
X443949Y683502D01*
X445136Y683189D01*
X446314Y682847D01*
X447484Y682476D01*
X448644Y682077D01*
X449795Y681650D01*
X450934Y681194D01*
X452062Y680710D01*
X453178Y680199D01*
X454281Y679661D01*
X455370Y679096D01*
X456445Y678504D01*
X457505Y677886D01*
X458550Y677243D01*
X459579Y676573D01*
X460590Y675879D01*
X461585Y675160D01*
X462562Y674417D01*
X463520Y673651D01*
X464459Y672860D01*
X465378Y672048D01*
X466277Y671212D01*
X467155Y670355D01*
X468012Y669477D01*
X468848Y668578D01*
X469660Y667659D01*
X470451Y666720D01*
X471217Y665762D01*
X471960Y664785D01*
X472679Y663790D01*
X473373Y662779D01*
X474043Y661750D01*
X474686Y660705D01*
X475304Y659645D01*
X475896Y658570D01*
X476461Y657481D01*
X476999Y656378D01*
X477510Y655262D01*
X477994Y654134D01*
X478450Y652995D01*
X478877Y651844D01*
X479276Y650684D01*
X479647Y649514D01*
X479989Y648336D01*
X480302Y647149D01*
X480585Y645955D01*
X480839Y644755D01*
X481064Y643548D01*
X481259Y642337D01*
X481424Y641121D01*
X481559Y639901D01*
X481665Y638678D01*
X481740Y637453D01*
X481785Y636227D01*
X481800Y635000D01*
X481785Y633773D01*
X481740Y632547D01*
X481665Y631322D01*
X481559Y630099D01*
X481424Y628879D01*
X481259Y627663D01*
X481064Y626452D01*
X480839Y625245D01*
X480585Y624045D01*
X480302Y622851D01*
X479989Y621664D01*
X479647Y620486D01*
X479276Y619316D01*
X478877Y618156D01*
X478450Y617005D01*
X477994Y615866D01*
X477510Y614738D01*
X476999Y613622D01*
X476461Y612519D01*
X475896Y611430D01*
X475304Y610355D01*
X474686Y609295D01*
X474043Y608250D01*
X473373Y607221D01*
X472679Y606210D01*
X471960Y605215D01*
X471217Y604238D01*
X470451Y603280D01*
X469660Y602341D01*
X468848Y601422D01*
X468012Y600523D01*
X467155Y599645D01*
X466277Y598788D01*
X465378Y597952D01*
X464459Y597140D01*
X463520Y596349D01*
X462562Y595583D01*
X461585Y594840D01*
X460590Y594121D01*
X459579Y593427D01*
X458550Y592757D01*
X457505Y592114D01*
X456445Y591496D01*
X455370Y590904D01*
X454281Y590339D01*
X453178Y589801D01*
X452062Y589290D01*
X450934Y588806D01*
X449795Y588350D01*
X448644Y587923D01*
X447484Y587524D01*
X446314Y587153D01*
X445136Y586811D01*
X443949Y586498D01*
X442755Y586215D01*
X441555Y585961D01*
X440348Y585736D01*
X439137Y585541D01*
X437921Y585376D01*
X436701Y585241D01*
X435478Y585135D01*
X434253Y585060D01*
X433027Y585015D01*
X431800Y585000D01*
X430573Y585015D01*
X429347Y585060D01*
X428122Y585135D01*
X426899Y585241D01*
X425679Y585376D01*
X424463Y585541D01*
X423252Y585736D01*
X422045Y585961D01*
X420845Y586215D01*
X419651Y586498D01*
X418464Y586811D01*
X417286Y587153D01*
X416116Y587524D01*
X414956Y587923D01*
X413805Y588350D01*
X412666Y588806D01*
X411538Y589290D01*
X410422Y589801D01*
X409319Y590339D01*
X408230Y590904D01*
X407155Y591496D01*
X406095Y592114D01*
X405050Y592757D01*
X404021Y593427D01*
X403010Y594121D01*
X402015Y594840D01*
X401038Y595583D01*
X400080Y596349D01*
X399141Y597140D01*
X398222Y597952D01*
X397323Y598788D01*
X396445Y599645D01*
X395588Y600523D01*
X394752Y601422D01*
X393940Y602341D01*
X393149Y603280D01*
X392383Y604238D01*
X391640Y605215D01*
X390921Y606210D01*
X390227Y607221D01*
X389557Y608250D01*
X388914Y609295D01*
X388296Y610355D01*
X387704Y611430D01*
X387139Y612519D01*
X386601Y613622D01*
X386090Y614738D01*
X385606Y615866D01*
X385150Y617005D01*
X384723Y618156D01*
X384324Y619316D01*
X383953Y620486D01*
X383611Y621664D01*
X383298Y622851D01*
X383015Y624045D01*
X382761Y625245D01*
X382536Y626452D01*
X382341Y627663D01*
X382176Y628879D01*
X382041Y630099D01*
X381935Y631322D01*
X381860Y632547D01*
X381815Y633773D01*
X381800Y635000D01*
X387079Y635000D02*
X387092Y636098D01*
X387133Y637194D01*
X387200Y638290D01*
X387294Y639383D01*
X387415Y640474D01*
X387563Y641562D01*
X387737Y642646D01*
X387938Y643725D01*
X388166Y644798D01*
X388419Y645866D01*
X388699Y646928D01*
X389005Y647982D01*
X389336Y649028D01*
X389693Y650066D01*
X390076Y651095D01*
X390483Y652114D01*
X390916Y653123D01*
X391373Y654121D01*
X391854Y655107D01*
X392360Y656081D01*
X392889Y657043D01*
X393442Y657991D01*
X394017Y658926D01*
X394616Y659846D01*
X395237Y660751D01*
X395880Y661640D01*
X396544Y662514D01*
X397230Y663371D01*
X397937Y664211D01*
X398664Y665033D01*
X399411Y665837D01*
X400177Y666623D01*
X400963Y667389D01*
X401767Y668136D01*
X402589Y668863D01*
X403429Y669570D01*
X404286Y670256D01*
X405160Y670920D01*
X406049Y671563D01*
X406954Y672184D01*
X407874Y672783D01*
X408809Y673358D01*
X409757Y673911D01*
X410719Y674440D01*
X411693Y674946D01*
X412679Y675427D01*
X413677Y675884D01*
X414686Y676317D01*
X415705Y676724D01*
X416734Y677107D01*
X417772Y677464D01*
X418818Y677795D01*
X419872Y678101D01*
X420934Y678381D01*
X422002Y678634D01*
X423075Y678862D01*
X424154Y679063D01*
X425238Y679237D01*
X426326Y679385D01*
X427417Y679506D01*
X428510Y679600D01*
X429606Y679667D01*
X430702Y679708D01*
X431800Y679721D01*
X432898Y679708D01*
X433994Y679667D01*
X435090Y679600D01*
X436183Y679506D01*
X437274Y679385D01*
X438362Y679237D01*
X439446Y679063D01*
X440525Y678862D01*
X441598Y678634D01*
X442666Y678381D01*
X443728Y678101D01*
X444782Y677795D01*
X445828Y677464D01*
X446866Y677107D01*
X447895Y676724D01*
X448914Y676317D01*
X449923Y675884D01*
X450921Y675427D01*
X451907Y674946D01*
X452881Y674440D01*
X453843Y673911D01*
X454791Y673358D01*
X455726Y672783D01*
X456646Y672184D01*
X457551Y671563D01*
X458440Y670920D01*
X459314Y670256D01*
X460171Y669570D01*
X461011Y668863D01*
X461833Y668136D01*
X462637Y667389D01*
X463423Y666623D01*
X464189Y665837D01*
X464936Y665033D01*
X465663Y664211D01*
X466370Y663371D01*
X467056Y662514D01*
X467720Y661640D01*
X468363Y660751D01*
X468984Y659846D01*
X469583Y658926D01*
X470158Y657991D01*
X470711Y657043D01*
X471240Y656081D01*
X471746Y655107D01*
X472227Y654121D01*
X472684Y653123D01*
X473117Y652114D01*
X473524Y651095D01*
X473907Y650066D01*
X474264Y649028D01*
X474595Y647982D01*
X474901Y646928D01*
X475181Y645866D01*
X475434Y644798D01*
X475662Y643725D01*
X475863Y642646D01*
X476037Y641562D01*
X476185Y640474D01*
X476306Y639383D01*
X476400Y638290D01*
X476467Y637194D01*
X476508Y636098D01*
X476521Y635000D01*
X476508Y633902D01*
X476467Y632806D01*
X476400Y631710D01*
X476306Y630617D01*
X476185Y629526D01*
X476037Y628438D01*
X475863Y627354D01*
X475662Y626275D01*
X475434Y625202D01*
X475181Y624134D01*
X474901Y623072D01*
X474595Y622018D01*
X474264Y620972D01*
X473907Y619934D01*
X473524Y618905D01*
X473117Y617886D01*
X472684Y616877D01*
X472227Y615879D01*
X471746Y614893D01*
X471240Y613919D01*
X470711Y612957D01*
X470158Y612009D01*
X469583Y611074D01*
X468984Y610154D01*
X468363Y609249D01*
X467720Y608360D01*
X467056Y607486D01*
X466370Y606629D01*
X465663Y605789D01*
X464936Y604967D01*
X464189Y604163D01*
X463423Y603377D01*
X462637Y602611D01*
X461833Y601864D01*
X461011Y601137D01*
X460171Y600430D01*
X459314Y599744D01*
X458440Y599080D01*
X457551Y598437D01*
X456646Y597816D01*
X455726Y597217D01*
X454791Y596642D01*
X453843Y596089D01*
X452881Y595560D01*
X451907Y595054D01*
X450921Y594573D01*
X449923Y594116D01*
X448914Y593683D01*
X447895Y593276D01*
X446866Y592893D01*
X445828Y592536D01*
X444782Y592205D01*
X443728Y591899D01*
X442666Y591619D01*
X441598Y591366D01*
X440525Y591138D01*
X439446Y590937D01*
X438362Y590763D01*
X437274Y590615D01*
X436183Y590494D01*
X435090Y590400D01*
X433994Y590333D01*
X432898Y590292D01*
X431800Y590279D01*
X430702Y590292D01*
X429606Y590333D01*
X428510Y590400D01*
X427417Y590494D01*
X426326Y590615D01*
X425238Y590763D01*
X424154Y590937D01*
X423075Y591138D01*
X422002Y591366D01*
X420934Y591619D01*
X419872Y591899D01*
X418818Y592205D01*
X417772Y592536D01*
X416734Y592893D01*
X415705Y593276D01*
X414686Y593683D01*
X413677Y594116D01*
X412679Y594573D01*
X411693Y595054D01*
X410719Y595560D01*
X409757Y596089D01*
X408809Y596642D01*
X407874Y597217D01*
X406954Y597816D01*
X406049Y598437D01*
X405160Y599080D01*
X404286Y599744D01*
X403429Y600430D01*
X402589Y601137D01*
X401767Y601864D01*
X400963Y602611D01*
X400177Y603377D01*
X399411Y604163D01*
X398664Y604967D01*
X397937Y605789D01*
X397230Y606629D01*
X396544Y607486D01*
X395880Y608360D01*
X395237Y609249D01*
X394616Y610154D01*
X394017Y611074D01*
X393442Y612009D01*
X392889Y612957D01*
X392360Y613919D01*
X391854Y614893D01*
X391373Y615879D01*
X390916Y616877D01*
X390483Y617886D01*
X390076Y618905D01*
X389693Y619934D01*
X389336Y620972D01*
X389005Y622018D01*
X388699Y623072D01*
X388419Y624134D01*
X388166Y625202D01*
X387938Y626275D01*
X387737Y627354D01*
X387563Y628438D01*
X387415Y629526D01*
X387294Y630617D01*
X387200Y631710D01*
X387133Y632806D01*
X387092Y633902D01*
X387079Y635000D01*
D13*
X400558Y654558D02*
X400558Y666242D01*
X400558Y654558D02*
X405751Y654558D01*
X416552Y663321D02*
X416550Y663428D01*
X416544Y663534D01*
X416534Y663640D01*
X416521Y663746D01*
X416503Y663852D01*
X416482Y663956D01*
X416457Y664060D01*
X416428Y664163D01*
X416396Y664264D01*
X416359Y664364D01*
X416319Y664463D01*
X416276Y664561D01*
X416229Y664657D01*
X416178Y664751D01*
X416124Y664843D01*
X416067Y664933D01*
X416007Y665021D01*
X415943Y665106D01*
X415876Y665189D01*
X415806Y665270D01*
X415734Y665348D01*
X415658Y665424D01*
X415580Y665496D01*
X415499Y665566D01*
X415416Y665633D01*
X415331Y665697D01*
X415243Y665757D01*
X415153Y665814D01*
X415061Y665868D01*
X414967Y665919D01*
X414871Y665966D01*
X414773Y666009D01*
X414674Y666049D01*
X414574Y666086D01*
X414473Y666118D01*
X414370Y666147D01*
X414266Y666172D01*
X414162Y666193D01*
X414056Y666211D01*
X413950Y666224D01*
X413844Y666234D01*
X413738Y666240D01*
X413631Y666242D01*
X413510Y666240D01*
X413389Y666234D01*
X413269Y666224D01*
X413148Y666211D01*
X413029Y666193D01*
X412909Y666172D01*
X412791Y666147D01*
X412674Y666118D01*
X412557Y666085D01*
X412442Y666049D01*
X412328Y666008D01*
X412215Y665965D01*
X412103Y665917D01*
X411994Y665866D01*
X411886Y665811D01*
X411779Y665753D01*
X411675Y665692D01*
X411573Y665627D01*
X411473Y665559D01*
X411375Y665488D01*
X411279Y665414D01*
X411186Y665337D01*
X411096Y665256D01*
X411008Y665173D01*
X410923Y665087D01*
X410840Y664998D01*
X410761Y664907D01*
X410684Y664813D01*
X410611Y664717D01*
X410541Y664619D01*
X410474Y664518D01*
X410410Y664415D01*
X410350Y664310D01*
X410293Y664203D01*
X410239Y664095D01*
X410189Y663985D01*
X410143Y663873D01*
X410100Y663760D01*
X410061Y663645D01*
X415578Y661049D02*
X415657Y661126D01*
X415733Y661207D01*
X415806Y661290D01*
X415876Y661375D01*
X415943Y661463D01*
X416007Y661553D01*
X416067Y661645D01*
X416124Y661740D01*
X416178Y661836D01*
X416229Y661934D01*
X416276Y662034D01*
X416320Y662136D01*
X416360Y662239D01*
X416396Y662343D01*
X416428Y662449D01*
X416457Y662555D01*
X416482Y662663D01*
X416504Y662771D01*
X416521Y662881D01*
X416535Y662990D01*
X416544Y663100D01*
X416550Y663211D01*
X416552Y663321D01*
X415578Y661049D02*
X410060Y654558D01*
X416552Y654558D01*
D16*
X94725Y869225D03*
X108475Y869225D03*
D17*
X101600Y865350D03*
D13*
X88392Y838708D02*
X76708Y838708D01*
X88392Y838708D02*
X88392Y843901D01*
X88392Y848614D02*
X88392Y853807D01*
X88392Y848614D02*
X76708Y848614D01*
X76708Y853807D01*
X81901Y852509D02*
X81901Y848614D01*
X76708Y858497D02*
X88392Y858497D01*
X76708Y858497D02*
X76708Y861743D01*
X76710Y861856D01*
X76716Y861969D01*
X76726Y862082D01*
X76740Y862195D01*
X76757Y862307D01*
X76779Y862418D01*
X76804Y862528D01*
X76834Y862638D01*
X76867Y862746D01*
X76904Y862853D01*
X76944Y862959D01*
X76989Y863063D01*
X77037Y863166D01*
X77088Y863267D01*
X77143Y863366D01*
X77201Y863463D01*
X77263Y863558D01*
X77328Y863651D01*
X77396Y863741D01*
X77467Y863829D01*
X77542Y863915D01*
X77619Y863998D01*
X77699Y864078D01*
X77782Y864155D01*
X77868Y864230D01*
X77956Y864301D01*
X78046Y864369D01*
X78139Y864434D01*
X78234Y864496D01*
X78331Y864554D01*
X78430Y864609D01*
X78531Y864660D01*
X78634Y864708D01*
X78738Y864753D01*
X78844Y864793D01*
X78951Y864830D01*
X79059Y864863D01*
X79169Y864893D01*
X79279Y864918D01*
X79390Y864940D01*
X79502Y864957D01*
X79615Y864971D01*
X79728Y864981D01*
X79841Y864987D01*
X79954Y864989D01*
X85146Y864989D01*
X85259Y864987D01*
X85372Y864981D01*
X85485Y864971D01*
X85598Y864957D01*
X85710Y864940D01*
X85821Y864918D01*
X85931Y864893D01*
X86041Y864863D01*
X86149Y864830D01*
X86256Y864793D01*
X86362Y864753D01*
X86466Y864708D01*
X86569Y864660D01*
X86670Y864609D01*
X86769Y864554D01*
X86866Y864496D01*
X86961Y864434D01*
X87054Y864369D01*
X87144Y864301D01*
X87232Y864230D01*
X87318Y864155D01*
X87401Y864078D01*
X87481Y863998D01*
X87558Y863915D01*
X87633Y863829D01*
X87704Y863741D01*
X87772Y863651D01*
X87837Y863558D01*
X87899Y863463D01*
X87957Y863366D01*
X88012Y863267D01*
X88063Y863166D01*
X88111Y863063D01*
X88156Y862959D01*
X88196Y862853D01*
X88233Y862746D01*
X88266Y862638D01*
X88296Y862528D01*
X88321Y862418D01*
X88343Y862307D01*
X88360Y862195D01*
X88374Y862082D01*
X88384Y861969D01*
X88390Y861856D01*
X88392Y861743D01*
X88392Y858497D01*
X79304Y870308D02*
X76708Y873554D01*
X88392Y873554D01*
X88392Y876799D02*
X88392Y870308D01*
D18*
X237900Y787540D02*
X237900Y685660D01*
D19*
X230378Y770636D03*
X230378Y753618D03*
X230378Y736600D03*
X230378Y719582D03*
X230378Y702564D03*
D13*
X211328Y792988D02*
X211328Y804672D01*
X211328Y792988D02*
X216521Y792988D01*
X221324Y792988D02*
X221324Y804672D01*
X225219Y798181D01*
X229114Y804672D01*
X229114Y792988D01*
X238117Y804672D02*
X238224Y804670D01*
X238330Y804664D01*
X238436Y804654D01*
X238542Y804641D01*
X238648Y804623D01*
X238752Y804602D01*
X238856Y804577D01*
X238959Y804548D01*
X239060Y804516D01*
X239160Y804479D01*
X239259Y804439D01*
X239357Y804396D01*
X239453Y804349D01*
X239547Y804298D01*
X239639Y804244D01*
X239729Y804187D01*
X239817Y804127D01*
X239902Y804063D01*
X239985Y803996D01*
X240066Y803926D01*
X240144Y803854D01*
X240220Y803778D01*
X240292Y803700D01*
X240362Y803619D01*
X240429Y803536D01*
X240493Y803451D01*
X240553Y803363D01*
X240610Y803273D01*
X240664Y803181D01*
X240715Y803087D01*
X240762Y802991D01*
X240805Y802893D01*
X240845Y802794D01*
X240882Y802694D01*
X240914Y802593D01*
X240943Y802490D01*
X240968Y802386D01*
X240989Y802282D01*
X241007Y802176D01*
X241020Y802070D01*
X241030Y801964D01*
X241036Y801858D01*
X241038Y801751D01*
X238117Y804672D02*
X237996Y804670D01*
X237875Y804664D01*
X237755Y804654D01*
X237634Y804641D01*
X237515Y804623D01*
X237395Y804602D01*
X237277Y804577D01*
X237160Y804548D01*
X237043Y804515D01*
X236928Y804479D01*
X236814Y804438D01*
X236701Y804395D01*
X236589Y804347D01*
X236480Y804296D01*
X236372Y804241D01*
X236265Y804183D01*
X236161Y804122D01*
X236059Y804057D01*
X235959Y803989D01*
X235861Y803918D01*
X235765Y803844D01*
X235672Y803767D01*
X235582Y803686D01*
X235494Y803603D01*
X235409Y803517D01*
X235326Y803428D01*
X235247Y803337D01*
X235170Y803243D01*
X235097Y803147D01*
X235027Y803049D01*
X234960Y802948D01*
X234896Y802845D01*
X234836Y802740D01*
X234779Y802633D01*
X234725Y802525D01*
X234675Y802415D01*
X234629Y802303D01*
X234586Y802190D01*
X234547Y802075D01*
X240064Y799479D02*
X240143Y799556D01*
X240219Y799637D01*
X240292Y799720D01*
X240362Y799805D01*
X240429Y799893D01*
X240493Y799983D01*
X240553Y800075D01*
X240610Y800170D01*
X240664Y800266D01*
X240715Y800364D01*
X240762Y800464D01*
X240806Y800566D01*
X240846Y800669D01*
X240882Y800773D01*
X240914Y800879D01*
X240943Y800985D01*
X240968Y801093D01*
X240990Y801201D01*
X241007Y801311D01*
X241021Y801420D01*
X241030Y801530D01*
X241036Y801641D01*
X241038Y801751D01*
X240064Y799479D02*
X234546Y792988D01*
X241038Y792988D01*
X245976Y792988D02*
X249871Y792988D01*
X249970Y792990D01*
X250070Y792996D01*
X250169Y793005D01*
X250267Y793018D01*
X250365Y793035D01*
X250463Y793056D01*
X250559Y793081D01*
X250654Y793109D01*
X250748Y793141D01*
X250841Y793176D01*
X250933Y793215D01*
X251023Y793258D01*
X251111Y793303D01*
X251198Y793353D01*
X251282Y793405D01*
X251365Y793461D01*
X251445Y793519D01*
X251523Y793581D01*
X251598Y793646D01*
X251671Y793714D01*
X251741Y793784D01*
X251809Y793857D01*
X251874Y793932D01*
X251936Y794010D01*
X251994Y794090D01*
X252050Y794173D01*
X252102Y794257D01*
X252152Y794344D01*
X252197Y794432D01*
X252240Y794522D01*
X252279Y794614D01*
X252314Y794707D01*
X252346Y794801D01*
X252374Y794896D01*
X252399Y794992D01*
X252420Y795090D01*
X252437Y795188D01*
X252450Y795286D01*
X252459Y795385D01*
X252465Y795485D01*
X252467Y795584D01*
X252467Y796883D01*
X252465Y796982D01*
X252459Y797082D01*
X252450Y797181D01*
X252437Y797279D01*
X252420Y797377D01*
X252399Y797475D01*
X252374Y797571D01*
X252346Y797666D01*
X252314Y797760D01*
X252279Y797853D01*
X252240Y797945D01*
X252197Y798035D01*
X252152Y798123D01*
X252102Y798210D01*
X252050Y798294D01*
X251994Y798377D01*
X251936Y798457D01*
X251874Y798535D01*
X251809Y798610D01*
X251741Y798683D01*
X251671Y798753D01*
X251598Y798821D01*
X251523Y798886D01*
X251445Y798948D01*
X251365Y799006D01*
X251282Y799062D01*
X251198Y799114D01*
X251111Y799164D01*
X251023Y799209D01*
X250933Y799252D01*
X250841Y799291D01*
X250748Y799326D01*
X250654Y799358D01*
X250559Y799386D01*
X250463Y799411D01*
X250365Y799432D01*
X250267Y799449D01*
X250169Y799462D01*
X250070Y799471D01*
X249970Y799477D01*
X249871Y799479D01*
X245976Y799479D01*
X245976Y804672D01*
X252467Y804672D01*
X260003Y798181D02*
X263897Y798181D01*
X260003Y798181D02*
X259904Y798183D01*
X259804Y798189D01*
X259705Y798198D01*
X259607Y798211D01*
X259509Y798228D01*
X259411Y798249D01*
X259315Y798274D01*
X259220Y798302D01*
X259126Y798334D01*
X259033Y798369D01*
X258941Y798408D01*
X258851Y798451D01*
X258763Y798496D01*
X258676Y798546D01*
X258592Y798598D01*
X258509Y798654D01*
X258429Y798712D01*
X258351Y798774D01*
X258276Y798839D01*
X258203Y798907D01*
X258133Y798977D01*
X258065Y799050D01*
X258000Y799125D01*
X257938Y799203D01*
X257880Y799283D01*
X257824Y799366D01*
X257772Y799450D01*
X257722Y799537D01*
X257677Y799625D01*
X257634Y799715D01*
X257595Y799807D01*
X257560Y799900D01*
X257528Y799994D01*
X257500Y800089D01*
X257475Y800185D01*
X257454Y800283D01*
X257437Y800381D01*
X257424Y800479D01*
X257415Y800578D01*
X257409Y800678D01*
X257407Y800777D01*
X257406Y800777D02*
X257406Y801426D01*
X257408Y801539D01*
X257414Y801652D01*
X257424Y801765D01*
X257438Y801878D01*
X257455Y801990D01*
X257477Y802101D01*
X257502Y802211D01*
X257532Y802321D01*
X257565Y802429D01*
X257602Y802536D01*
X257642Y802642D01*
X257687Y802746D01*
X257735Y802849D01*
X257786Y802950D01*
X257841Y803049D01*
X257899Y803146D01*
X257961Y803241D01*
X258026Y803334D01*
X258094Y803424D01*
X258165Y803512D01*
X258240Y803598D01*
X258317Y803681D01*
X258397Y803761D01*
X258480Y803838D01*
X258566Y803913D01*
X258654Y803984D01*
X258744Y804052D01*
X258837Y804117D01*
X258932Y804179D01*
X259029Y804237D01*
X259128Y804292D01*
X259229Y804343D01*
X259332Y804391D01*
X259436Y804436D01*
X259542Y804476D01*
X259649Y804513D01*
X259757Y804546D01*
X259867Y804576D01*
X259977Y804601D01*
X260088Y804623D01*
X260200Y804640D01*
X260313Y804654D01*
X260426Y804664D01*
X260539Y804670D01*
X260652Y804672D01*
X260765Y804670D01*
X260878Y804664D01*
X260991Y804654D01*
X261104Y804640D01*
X261216Y804623D01*
X261327Y804601D01*
X261437Y804576D01*
X261547Y804546D01*
X261655Y804513D01*
X261762Y804476D01*
X261868Y804436D01*
X261972Y804391D01*
X262075Y804343D01*
X262176Y804292D01*
X262275Y804237D01*
X262372Y804179D01*
X262467Y804117D01*
X262560Y804052D01*
X262650Y803984D01*
X262738Y803913D01*
X262824Y803838D01*
X262907Y803761D01*
X262987Y803681D01*
X263064Y803598D01*
X263139Y803512D01*
X263210Y803424D01*
X263278Y803334D01*
X263343Y803241D01*
X263405Y803146D01*
X263463Y803049D01*
X263518Y802950D01*
X263569Y802849D01*
X263617Y802746D01*
X263662Y802642D01*
X263702Y802536D01*
X263739Y802429D01*
X263772Y802321D01*
X263802Y802211D01*
X263827Y802101D01*
X263849Y801990D01*
X263866Y801878D01*
X263880Y801765D01*
X263890Y801652D01*
X263896Y801539D01*
X263898Y801426D01*
X263897Y801426D02*
X263897Y798181D01*
X263898Y798181D02*
X263896Y798038D01*
X263890Y797895D01*
X263880Y797752D01*
X263866Y797610D01*
X263849Y797468D01*
X263827Y797326D01*
X263802Y797185D01*
X263772Y797045D01*
X263739Y796906D01*
X263702Y796768D01*
X263661Y796631D01*
X263617Y796495D01*
X263568Y796360D01*
X263516Y796227D01*
X263461Y796095D01*
X263401Y795965D01*
X263338Y795836D01*
X263272Y795709D01*
X263202Y795585D01*
X263129Y795462D01*
X263052Y795341D01*
X262972Y795222D01*
X262889Y795106D01*
X262803Y794991D01*
X262714Y794880D01*
X262621Y794770D01*
X262526Y794664D01*
X262427Y794560D01*
X262326Y794459D01*
X262222Y794360D01*
X262116Y794265D01*
X262006Y794172D01*
X261895Y794083D01*
X261780Y793997D01*
X261664Y793914D01*
X261545Y793834D01*
X261424Y793757D01*
X261301Y793684D01*
X261177Y793614D01*
X261050Y793548D01*
X260921Y793485D01*
X260791Y793425D01*
X260659Y793370D01*
X260526Y793318D01*
X260391Y793269D01*
X260255Y793225D01*
X260118Y793184D01*
X259980Y793147D01*
X259841Y793114D01*
X259701Y793084D01*
X259560Y793059D01*
X259418Y793037D01*
X259276Y793020D01*
X259134Y793006D01*
X258991Y792996D01*
X258848Y792990D01*
X258705Y792988D01*
X268836Y799479D02*
X272731Y799479D01*
X272830Y799477D01*
X272930Y799471D01*
X273029Y799462D01*
X273127Y799449D01*
X273225Y799432D01*
X273323Y799411D01*
X273419Y799386D01*
X273514Y799358D01*
X273608Y799326D01*
X273701Y799291D01*
X273793Y799252D01*
X273883Y799209D01*
X273971Y799164D01*
X274058Y799114D01*
X274142Y799062D01*
X274225Y799006D01*
X274305Y798948D01*
X274383Y798886D01*
X274458Y798821D01*
X274531Y798753D01*
X274601Y798683D01*
X274669Y798610D01*
X274734Y798535D01*
X274796Y798457D01*
X274854Y798377D01*
X274910Y798294D01*
X274962Y798210D01*
X275012Y798123D01*
X275057Y798035D01*
X275100Y797945D01*
X275139Y797853D01*
X275174Y797760D01*
X275206Y797666D01*
X275234Y797571D01*
X275259Y797475D01*
X275280Y797377D01*
X275297Y797279D01*
X275310Y797181D01*
X275319Y797082D01*
X275325Y796982D01*
X275327Y796883D01*
X275327Y796234D01*
X275328Y796234D02*
X275326Y796121D01*
X275320Y796008D01*
X275310Y795895D01*
X275296Y795782D01*
X275279Y795670D01*
X275257Y795559D01*
X275232Y795449D01*
X275202Y795339D01*
X275169Y795231D01*
X275132Y795124D01*
X275092Y795018D01*
X275047Y794914D01*
X274999Y794811D01*
X274948Y794710D01*
X274893Y794611D01*
X274835Y794514D01*
X274773Y794419D01*
X274708Y794326D01*
X274640Y794236D01*
X274569Y794148D01*
X274494Y794062D01*
X274417Y793979D01*
X274337Y793899D01*
X274254Y793822D01*
X274168Y793747D01*
X274080Y793676D01*
X273990Y793608D01*
X273897Y793543D01*
X273802Y793481D01*
X273705Y793423D01*
X273606Y793368D01*
X273505Y793317D01*
X273402Y793269D01*
X273298Y793224D01*
X273192Y793184D01*
X273085Y793147D01*
X272977Y793114D01*
X272867Y793084D01*
X272757Y793059D01*
X272646Y793037D01*
X272534Y793020D01*
X272421Y793006D01*
X272308Y792996D01*
X272195Y792990D01*
X272082Y792988D01*
X271969Y792990D01*
X271856Y792996D01*
X271743Y793006D01*
X271630Y793020D01*
X271518Y793037D01*
X271407Y793059D01*
X271297Y793084D01*
X271187Y793114D01*
X271079Y793147D01*
X270972Y793184D01*
X270866Y793224D01*
X270762Y793269D01*
X270659Y793317D01*
X270558Y793368D01*
X270459Y793423D01*
X270362Y793481D01*
X270267Y793543D01*
X270174Y793608D01*
X270084Y793676D01*
X269996Y793747D01*
X269910Y793822D01*
X269827Y793899D01*
X269747Y793979D01*
X269670Y794062D01*
X269595Y794148D01*
X269524Y794236D01*
X269456Y794326D01*
X269391Y794419D01*
X269329Y794514D01*
X269271Y794611D01*
X269216Y794710D01*
X269165Y794811D01*
X269117Y794914D01*
X269072Y795018D01*
X269032Y795124D01*
X268995Y795231D01*
X268962Y795339D01*
X268932Y795449D01*
X268907Y795559D01*
X268885Y795670D01*
X268868Y795782D01*
X268854Y795895D01*
X268844Y796008D01*
X268838Y796121D01*
X268836Y796234D01*
X268836Y799479D01*
X268838Y799622D01*
X268844Y799765D01*
X268854Y799908D01*
X268868Y800050D01*
X268885Y800192D01*
X268907Y800334D01*
X268932Y800475D01*
X268962Y800615D01*
X268995Y800754D01*
X269032Y800892D01*
X269073Y801029D01*
X269117Y801165D01*
X269166Y801300D01*
X269218Y801433D01*
X269273Y801565D01*
X269333Y801695D01*
X269396Y801824D01*
X269462Y801951D01*
X269532Y802075D01*
X269605Y802198D01*
X269682Y802319D01*
X269762Y802438D01*
X269845Y802554D01*
X269931Y802669D01*
X270020Y802780D01*
X270113Y802890D01*
X270208Y802996D01*
X270307Y803100D01*
X270408Y803201D01*
X270512Y803300D01*
X270618Y803395D01*
X270728Y803488D01*
X270839Y803577D01*
X270954Y803663D01*
X271070Y803746D01*
X271189Y803826D01*
X271310Y803903D01*
X271432Y803976D01*
X271557Y804046D01*
X271684Y804112D01*
X271813Y804175D01*
X271943Y804235D01*
X272075Y804290D01*
X272208Y804342D01*
X272343Y804391D01*
X272479Y804435D01*
X272616Y804476D01*
X272754Y804513D01*
X272893Y804546D01*
X273033Y804576D01*
X273174Y804601D01*
X273316Y804623D01*
X273458Y804640D01*
X273600Y804654D01*
X273743Y804664D01*
X273886Y804670D01*
X274029Y804672D01*
X283780Y792988D02*
X283879Y792990D01*
X283979Y792996D01*
X284078Y793005D01*
X284176Y793018D01*
X284274Y793035D01*
X284372Y793056D01*
X284468Y793081D01*
X284563Y793109D01*
X284657Y793141D01*
X284750Y793176D01*
X284842Y793215D01*
X284932Y793258D01*
X285020Y793303D01*
X285107Y793353D01*
X285191Y793405D01*
X285274Y793461D01*
X285354Y793519D01*
X285432Y793581D01*
X285507Y793646D01*
X285580Y793714D01*
X285650Y793784D01*
X285718Y793857D01*
X285783Y793932D01*
X285845Y794010D01*
X285903Y794090D01*
X285959Y794173D01*
X286011Y794257D01*
X286061Y794344D01*
X286106Y794432D01*
X286149Y794522D01*
X286188Y794614D01*
X286223Y794707D01*
X286255Y794801D01*
X286283Y794896D01*
X286308Y794992D01*
X286329Y795090D01*
X286346Y795188D01*
X286359Y795286D01*
X286368Y795385D01*
X286374Y795485D01*
X286376Y795584D01*
X283780Y792988D02*
X283636Y792990D01*
X283491Y792996D01*
X283347Y793005D01*
X283204Y793018D01*
X283060Y793035D01*
X282917Y793056D01*
X282775Y793081D01*
X282634Y793109D01*
X282493Y793141D01*
X282353Y793177D01*
X282214Y793216D01*
X282076Y793259D01*
X281940Y793306D01*
X281804Y793356D01*
X281670Y793410D01*
X281538Y793467D01*
X281407Y793528D01*
X281278Y793592D01*
X281150Y793660D01*
X281024Y793730D01*
X280900Y793805D01*
X280779Y793882D01*
X280659Y793963D01*
X280541Y794046D01*
X280426Y794133D01*
X280313Y794223D01*
X280202Y794316D01*
X280094Y794411D01*
X279988Y794510D01*
X279885Y794611D01*
X280210Y802076D02*
X280212Y802175D01*
X280218Y802275D01*
X280227Y802374D01*
X280240Y802472D01*
X280257Y802570D01*
X280278Y802668D01*
X280303Y802764D01*
X280331Y802859D01*
X280363Y802953D01*
X280398Y803046D01*
X280437Y803138D01*
X280480Y803228D01*
X280525Y803316D01*
X280575Y803403D01*
X280627Y803487D01*
X280683Y803570D01*
X280741Y803650D01*
X280803Y803728D01*
X280868Y803803D01*
X280936Y803876D01*
X281006Y803946D01*
X281079Y804014D01*
X281154Y804079D01*
X281232Y804141D01*
X281312Y804199D01*
X281395Y804255D01*
X281479Y804307D01*
X281566Y804357D01*
X281654Y804402D01*
X281744Y804445D01*
X281836Y804484D01*
X281929Y804519D01*
X282023Y804551D01*
X282118Y804579D01*
X282215Y804604D01*
X282312Y804625D01*
X282410Y804642D01*
X282508Y804655D01*
X282607Y804664D01*
X282707Y804670D01*
X282806Y804672D01*
X282942Y804670D01*
X283078Y804664D01*
X283214Y804655D01*
X283350Y804642D01*
X283485Y804624D01*
X283619Y804604D01*
X283753Y804579D01*
X283887Y804551D01*
X284019Y804518D01*
X284150Y804483D01*
X284281Y804443D01*
X284410Y804400D01*
X284538Y804354D01*
X284664Y804303D01*
X284790Y804250D01*
X284913Y804192D01*
X285035Y804132D01*
X285155Y804068D01*
X285274Y804000D01*
X285390Y803930D01*
X285504Y803856D01*
X285617Y803779D01*
X285727Y803698D01*
X281508Y799804D02*
X281422Y799857D01*
X281338Y799914D01*
X281256Y799973D01*
X281176Y800036D01*
X281099Y800102D01*
X281024Y800170D01*
X280952Y800242D01*
X280883Y800316D01*
X280817Y800393D01*
X280754Y800472D01*
X280694Y800554D01*
X280637Y800638D01*
X280583Y800724D01*
X280533Y800812D01*
X280486Y800902D01*
X280442Y800993D01*
X280403Y801087D01*
X280366Y801181D01*
X280334Y801277D01*
X280305Y801375D01*
X280280Y801473D01*
X280259Y801572D01*
X280241Y801672D01*
X280228Y801772D01*
X280218Y801873D01*
X280212Y801975D01*
X280210Y802076D01*
X285078Y797856D02*
X285164Y797803D01*
X285248Y797746D01*
X285330Y797687D01*
X285410Y797624D01*
X285487Y797558D01*
X285562Y797490D01*
X285634Y797418D01*
X285703Y797344D01*
X285769Y797267D01*
X285832Y797188D01*
X285892Y797106D01*
X285949Y797022D01*
X286003Y796936D01*
X286053Y796848D01*
X286100Y796758D01*
X286144Y796667D01*
X286183Y796573D01*
X286220Y796479D01*
X286252Y796383D01*
X286281Y796285D01*
X286306Y796187D01*
X286327Y796088D01*
X286345Y795988D01*
X286358Y795888D01*
X286368Y795787D01*
X286374Y795685D01*
X286376Y795584D01*
X285078Y797856D02*
X281508Y799804D01*
X291047Y797532D02*
X298836Y797532D01*
D18*
X538890Y819036D02*
X538890Y717156D01*
D19*
X531368Y802132D03*
X531368Y785114D03*
X531368Y768096D03*
X531368Y751078D03*
X531368Y734060D03*
D13*
X512318Y824484D02*
X512318Y836168D01*
X512318Y824484D02*
X517511Y824484D01*
X522314Y824484D02*
X522314Y836168D01*
X526209Y829677D01*
X530104Y836168D01*
X530104Y824484D01*
X539107Y836168D02*
X539214Y836166D01*
X539320Y836160D01*
X539426Y836150D01*
X539532Y836137D01*
X539638Y836119D01*
X539742Y836098D01*
X539846Y836073D01*
X539949Y836044D01*
X540050Y836012D01*
X540150Y835975D01*
X540249Y835935D01*
X540347Y835892D01*
X540443Y835845D01*
X540537Y835794D01*
X540629Y835740D01*
X540719Y835683D01*
X540807Y835623D01*
X540892Y835559D01*
X540975Y835492D01*
X541056Y835422D01*
X541134Y835350D01*
X541210Y835274D01*
X541282Y835196D01*
X541352Y835115D01*
X541419Y835032D01*
X541483Y834947D01*
X541543Y834859D01*
X541600Y834769D01*
X541654Y834677D01*
X541705Y834583D01*
X541752Y834487D01*
X541795Y834389D01*
X541835Y834290D01*
X541872Y834190D01*
X541904Y834089D01*
X541933Y833986D01*
X541958Y833882D01*
X541979Y833778D01*
X541997Y833672D01*
X542010Y833566D01*
X542020Y833460D01*
X542026Y833354D01*
X542028Y833247D01*
X539107Y836168D02*
X538986Y836166D01*
X538865Y836160D01*
X538745Y836150D01*
X538624Y836137D01*
X538505Y836119D01*
X538385Y836098D01*
X538267Y836073D01*
X538150Y836044D01*
X538033Y836011D01*
X537918Y835975D01*
X537804Y835934D01*
X537691Y835891D01*
X537579Y835843D01*
X537470Y835792D01*
X537362Y835737D01*
X537255Y835679D01*
X537151Y835618D01*
X537049Y835553D01*
X536949Y835485D01*
X536851Y835414D01*
X536755Y835340D01*
X536662Y835263D01*
X536572Y835182D01*
X536484Y835099D01*
X536399Y835013D01*
X536316Y834924D01*
X536237Y834833D01*
X536160Y834739D01*
X536087Y834643D01*
X536017Y834545D01*
X535950Y834444D01*
X535886Y834341D01*
X535826Y834236D01*
X535769Y834129D01*
X535715Y834021D01*
X535665Y833911D01*
X535619Y833799D01*
X535576Y833686D01*
X535537Y833571D01*
X541054Y830975D02*
X541133Y831052D01*
X541209Y831133D01*
X541282Y831216D01*
X541352Y831301D01*
X541419Y831389D01*
X541483Y831479D01*
X541543Y831571D01*
X541600Y831666D01*
X541654Y831762D01*
X541705Y831860D01*
X541752Y831960D01*
X541796Y832062D01*
X541836Y832165D01*
X541872Y832269D01*
X541904Y832375D01*
X541933Y832481D01*
X541958Y832589D01*
X541980Y832697D01*
X541997Y832807D01*
X542011Y832916D01*
X542020Y833026D01*
X542026Y833137D01*
X542028Y833247D01*
X541054Y830975D02*
X535536Y824484D01*
X542028Y824484D01*
X546966Y824484D02*
X550861Y824484D01*
X550960Y824486D01*
X551060Y824492D01*
X551159Y824501D01*
X551257Y824514D01*
X551355Y824531D01*
X551453Y824552D01*
X551549Y824577D01*
X551644Y824605D01*
X551738Y824637D01*
X551831Y824672D01*
X551923Y824711D01*
X552013Y824754D01*
X552101Y824799D01*
X552188Y824849D01*
X552272Y824901D01*
X552355Y824957D01*
X552435Y825015D01*
X552513Y825077D01*
X552588Y825142D01*
X552661Y825210D01*
X552731Y825280D01*
X552799Y825353D01*
X552864Y825428D01*
X552926Y825506D01*
X552984Y825586D01*
X553040Y825669D01*
X553092Y825753D01*
X553142Y825840D01*
X553187Y825928D01*
X553230Y826018D01*
X553269Y826110D01*
X553304Y826203D01*
X553336Y826297D01*
X553364Y826392D01*
X553389Y826488D01*
X553410Y826586D01*
X553427Y826684D01*
X553440Y826782D01*
X553449Y826881D01*
X553455Y826981D01*
X553457Y827080D01*
X553457Y828379D01*
X553455Y828478D01*
X553449Y828578D01*
X553440Y828677D01*
X553427Y828775D01*
X553410Y828873D01*
X553389Y828971D01*
X553364Y829067D01*
X553336Y829162D01*
X553304Y829256D01*
X553269Y829349D01*
X553230Y829441D01*
X553187Y829531D01*
X553142Y829619D01*
X553092Y829706D01*
X553040Y829790D01*
X552984Y829873D01*
X552926Y829953D01*
X552864Y830031D01*
X552799Y830106D01*
X552731Y830179D01*
X552661Y830249D01*
X552588Y830317D01*
X552513Y830382D01*
X552435Y830444D01*
X552355Y830502D01*
X552272Y830558D01*
X552188Y830610D01*
X552101Y830660D01*
X552013Y830705D01*
X551923Y830748D01*
X551831Y830787D01*
X551738Y830822D01*
X551644Y830854D01*
X551549Y830882D01*
X551453Y830907D01*
X551355Y830928D01*
X551257Y830945D01*
X551159Y830958D01*
X551060Y830967D01*
X550960Y830973D01*
X550861Y830975D01*
X546966Y830975D01*
X546966Y836168D01*
X553457Y836168D01*
X560993Y829677D02*
X564887Y829677D01*
X560993Y829677D02*
X560894Y829679D01*
X560794Y829685D01*
X560695Y829694D01*
X560597Y829707D01*
X560499Y829724D01*
X560401Y829745D01*
X560305Y829770D01*
X560210Y829798D01*
X560116Y829830D01*
X560023Y829865D01*
X559931Y829904D01*
X559841Y829947D01*
X559753Y829992D01*
X559666Y830042D01*
X559582Y830094D01*
X559499Y830150D01*
X559419Y830208D01*
X559341Y830270D01*
X559266Y830335D01*
X559193Y830403D01*
X559123Y830473D01*
X559055Y830546D01*
X558990Y830621D01*
X558928Y830699D01*
X558870Y830779D01*
X558814Y830862D01*
X558762Y830946D01*
X558712Y831033D01*
X558667Y831121D01*
X558624Y831211D01*
X558585Y831303D01*
X558550Y831396D01*
X558518Y831490D01*
X558490Y831585D01*
X558465Y831681D01*
X558444Y831779D01*
X558427Y831877D01*
X558414Y831975D01*
X558405Y832074D01*
X558399Y832174D01*
X558397Y832273D01*
X558396Y832273D02*
X558396Y832922D01*
X558398Y833035D01*
X558404Y833148D01*
X558414Y833261D01*
X558428Y833374D01*
X558445Y833486D01*
X558467Y833597D01*
X558492Y833707D01*
X558522Y833817D01*
X558555Y833925D01*
X558592Y834032D01*
X558632Y834138D01*
X558677Y834242D01*
X558725Y834345D01*
X558776Y834446D01*
X558831Y834545D01*
X558889Y834642D01*
X558951Y834737D01*
X559016Y834830D01*
X559084Y834920D01*
X559155Y835008D01*
X559230Y835094D01*
X559307Y835177D01*
X559387Y835257D01*
X559470Y835334D01*
X559556Y835409D01*
X559644Y835480D01*
X559734Y835548D01*
X559827Y835613D01*
X559922Y835675D01*
X560019Y835733D01*
X560118Y835788D01*
X560219Y835839D01*
X560322Y835887D01*
X560426Y835932D01*
X560532Y835972D01*
X560639Y836009D01*
X560747Y836042D01*
X560857Y836072D01*
X560967Y836097D01*
X561078Y836119D01*
X561190Y836136D01*
X561303Y836150D01*
X561416Y836160D01*
X561529Y836166D01*
X561642Y836168D01*
X561755Y836166D01*
X561868Y836160D01*
X561981Y836150D01*
X562094Y836136D01*
X562206Y836119D01*
X562317Y836097D01*
X562427Y836072D01*
X562537Y836042D01*
X562645Y836009D01*
X562752Y835972D01*
X562858Y835932D01*
X562962Y835887D01*
X563065Y835839D01*
X563166Y835788D01*
X563265Y835733D01*
X563362Y835675D01*
X563457Y835613D01*
X563550Y835548D01*
X563640Y835480D01*
X563728Y835409D01*
X563814Y835334D01*
X563897Y835257D01*
X563977Y835177D01*
X564054Y835094D01*
X564129Y835008D01*
X564200Y834920D01*
X564268Y834830D01*
X564333Y834737D01*
X564395Y834642D01*
X564453Y834545D01*
X564508Y834446D01*
X564559Y834345D01*
X564607Y834242D01*
X564652Y834138D01*
X564692Y834032D01*
X564729Y833925D01*
X564762Y833817D01*
X564792Y833707D01*
X564817Y833597D01*
X564839Y833486D01*
X564856Y833374D01*
X564870Y833261D01*
X564880Y833148D01*
X564886Y833035D01*
X564888Y832922D01*
X564887Y832922D02*
X564887Y829677D01*
X564888Y829677D02*
X564886Y829534D01*
X564880Y829391D01*
X564870Y829248D01*
X564856Y829106D01*
X564839Y828964D01*
X564817Y828822D01*
X564792Y828681D01*
X564762Y828541D01*
X564729Y828402D01*
X564692Y828264D01*
X564651Y828127D01*
X564607Y827991D01*
X564558Y827856D01*
X564506Y827723D01*
X564451Y827591D01*
X564391Y827461D01*
X564328Y827332D01*
X564262Y827205D01*
X564192Y827081D01*
X564119Y826958D01*
X564042Y826837D01*
X563962Y826718D01*
X563879Y826602D01*
X563793Y826487D01*
X563704Y826376D01*
X563611Y826266D01*
X563516Y826160D01*
X563417Y826056D01*
X563316Y825955D01*
X563212Y825856D01*
X563106Y825761D01*
X562996Y825668D01*
X562885Y825579D01*
X562770Y825493D01*
X562654Y825410D01*
X562535Y825330D01*
X562414Y825253D01*
X562292Y825180D01*
X562167Y825110D01*
X562040Y825044D01*
X561911Y824981D01*
X561781Y824921D01*
X561649Y824866D01*
X561516Y824814D01*
X561381Y824765D01*
X561245Y824721D01*
X561108Y824680D01*
X560970Y824643D01*
X560831Y824610D01*
X560691Y824580D01*
X560550Y824555D01*
X560408Y824533D01*
X560266Y824516D01*
X560124Y824502D01*
X559981Y824492D01*
X559838Y824486D01*
X559695Y824484D01*
X569826Y830975D02*
X573721Y830975D01*
X573820Y830973D01*
X573920Y830967D01*
X574019Y830958D01*
X574117Y830945D01*
X574215Y830928D01*
X574313Y830907D01*
X574409Y830882D01*
X574504Y830854D01*
X574598Y830822D01*
X574691Y830787D01*
X574783Y830748D01*
X574873Y830705D01*
X574961Y830660D01*
X575048Y830610D01*
X575132Y830558D01*
X575215Y830502D01*
X575295Y830444D01*
X575373Y830382D01*
X575448Y830317D01*
X575521Y830249D01*
X575591Y830179D01*
X575659Y830106D01*
X575724Y830031D01*
X575786Y829953D01*
X575844Y829873D01*
X575900Y829790D01*
X575952Y829706D01*
X576002Y829619D01*
X576047Y829531D01*
X576090Y829441D01*
X576129Y829349D01*
X576164Y829256D01*
X576196Y829162D01*
X576224Y829067D01*
X576249Y828971D01*
X576270Y828873D01*
X576287Y828775D01*
X576300Y828677D01*
X576309Y828578D01*
X576315Y828478D01*
X576317Y828379D01*
X576317Y827730D01*
X576318Y827730D02*
X576316Y827617D01*
X576310Y827504D01*
X576300Y827391D01*
X576286Y827278D01*
X576269Y827166D01*
X576247Y827055D01*
X576222Y826945D01*
X576192Y826835D01*
X576159Y826727D01*
X576122Y826620D01*
X576082Y826514D01*
X576037Y826410D01*
X575989Y826307D01*
X575938Y826206D01*
X575883Y826107D01*
X575825Y826010D01*
X575763Y825915D01*
X575698Y825822D01*
X575630Y825732D01*
X575559Y825644D01*
X575484Y825558D01*
X575407Y825475D01*
X575327Y825395D01*
X575244Y825318D01*
X575158Y825243D01*
X575070Y825172D01*
X574980Y825104D01*
X574887Y825039D01*
X574792Y824977D01*
X574695Y824919D01*
X574596Y824864D01*
X574495Y824813D01*
X574392Y824765D01*
X574288Y824720D01*
X574182Y824680D01*
X574075Y824643D01*
X573967Y824610D01*
X573857Y824580D01*
X573747Y824555D01*
X573636Y824533D01*
X573524Y824516D01*
X573411Y824502D01*
X573298Y824492D01*
X573185Y824486D01*
X573072Y824484D01*
X572959Y824486D01*
X572846Y824492D01*
X572733Y824502D01*
X572620Y824516D01*
X572508Y824533D01*
X572397Y824555D01*
X572287Y824580D01*
X572177Y824610D01*
X572069Y824643D01*
X571962Y824680D01*
X571856Y824720D01*
X571752Y824765D01*
X571649Y824813D01*
X571548Y824864D01*
X571449Y824919D01*
X571352Y824977D01*
X571257Y825039D01*
X571164Y825104D01*
X571074Y825172D01*
X570986Y825243D01*
X570900Y825318D01*
X570817Y825395D01*
X570737Y825475D01*
X570660Y825558D01*
X570585Y825644D01*
X570514Y825732D01*
X570446Y825822D01*
X570381Y825915D01*
X570319Y826010D01*
X570261Y826107D01*
X570206Y826206D01*
X570155Y826307D01*
X570107Y826410D01*
X570062Y826514D01*
X570022Y826620D01*
X569985Y826727D01*
X569952Y826835D01*
X569922Y826945D01*
X569897Y827055D01*
X569875Y827166D01*
X569858Y827278D01*
X569844Y827391D01*
X569834Y827504D01*
X569828Y827617D01*
X569826Y827730D01*
X569826Y830975D01*
X569828Y831118D01*
X569834Y831261D01*
X569844Y831404D01*
X569858Y831546D01*
X569875Y831688D01*
X569897Y831830D01*
X569922Y831971D01*
X569952Y832111D01*
X569985Y832250D01*
X570022Y832388D01*
X570063Y832525D01*
X570107Y832661D01*
X570156Y832796D01*
X570208Y832929D01*
X570263Y833061D01*
X570323Y833191D01*
X570386Y833320D01*
X570452Y833447D01*
X570522Y833571D01*
X570595Y833694D01*
X570672Y833815D01*
X570752Y833934D01*
X570835Y834050D01*
X570921Y834165D01*
X571010Y834276D01*
X571103Y834386D01*
X571198Y834492D01*
X571297Y834596D01*
X571398Y834697D01*
X571502Y834796D01*
X571608Y834891D01*
X571718Y834984D01*
X571829Y835073D01*
X571944Y835159D01*
X572060Y835242D01*
X572179Y835322D01*
X572300Y835399D01*
X572422Y835472D01*
X572547Y835542D01*
X572674Y835608D01*
X572803Y835671D01*
X572933Y835731D01*
X573065Y835786D01*
X573198Y835838D01*
X573333Y835887D01*
X573469Y835931D01*
X573606Y835972D01*
X573744Y836009D01*
X573883Y836042D01*
X574023Y836072D01*
X574164Y836097D01*
X574306Y836119D01*
X574448Y836136D01*
X574590Y836150D01*
X574733Y836160D01*
X574876Y836166D01*
X575019Y836168D01*
X584770Y824484D02*
X584869Y824486D01*
X584969Y824492D01*
X585068Y824501D01*
X585166Y824514D01*
X585264Y824531D01*
X585362Y824552D01*
X585458Y824577D01*
X585553Y824605D01*
X585647Y824637D01*
X585740Y824672D01*
X585832Y824711D01*
X585922Y824754D01*
X586010Y824799D01*
X586097Y824849D01*
X586181Y824901D01*
X586264Y824957D01*
X586344Y825015D01*
X586422Y825077D01*
X586497Y825142D01*
X586570Y825210D01*
X586640Y825280D01*
X586708Y825353D01*
X586773Y825428D01*
X586835Y825506D01*
X586893Y825586D01*
X586949Y825669D01*
X587001Y825753D01*
X587051Y825840D01*
X587096Y825928D01*
X587139Y826018D01*
X587178Y826110D01*
X587213Y826203D01*
X587245Y826297D01*
X587273Y826392D01*
X587298Y826488D01*
X587319Y826586D01*
X587336Y826684D01*
X587349Y826782D01*
X587358Y826881D01*
X587364Y826981D01*
X587366Y827080D01*
X584770Y824484D02*
X584626Y824486D01*
X584481Y824492D01*
X584337Y824501D01*
X584194Y824514D01*
X584050Y824531D01*
X583907Y824552D01*
X583765Y824577D01*
X583624Y824605D01*
X583483Y824637D01*
X583343Y824673D01*
X583204Y824712D01*
X583066Y824755D01*
X582930Y824802D01*
X582794Y824852D01*
X582660Y824906D01*
X582528Y824963D01*
X582397Y825024D01*
X582268Y825088D01*
X582140Y825156D01*
X582014Y825226D01*
X581890Y825301D01*
X581769Y825378D01*
X581649Y825459D01*
X581531Y825542D01*
X581416Y825629D01*
X581303Y825719D01*
X581192Y825812D01*
X581084Y825907D01*
X580978Y826006D01*
X580875Y826107D01*
X581200Y833572D02*
X581202Y833671D01*
X581208Y833771D01*
X581217Y833870D01*
X581230Y833968D01*
X581247Y834066D01*
X581268Y834164D01*
X581293Y834260D01*
X581321Y834355D01*
X581353Y834449D01*
X581388Y834542D01*
X581427Y834634D01*
X581470Y834724D01*
X581515Y834812D01*
X581565Y834899D01*
X581617Y834983D01*
X581673Y835066D01*
X581731Y835146D01*
X581793Y835224D01*
X581858Y835299D01*
X581926Y835372D01*
X581996Y835442D01*
X582069Y835510D01*
X582144Y835575D01*
X582222Y835637D01*
X582302Y835695D01*
X582385Y835751D01*
X582469Y835803D01*
X582556Y835853D01*
X582644Y835898D01*
X582734Y835941D01*
X582826Y835980D01*
X582919Y836015D01*
X583013Y836047D01*
X583108Y836075D01*
X583205Y836100D01*
X583302Y836121D01*
X583400Y836138D01*
X583498Y836151D01*
X583597Y836160D01*
X583697Y836166D01*
X583796Y836168D01*
X583932Y836166D01*
X584068Y836160D01*
X584204Y836151D01*
X584340Y836138D01*
X584475Y836120D01*
X584609Y836100D01*
X584743Y836075D01*
X584877Y836047D01*
X585009Y836014D01*
X585140Y835979D01*
X585271Y835939D01*
X585400Y835896D01*
X585528Y835850D01*
X585654Y835799D01*
X585780Y835746D01*
X585903Y835688D01*
X586025Y835628D01*
X586145Y835564D01*
X586264Y835496D01*
X586380Y835426D01*
X586494Y835352D01*
X586607Y835275D01*
X586717Y835194D01*
X582498Y831300D02*
X582412Y831353D01*
X582328Y831410D01*
X582246Y831469D01*
X582166Y831532D01*
X582089Y831598D01*
X582014Y831666D01*
X581942Y831738D01*
X581873Y831812D01*
X581807Y831889D01*
X581744Y831968D01*
X581684Y832050D01*
X581627Y832134D01*
X581573Y832220D01*
X581523Y832308D01*
X581476Y832398D01*
X581432Y832489D01*
X581393Y832583D01*
X581356Y832677D01*
X581324Y832773D01*
X581295Y832871D01*
X581270Y832969D01*
X581249Y833068D01*
X581231Y833168D01*
X581218Y833268D01*
X581208Y833369D01*
X581202Y833471D01*
X581200Y833572D01*
X586068Y829352D02*
X586154Y829299D01*
X586238Y829242D01*
X586320Y829183D01*
X586400Y829120D01*
X586477Y829054D01*
X586552Y828986D01*
X586624Y828914D01*
X586693Y828840D01*
X586759Y828763D01*
X586822Y828684D01*
X586882Y828602D01*
X586939Y828518D01*
X586993Y828432D01*
X587043Y828344D01*
X587090Y828254D01*
X587134Y828163D01*
X587173Y828069D01*
X587210Y827975D01*
X587242Y827879D01*
X587271Y827781D01*
X587296Y827683D01*
X587317Y827584D01*
X587335Y827484D01*
X587348Y827384D01*
X587358Y827283D01*
X587364Y827181D01*
X587366Y827080D01*
X586068Y829352D02*
X582498Y831300D01*
X592037Y829028D02*
X599826Y829028D01*
X604878Y833572D02*
X608124Y836168D01*
X608124Y824484D01*
X611369Y824484D02*
X604878Y824484D01*
X126492Y851408D02*
X114808Y851408D01*
X114808Y854654D01*
X114810Y854767D01*
X114816Y854880D01*
X114826Y854993D01*
X114840Y855106D01*
X114857Y855218D01*
X114879Y855329D01*
X114904Y855439D01*
X114934Y855549D01*
X114967Y855657D01*
X115004Y855764D01*
X115044Y855870D01*
X115089Y855974D01*
X115137Y856077D01*
X115188Y856178D01*
X115243Y856277D01*
X115301Y856374D01*
X115363Y856469D01*
X115428Y856562D01*
X115496Y856652D01*
X115567Y856740D01*
X115642Y856826D01*
X115719Y856909D01*
X115799Y856989D01*
X115882Y857066D01*
X115968Y857141D01*
X116056Y857212D01*
X116146Y857280D01*
X116239Y857345D01*
X116334Y857407D01*
X116431Y857465D01*
X116530Y857520D01*
X116631Y857571D01*
X116734Y857619D01*
X116838Y857664D01*
X116944Y857704D01*
X117051Y857741D01*
X117159Y857774D01*
X117269Y857804D01*
X117379Y857829D01*
X117490Y857851D01*
X117602Y857868D01*
X117715Y857882D01*
X117828Y857892D01*
X117941Y857898D01*
X118054Y857900D01*
X118167Y857898D01*
X118280Y857892D01*
X118393Y857882D01*
X118506Y857868D01*
X118618Y857851D01*
X118729Y857829D01*
X118839Y857804D01*
X118949Y857774D01*
X119057Y857741D01*
X119164Y857704D01*
X119270Y857664D01*
X119374Y857619D01*
X119477Y857571D01*
X119578Y857520D01*
X119677Y857465D01*
X119774Y857407D01*
X119869Y857345D01*
X119962Y857280D01*
X120052Y857212D01*
X120140Y857141D01*
X120226Y857066D01*
X120309Y856989D01*
X120389Y856909D01*
X120466Y856826D01*
X120541Y856740D01*
X120612Y856652D01*
X120680Y856562D01*
X120745Y856469D01*
X120807Y856374D01*
X120865Y856277D01*
X120920Y856178D01*
X120971Y856077D01*
X121019Y855974D01*
X121064Y855870D01*
X121104Y855764D01*
X121141Y855657D01*
X121174Y855549D01*
X121204Y855439D01*
X121229Y855329D01*
X121251Y855218D01*
X121268Y855106D01*
X121282Y854993D01*
X121292Y854880D01*
X121298Y854767D01*
X121300Y854654D01*
X121299Y854654D02*
X121299Y851408D01*
X121299Y855303D02*
X126492Y857899D01*
X117404Y862764D02*
X114808Y866010D01*
X126492Y866010D01*
X126492Y869255D02*
X126492Y862764D01*
D11*
X55931Y947364D02*
X55931Y950849D01*
X55931Y947364D02*
X55933Y947293D01*
X55939Y947221D01*
X55948Y947151D01*
X55961Y947081D01*
X55978Y947011D01*
X55999Y946943D01*
X56023Y946876D01*
X56051Y946810D01*
X56082Y946746D01*
X56117Y946683D01*
X56155Y946623D01*
X56196Y946564D01*
X56240Y946508D01*
X56287Y946454D01*
X56336Y946403D01*
X56389Y946355D01*
X56444Y946309D01*
X56501Y946267D01*
X56561Y946227D01*
X56622Y946191D01*
X56686Y946158D01*
X56751Y946129D01*
X56817Y946103D01*
X56885Y946080D01*
X56954Y946061D01*
X57024Y946046D01*
X57094Y946035D01*
X57165Y946027D01*
X57236Y946023D01*
X57308Y946023D01*
X57379Y946027D01*
X57450Y946035D01*
X57520Y946046D01*
X57590Y946061D01*
X57659Y946080D01*
X57727Y946103D01*
X57793Y946129D01*
X57858Y946158D01*
X57922Y946191D01*
X57983Y946227D01*
X58043Y946267D01*
X58100Y946309D01*
X58155Y946355D01*
X58208Y946403D01*
X58257Y946454D01*
X58304Y946508D01*
X58348Y946564D01*
X58389Y946623D01*
X58427Y946683D01*
X58462Y946746D01*
X58493Y946810D01*
X58521Y946876D01*
X58545Y946943D01*
X58566Y947011D01*
X58583Y947081D01*
X58596Y947151D01*
X58605Y947221D01*
X58611Y947293D01*
X58613Y947364D01*
X58613Y950849D01*
X62575Y950849D02*
X62575Y946023D01*
X62575Y948436D02*
X61905Y948838D01*
X61858Y948868D01*
X61814Y948902D01*
X61772Y948938D01*
X61733Y948977D01*
X61696Y949018D01*
X61663Y949063D01*
X61633Y949109D01*
X61605Y949157D01*
X61582Y949207D01*
X61562Y949259D01*
X61545Y949312D01*
X61532Y949365D01*
X61523Y949420D01*
X61518Y949475D01*
X61516Y949531D01*
X61518Y949586D01*
X61524Y949641D01*
X61534Y949695D01*
X61548Y949749D01*
X61565Y949802D01*
X61586Y949853D01*
X61611Y949903D01*
X61638Y949951D01*
X61669Y949996D01*
X61704Y950040D01*
X61741Y950081D01*
X61780Y950120D01*
X61823Y950155D01*
X61868Y950188D01*
X61914Y950218D01*
X61963Y950244D01*
X62014Y950266D01*
X62066Y950286D01*
X62119Y950301D01*
X62173Y950313D01*
X62173Y950312D02*
X62262Y950327D01*
X62352Y950337D01*
X62442Y950344D01*
X62532Y950347D01*
X62622Y950346D01*
X62712Y950341D01*
X62801Y950333D01*
X62891Y950320D01*
X62979Y950304D01*
X63067Y950284D01*
X63154Y950261D01*
X63240Y950234D01*
X63324Y950203D01*
X63408Y950168D01*
X63489Y950130D01*
X63570Y950089D01*
X63648Y950044D01*
X62575Y948436D02*
X63246Y948034D01*
X63293Y948004D01*
X63337Y947970D01*
X63379Y947934D01*
X63418Y947895D01*
X63455Y947854D01*
X63488Y947809D01*
X63518Y947763D01*
X63546Y947715D01*
X63569Y947665D01*
X63589Y947613D01*
X63606Y947560D01*
X63619Y947507D01*
X63628Y947452D01*
X63633Y947397D01*
X63635Y947341D01*
X63633Y947286D01*
X63627Y947231D01*
X63617Y947177D01*
X63603Y947123D01*
X63586Y947070D01*
X63565Y947019D01*
X63540Y946969D01*
X63513Y946921D01*
X63482Y946875D01*
X63447Y946832D01*
X63410Y946791D01*
X63371Y946752D01*
X63328Y946717D01*
X63283Y946684D01*
X63236Y946654D01*
X63188Y946628D01*
X63137Y946606D01*
X63085Y946586D01*
X63032Y946571D01*
X62978Y946559D01*
X62978Y946560D02*
X62889Y946545D01*
X62799Y946535D01*
X62709Y946528D01*
X62619Y946525D01*
X62529Y946526D01*
X62439Y946531D01*
X62350Y946539D01*
X62260Y946552D01*
X62172Y946568D01*
X62084Y946588D01*
X61997Y946611D01*
X61911Y946638D01*
X61827Y946669D01*
X61743Y946704D01*
X61662Y946742D01*
X61582Y946783D01*
X61503Y946828D01*
X66356Y949777D02*
X67696Y950849D01*
X67696Y946023D01*
X66356Y946023D02*
X69037Y946023D01*
X634035Y947872D02*
X634035Y951357D01*
X634035Y947872D02*
X634037Y947801D01*
X634043Y947729D01*
X634052Y947659D01*
X634065Y947589D01*
X634082Y947519D01*
X634103Y947451D01*
X634127Y947384D01*
X634155Y947318D01*
X634186Y947254D01*
X634221Y947191D01*
X634259Y947131D01*
X634300Y947072D01*
X634344Y947016D01*
X634391Y946962D01*
X634440Y946911D01*
X634493Y946863D01*
X634548Y946817D01*
X634605Y946775D01*
X634665Y946735D01*
X634726Y946699D01*
X634790Y946666D01*
X634855Y946637D01*
X634921Y946611D01*
X634989Y946588D01*
X635058Y946569D01*
X635128Y946554D01*
X635198Y946543D01*
X635269Y946535D01*
X635340Y946531D01*
X635412Y946531D01*
X635483Y946535D01*
X635554Y946543D01*
X635624Y946554D01*
X635694Y946569D01*
X635763Y946588D01*
X635831Y946611D01*
X635897Y946637D01*
X635962Y946666D01*
X636026Y946699D01*
X636087Y946735D01*
X636147Y946775D01*
X636204Y946817D01*
X636259Y946863D01*
X636312Y946911D01*
X636361Y946962D01*
X636408Y947016D01*
X636452Y947072D01*
X636493Y947131D01*
X636531Y947191D01*
X636566Y947254D01*
X636597Y947318D01*
X636625Y947384D01*
X636649Y947451D01*
X636670Y947519D01*
X636687Y947589D01*
X636700Y947659D01*
X636709Y947729D01*
X636715Y947801D01*
X636717Y947872D01*
X636717Y951357D01*
X640679Y951357D02*
X640679Y946531D01*
X640679Y948944D02*
X640009Y949346D01*
X639962Y949376D01*
X639918Y949410D01*
X639876Y949446D01*
X639837Y949485D01*
X639800Y949526D01*
X639767Y949571D01*
X639737Y949617D01*
X639709Y949665D01*
X639686Y949715D01*
X639666Y949767D01*
X639649Y949820D01*
X639636Y949873D01*
X639627Y949928D01*
X639622Y949983D01*
X639620Y950039D01*
X639622Y950094D01*
X639628Y950149D01*
X639638Y950203D01*
X639652Y950257D01*
X639669Y950310D01*
X639690Y950361D01*
X639715Y950411D01*
X639742Y950459D01*
X639773Y950504D01*
X639808Y950548D01*
X639845Y950589D01*
X639884Y950628D01*
X639927Y950663D01*
X639972Y950696D01*
X640018Y950726D01*
X640067Y950752D01*
X640118Y950774D01*
X640170Y950794D01*
X640223Y950809D01*
X640277Y950821D01*
X640277Y950820D02*
X640366Y950835D01*
X640456Y950845D01*
X640546Y950852D01*
X640636Y950855D01*
X640726Y950854D01*
X640816Y950849D01*
X640905Y950841D01*
X640995Y950828D01*
X641083Y950812D01*
X641171Y950792D01*
X641258Y950769D01*
X641344Y950742D01*
X641428Y950711D01*
X641512Y950676D01*
X641593Y950638D01*
X641674Y950597D01*
X641752Y950552D01*
X640679Y948944D02*
X641350Y948542D01*
X641397Y948512D01*
X641441Y948478D01*
X641483Y948442D01*
X641522Y948403D01*
X641559Y948362D01*
X641592Y948317D01*
X641622Y948271D01*
X641650Y948223D01*
X641673Y948173D01*
X641693Y948121D01*
X641710Y948068D01*
X641723Y948015D01*
X641732Y947960D01*
X641737Y947905D01*
X641739Y947849D01*
X641737Y947794D01*
X641731Y947739D01*
X641721Y947685D01*
X641707Y947631D01*
X641690Y947578D01*
X641669Y947527D01*
X641644Y947477D01*
X641617Y947429D01*
X641586Y947383D01*
X641551Y947340D01*
X641514Y947299D01*
X641475Y947260D01*
X641432Y947225D01*
X641387Y947192D01*
X641340Y947162D01*
X641292Y947136D01*
X641241Y947114D01*
X641189Y947094D01*
X641136Y947079D01*
X641082Y947067D01*
X641082Y947068D02*
X640993Y947053D01*
X640903Y947043D01*
X640813Y947036D01*
X640723Y947033D01*
X640633Y947034D01*
X640543Y947039D01*
X640454Y947047D01*
X640364Y947060D01*
X640276Y947076D01*
X640188Y947096D01*
X640101Y947119D01*
X640015Y947146D01*
X639931Y947177D01*
X639847Y947212D01*
X639766Y947250D01*
X639686Y947291D01*
X639607Y947336D01*
X645934Y951357D02*
X646002Y951355D01*
X646069Y951349D01*
X646136Y951340D01*
X646203Y951327D01*
X646268Y951310D01*
X646333Y951289D01*
X646396Y951265D01*
X646458Y951237D01*
X646518Y951206D01*
X646576Y951172D01*
X646632Y951134D01*
X646687Y951094D01*
X646738Y951050D01*
X646787Y951003D01*
X646834Y950954D01*
X646878Y950903D01*
X646918Y950848D01*
X646956Y950792D01*
X646990Y950734D01*
X647021Y950674D01*
X647049Y950612D01*
X647073Y950549D01*
X647094Y950484D01*
X647111Y950419D01*
X647124Y950352D01*
X647133Y950285D01*
X647139Y950218D01*
X647141Y950150D01*
X645934Y951357D02*
X645856Y951355D01*
X645778Y951349D01*
X645701Y951339D01*
X645624Y951326D01*
X645548Y951308D01*
X645473Y951287D01*
X645399Y951262D01*
X645327Y951233D01*
X645256Y951201D01*
X645187Y951165D01*
X645119Y951126D01*
X645054Y951083D01*
X644991Y951037D01*
X644930Y950988D01*
X644872Y950936D01*
X644817Y950881D01*
X644764Y950824D01*
X644715Y950764D01*
X644668Y950701D01*
X644625Y950637D01*
X644585Y950570D01*
X644548Y950501D01*
X644515Y950430D01*
X644485Y950358D01*
X644459Y950285D01*
X646739Y949212D02*
X646788Y949261D01*
X646835Y949313D01*
X646878Y949368D01*
X646919Y949425D01*
X646957Y949484D01*
X646991Y949545D01*
X647022Y949608D01*
X647050Y949672D01*
X647074Y949738D01*
X647094Y949804D01*
X647111Y949872D01*
X647124Y949941D01*
X647133Y950010D01*
X647139Y950080D01*
X647141Y950150D01*
X646738Y949212D02*
X644460Y946531D01*
X647141Y946531D01*
X56947Y551053D02*
X56947Y547568D01*
X56949Y547497D01*
X56955Y547425D01*
X56964Y547355D01*
X56977Y547285D01*
X56994Y547215D01*
X57015Y547147D01*
X57039Y547080D01*
X57067Y547014D01*
X57098Y546950D01*
X57133Y546887D01*
X57171Y546827D01*
X57212Y546768D01*
X57256Y546712D01*
X57303Y546658D01*
X57352Y546607D01*
X57405Y546559D01*
X57460Y546513D01*
X57517Y546471D01*
X57577Y546431D01*
X57638Y546395D01*
X57702Y546362D01*
X57767Y546333D01*
X57833Y546307D01*
X57901Y546284D01*
X57970Y546265D01*
X58040Y546250D01*
X58110Y546239D01*
X58181Y546231D01*
X58252Y546227D01*
X58324Y546227D01*
X58395Y546231D01*
X58466Y546239D01*
X58536Y546250D01*
X58606Y546265D01*
X58675Y546284D01*
X58743Y546307D01*
X58809Y546333D01*
X58874Y546362D01*
X58938Y546395D01*
X58999Y546431D01*
X59059Y546471D01*
X59116Y546513D01*
X59171Y546559D01*
X59224Y546607D01*
X59273Y546658D01*
X59320Y546712D01*
X59364Y546768D01*
X59405Y546827D01*
X59443Y546887D01*
X59478Y546950D01*
X59509Y547014D01*
X59537Y547080D01*
X59561Y547147D01*
X59582Y547215D01*
X59599Y547285D01*
X59612Y547355D01*
X59621Y547425D01*
X59627Y547497D01*
X59629Y547568D01*
X59629Y551053D01*
X63591Y551053D02*
X63591Y546227D01*
X63591Y548640D02*
X62921Y549042D01*
X62874Y549072D01*
X62830Y549106D01*
X62788Y549142D01*
X62749Y549181D01*
X62712Y549222D01*
X62679Y549267D01*
X62649Y549313D01*
X62621Y549361D01*
X62598Y549411D01*
X62578Y549463D01*
X62561Y549516D01*
X62548Y549569D01*
X62539Y549624D01*
X62534Y549679D01*
X62532Y549735D01*
X62534Y549790D01*
X62540Y549845D01*
X62550Y549899D01*
X62564Y549953D01*
X62581Y550006D01*
X62602Y550057D01*
X62627Y550107D01*
X62654Y550155D01*
X62685Y550200D01*
X62720Y550244D01*
X62757Y550285D01*
X62796Y550324D01*
X62839Y550359D01*
X62884Y550392D01*
X62930Y550422D01*
X62979Y550448D01*
X63030Y550470D01*
X63082Y550490D01*
X63135Y550505D01*
X63189Y550517D01*
X63189Y550516D02*
X63278Y550531D01*
X63368Y550541D01*
X63458Y550548D01*
X63548Y550551D01*
X63638Y550550D01*
X63728Y550545D01*
X63817Y550537D01*
X63907Y550524D01*
X63995Y550508D01*
X64083Y550488D01*
X64170Y550465D01*
X64256Y550438D01*
X64340Y550407D01*
X64424Y550372D01*
X64505Y550334D01*
X64586Y550293D01*
X64664Y550248D01*
X63591Y548640D02*
X64262Y548238D01*
X64309Y548208D01*
X64353Y548174D01*
X64395Y548138D01*
X64434Y548099D01*
X64471Y548058D01*
X64504Y548013D01*
X64534Y547967D01*
X64562Y547919D01*
X64585Y547869D01*
X64605Y547817D01*
X64622Y547764D01*
X64635Y547711D01*
X64644Y547656D01*
X64649Y547601D01*
X64651Y547545D01*
X64649Y547490D01*
X64643Y547435D01*
X64633Y547381D01*
X64619Y547327D01*
X64602Y547274D01*
X64581Y547223D01*
X64556Y547173D01*
X64529Y547125D01*
X64498Y547079D01*
X64463Y547036D01*
X64426Y546995D01*
X64387Y546956D01*
X64344Y546921D01*
X64299Y546888D01*
X64252Y546858D01*
X64204Y546832D01*
X64153Y546810D01*
X64101Y546790D01*
X64048Y546775D01*
X63994Y546763D01*
X63994Y546764D02*
X63905Y546749D01*
X63815Y546739D01*
X63725Y546732D01*
X63635Y546729D01*
X63545Y546730D01*
X63455Y546735D01*
X63366Y546743D01*
X63276Y546756D01*
X63188Y546772D01*
X63100Y546792D01*
X63013Y546815D01*
X62927Y546842D01*
X62843Y546873D01*
X62759Y546908D01*
X62678Y546946D01*
X62598Y546987D01*
X62519Y547032D01*
X67372Y546227D02*
X68712Y546227D01*
X68783Y546229D01*
X68855Y546235D01*
X68925Y546244D01*
X68995Y546257D01*
X69065Y546274D01*
X69133Y546295D01*
X69200Y546319D01*
X69266Y546347D01*
X69330Y546378D01*
X69393Y546413D01*
X69453Y546451D01*
X69512Y546492D01*
X69568Y546536D01*
X69622Y546583D01*
X69673Y546632D01*
X69721Y546685D01*
X69767Y546740D01*
X69809Y546797D01*
X69849Y546857D01*
X69885Y546918D01*
X69918Y546982D01*
X69947Y547047D01*
X69973Y547113D01*
X69996Y547181D01*
X70015Y547250D01*
X70030Y547320D01*
X70041Y547390D01*
X70049Y547461D01*
X70053Y547532D01*
X70053Y547604D01*
X70049Y547675D01*
X70041Y547746D01*
X70030Y547816D01*
X70015Y547886D01*
X69996Y547955D01*
X69973Y548023D01*
X69947Y548089D01*
X69918Y548154D01*
X69885Y548218D01*
X69849Y548279D01*
X69809Y548339D01*
X69767Y548396D01*
X69721Y548451D01*
X69673Y548504D01*
X69622Y548553D01*
X69568Y548600D01*
X69512Y548644D01*
X69453Y548685D01*
X69393Y548723D01*
X69330Y548758D01*
X69266Y548789D01*
X69200Y548817D01*
X69133Y548841D01*
X69065Y548862D01*
X68995Y548879D01*
X68925Y548892D01*
X68855Y548901D01*
X68783Y548907D01*
X68712Y548909D01*
X68980Y551053D02*
X67372Y551053D01*
X68980Y551053D02*
X69045Y551051D01*
X69109Y551045D01*
X69173Y551035D01*
X69237Y551022D01*
X69299Y551004D01*
X69360Y550983D01*
X69420Y550959D01*
X69478Y550930D01*
X69535Y550898D01*
X69589Y550863D01*
X69641Y550825D01*
X69691Y550783D01*
X69738Y550739D01*
X69782Y550692D01*
X69824Y550642D01*
X69862Y550590D01*
X69897Y550536D01*
X69929Y550479D01*
X69958Y550421D01*
X69982Y550361D01*
X70003Y550300D01*
X70021Y550238D01*
X70034Y550174D01*
X70044Y550110D01*
X70050Y550046D01*
X70052Y549981D01*
X70050Y549916D01*
X70044Y549852D01*
X70034Y549788D01*
X70021Y549724D01*
X70003Y549662D01*
X69982Y549601D01*
X69958Y549541D01*
X69929Y549483D01*
X69897Y549426D01*
X69862Y549372D01*
X69824Y549320D01*
X69782Y549270D01*
X69738Y549223D01*
X69691Y549179D01*
X69641Y549137D01*
X69589Y549099D01*
X69535Y549064D01*
X69478Y549032D01*
X69420Y549003D01*
X69360Y548979D01*
X69299Y548958D01*
X69237Y548940D01*
X69173Y548927D01*
X69109Y548917D01*
X69045Y548911D01*
X68980Y548909D01*
X68980Y548908D02*
X67908Y548908D01*
X633019Y549600D02*
X633019Y553085D01*
X633019Y549600D02*
X633021Y549529D01*
X633027Y549457D01*
X633036Y549387D01*
X633049Y549317D01*
X633066Y549247D01*
X633087Y549179D01*
X633111Y549112D01*
X633139Y549046D01*
X633170Y548982D01*
X633205Y548919D01*
X633243Y548859D01*
X633284Y548800D01*
X633328Y548744D01*
X633375Y548690D01*
X633424Y548639D01*
X633477Y548591D01*
X633532Y548545D01*
X633589Y548503D01*
X633649Y548463D01*
X633710Y548427D01*
X633774Y548394D01*
X633839Y548365D01*
X633905Y548339D01*
X633973Y548316D01*
X634042Y548297D01*
X634112Y548282D01*
X634182Y548271D01*
X634253Y548263D01*
X634324Y548259D01*
X634396Y548259D01*
X634467Y548263D01*
X634538Y548271D01*
X634608Y548282D01*
X634678Y548297D01*
X634747Y548316D01*
X634815Y548339D01*
X634881Y548365D01*
X634946Y548394D01*
X635010Y548427D01*
X635071Y548463D01*
X635131Y548503D01*
X635188Y548545D01*
X635243Y548591D01*
X635296Y548639D01*
X635345Y548690D01*
X635392Y548744D01*
X635436Y548800D01*
X635477Y548859D01*
X635515Y548919D01*
X635550Y548982D01*
X635581Y549046D01*
X635609Y549112D01*
X635633Y549179D01*
X635654Y549247D01*
X635671Y549317D01*
X635684Y549387D01*
X635693Y549457D01*
X635699Y549529D01*
X635701Y549600D01*
X635701Y553085D01*
X639663Y553085D02*
X639663Y548259D01*
X639663Y550672D02*
X638993Y551074D01*
X638946Y551104D01*
X638902Y551138D01*
X638860Y551174D01*
X638821Y551213D01*
X638784Y551254D01*
X638751Y551299D01*
X638721Y551345D01*
X638693Y551393D01*
X638670Y551443D01*
X638650Y551495D01*
X638633Y551548D01*
X638620Y551601D01*
X638611Y551656D01*
X638606Y551711D01*
X638604Y551767D01*
X638606Y551822D01*
X638612Y551877D01*
X638622Y551931D01*
X638636Y551985D01*
X638653Y552038D01*
X638674Y552089D01*
X638699Y552139D01*
X638726Y552187D01*
X638757Y552232D01*
X638792Y552276D01*
X638829Y552317D01*
X638868Y552356D01*
X638911Y552391D01*
X638956Y552424D01*
X639002Y552454D01*
X639051Y552480D01*
X639102Y552502D01*
X639154Y552522D01*
X639207Y552537D01*
X639261Y552549D01*
X639261Y552548D02*
X639350Y552563D01*
X639440Y552573D01*
X639530Y552580D01*
X639620Y552583D01*
X639710Y552582D01*
X639800Y552577D01*
X639889Y552569D01*
X639979Y552556D01*
X640067Y552540D01*
X640155Y552520D01*
X640242Y552497D01*
X640328Y552470D01*
X640412Y552439D01*
X640496Y552404D01*
X640577Y552366D01*
X640658Y552325D01*
X640736Y552280D01*
X639663Y550672D02*
X640334Y550270D01*
X640381Y550240D01*
X640425Y550206D01*
X640467Y550170D01*
X640506Y550131D01*
X640543Y550090D01*
X640576Y550045D01*
X640606Y549999D01*
X640634Y549951D01*
X640657Y549901D01*
X640677Y549849D01*
X640694Y549796D01*
X640707Y549743D01*
X640716Y549688D01*
X640721Y549633D01*
X640723Y549577D01*
X640721Y549522D01*
X640715Y549467D01*
X640705Y549413D01*
X640691Y549359D01*
X640674Y549306D01*
X640653Y549255D01*
X640628Y549205D01*
X640601Y549157D01*
X640570Y549111D01*
X640535Y549068D01*
X640498Y549027D01*
X640459Y548988D01*
X640416Y548953D01*
X640371Y548920D01*
X640324Y548890D01*
X640276Y548864D01*
X640225Y548842D01*
X640173Y548822D01*
X640120Y548807D01*
X640066Y548795D01*
X640066Y548796D02*
X639977Y548781D01*
X639887Y548771D01*
X639797Y548764D01*
X639707Y548761D01*
X639617Y548762D01*
X639527Y548767D01*
X639438Y548775D01*
X639348Y548788D01*
X639260Y548804D01*
X639172Y548824D01*
X639085Y548847D01*
X638999Y548874D01*
X638915Y548905D01*
X638831Y548940D01*
X638750Y548978D01*
X638670Y549019D01*
X638591Y549064D01*
X643444Y549331D02*
X644516Y553085D01*
X643444Y549331D02*
X646125Y549331D01*
X645320Y548259D02*
X645320Y550404D01*
M02*
